<mxfile host="app.diagrams.net" agent="Mozilla/5.0 (X11; Linux x86_64; rv:129.0) Gecko/20100101 Firefox/129.0" version="24.7.7" pages="2">
  <diagram name="Material Basic" id="H9XW9cLddHIxJfancX7F">
    <mxGraphModel dx="1674" dy="792" grid="1" gridSize="10" guides="1" tooltips="1" connect="1" arrows="1" fold="1" page="1" pageScale="1" pageWidth="1700" pageHeight="1100" math="0" shadow="0">
      <root>
        <mxCell id="0" />
        <mxCell id="1" parent="0" />
        <mxCell id="mqWvIrxk8scyEU1leMkL-1" value="&lt;b&gt;Everything is a Widget&lt;/b&gt;" style="text;html=1;align=center;verticalAlign=middle;whiteSpace=wrap;rounded=0;" parent="1" vertex="1">
          <mxGeometry x="60" y="40" width="170" height="30" as="geometry" />
        </mxCell>
        <mxCell id="mqWvIrxk8scyEU1leMkL-4" style="edgeStyle=orthogonalEdgeStyle;rounded=0;orthogonalLoop=1;jettySize=auto;html=1;exitX=1;exitY=0.5;exitDx=0;exitDy=0;" parent="1" source="mqWvIrxk8scyEU1leMkL-2" target="mqWvIrxk8scyEU1leMkL-3" edge="1">
          <mxGeometry relative="1" as="geometry" />
        </mxCell>
        <mxCell id="mqWvIrxk8scyEU1leMkL-2" value="import &#39;package:flutter/material.dart&#39;;" style="rounded=1;whiteSpace=wrap;html=1;" parent="1" vertex="1">
          <mxGeometry x="100" y="120" width="240" height="50" as="geometry" />
        </mxCell>
        <mxCell id="mqWvIrxk8scyEU1leMkL-6" style="edgeStyle=orthogonalEdgeStyle;rounded=0;orthogonalLoop=1;jettySize=auto;html=1;exitX=1;exitY=0.5;exitDx=0;exitDy=0;" parent="1" source="mqWvIrxk8scyEU1leMkL-3" target="mqWvIrxk8scyEU1leMkL-5" edge="1">
          <mxGeometry relative="1" as="geometry" />
        </mxCell>
        <mxCell id="mqWvIrxk8scyEU1leMkL-3" value="MaterialApp()" style="rounded=1;whiteSpace=wrap;html=1;" parent="1" vertex="1">
          <mxGeometry x="520" y="120" width="160" height="50" as="geometry" />
        </mxCell>
        <mxCell id="mqWvIrxk8scyEU1leMkL-11" style="edgeStyle=orthogonalEdgeStyle;rounded=0;orthogonalLoop=1;jettySize=auto;html=1;exitX=0.5;exitY=1;exitDx=0;exitDy=0;" parent="1" source="mqWvIrxk8scyEU1leMkL-5" target="mqWvIrxk8scyEU1leMkL-7" edge="1">
          <mxGeometry relative="1" as="geometry" />
        </mxCell>
        <mxCell id="mqWvIrxk8scyEU1leMkL-12" style="edgeStyle=orthogonalEdgeStyle;rounded=0;orthogonalLoop=1;jettySize=auto;html=1;exitX=0.5;exitY=1;exitDx=0;exitDy=0;" parent="1" source="mqWvIrxk8scyEU1leMkL-5" target="mqWvIrxk8scyEU1leMkL-8" edge="1">
          <mxGeometry relative="1" as="geometry" />
        </mxCell>
        <mxCell id="mqWvIrxk8scyEU1leMkL-5" value="Scaffold()" style="rounded=1;whiteSpace=wrap;html=1;" parent="1" vertex="1">
          <mxGeometry x="910" y="120" width="160" height="50" as="geometry" />
        </mxCell>
        <mxCell id="mqWvIrxk8scyEU1leMkL-13" style="edgeStyle=orthogonalEdgeStyle;rounded=0;orthogonalLoop=1;jettySize=auto;html=1;exitX=0.5;exitY=1;exitDx=0;exitDy=0;" parent="1" source="mqWvIrxk8scyEU1leMkL-7" target="mqWvIrxk8scyEU1leMkL-9" edge="1">
          <mxGeometry relative="1" as="geometry" />
        </mxCell>
        <mxCell id="mqWvIrxk8scyEU1leMkL-7" value="appBar" style="rounded=1;whiteSpace=wrap;html=1;" parent="1" vertex="1">
          <mxGeometry x="860" y="240" width="110" height="50" as="geometry" />
        </mxCell>
        <mxCell id="mqWvIrxk8scyEU1leMkL-14" style="edgeStyle=orthogonalEdgeStyle;rounded=0;orthogonalLoop=1;jettySize=auto;html=1;exitX=0.5;exitY=1;exitDx=0;exitDy=0;" parent="1" source="mqWvIrxk8scyEU1leMkL-8" target="mqWvIrxk8scyEU1leMkL-10" edge="1">
          <mxGeometry relative="1" as="geometry" />
        </mxCell>
        <mxCell id="mqWvIrxk8scyEU1leMkL-8" value="body" style="rounded=1;whiteSpace=wrap;html=1;" parent="1" vertex="1">
          <mxGeometry x="1020" y="240" width="110" height="50" as="geometry" />
        </mxCell>
        <mxCell id="mqWvIrxk8scyEU1leMkL-9" value="AppBar()" style="rounded=1;whiteSpace=wrap;html=1;" parent="1" vertex="1">
          <mxGeometry x="860" y="350" width="110" height="50" as="geometry" />
        </mxCell>
        <mxCell id="mqWvIrxk8scyEU1leMkL-10" value="Container()" style="rounded=1;whiteSpace=wrap;html=1;" parent="1" vertex="1">
          <mxGeometry x="1020" y="350" width="110" height="50" as="geometry" />
        </mxCell>
        <mxCell id="Ft04dYlBNAyAh4mF_v9f-1" value="sometimes it&#39;s unnecessary" style="text;html=1;align=center;verticalAlign=middle;whiteSpace=wrap;rounded=0;" vertex="1" parent="1">
          <mxGeometry x="1020" y="400" width="180" height="30" as="geometry" />
        </mxCell>
      </root>
    </mxGraphModel>
  </diagram>
  <diagram id="XjWo_PUGPI8T1MEKB7fF" name="Calling Home">
    <mxGraphModel dx="1674" dy="792" grid="1" gridSize="10" guides="1" tooltips="1" connect="1" arrows="1" fold="1" page="1" pageScale="1" pageWidth="1700" pageHeight="1100" math="0" shadow="0">
      <root>
        <mxCell id="0" />
        <mxCell id="1" parent="0" />
        <mxCell id="hXhVtGYEjcbIQ-P3suZ7-1" value="&lt;b&gt;In this sample, we&#39;re gonna see how main.dart call homepage.dart in /screens&lt;/b&gt;" style="text;html=1;align=center;verticalAlign=middle;whiteSpace=wrap;rounded=0;" vertex="1" parent="1">
          <mxGeometry x="50" y="40" width="510" height="30" as="geometry" />
        </mxCell>
        <mxCell id="hXhVtGYEjcbIQ-P3suZ7-2" value="&lt;b&gt;main.dart&lt;/b&gt;" style="text;html=1;align=center;verticalAlign=middle;whiteSpace=wrap;rounded=0;" vertex="1" parent="1">
          <mxGeometry x="50" y="150" width="70" height="30" as="geometry" />
        </mxCell>
        <mxCell id="hXhVtGYEjcbIQ-P3suZ7-3" value="" style="shape=image;verticalLabelPosition=bottom;labelBackgroundColor=default;verticalAlign=top;aspect=fixed;imageAspect=0;image=data:image/png,iVBORw0KGgoAAAANSUhEUgAAAmUAAAGwCAIAAABn9oVxAAAAA3NCSVQICAjb4U/gAAAgAElEQVR4Xuy9CVxTV/r/f71ZLiEhCWENOxrZZVVwA4tI1W9x6thaulin2q9VZ6rztbadts60dlpbx9Z2qs60TH/V/q3a2laro1O1FhnFBVBW2cTIDoEAIQlZvNn8n5sAgmTBBRd8zssXhnPP8pz3udzPfc45OWdMWNREDAIQAAJAAAgAASBglwBu9ypcBAJAAAgAASAABCgCoJdwHwABIAAEgAAQcEwA9NIxI0gBBIAAEAACQAD0Eu4BIAAEgAAQAAKOCdDcPX3spwqfsHWdd9uJ9jaT/XSj7yrOS90weXxbQ23H3W8bM/jJ2N/+b8T02UGRQk1VidqIYZ7zEp56IWz6gmBBa7247e6bdF/XSJ804cVl3OZcmfqaAztvHSPukvzutAhFo1jiqA4HJsBlIAAEHkgCjv3Lhsa9extq9HezdUTGa4kZvOHXyPV/4h/p81Pow89xv6f08Z2SQqv4OGfbKye/+VZKms2VHirc8eeiiu5h246zp74xQcQYkt7Vf/5qf/aQ6FuL4KYlrFxz66Uhnct8/A7YYhA35h6SyIbxTnfTGG+Ny5BcNls6+u7eIW2HCCAwOgg41kuN4nSeQn03W+ssCA2k3UyFWpLUG64qDTeT5/5O68pia1USyqU3GSxqeQv28gRCTyv9Sw8RCG8Kr52qcZeY6Zy6ky23en/gwhDenbGlW1FdpL6P7wDbLR19d6+dGwYuAYEHmYBdn8w1c13sTCGLj7VsXFNabHYxGckTP0kgy9nu8TzlsaOayDRfP33T5g2XaoRhn7zMyi+jx4ucnXm4vLBy6652qZkMIyBgxfOiuAAmptFUZJd/cVhmfro6ZaybGnyqXJoQPjOQYOjl+z8tOCwhEhfFPBHN93WmR66fOQ/DdK0Nmz+6Um8ux3YwGkiN/qrmegLPBVMfc5OKCYG/G5NN01YfuJhbpKMu+3inZ44N8mcRuEnd1l6ws7Ki1ZKLLpwTnjLd3cOVjpFaSU7pvkM9g+pz85zzx3B2XtHBn3sMGN1/XmRykkDAwTG9tvl09ZGDMrOo4Z5pkbNm8Og4g+tGp5tMirPFO3bLMIzpPy88dbqAS2DqJknuzmpx/wAvzk58PTGmqRQl633WBwfOzxRyXdlsDjbnfQGKlBw8ezTfpt8keHzqsz61X3zeRmVHA8h/jSd+zDlaxgpbFBEfwvVk4Z7vTk9Glxrqvs9qUXPdk18QifzZBCF49oNAlEV5unjfz1R30P28U58ViXwIjFQ35VQdP6qwyLT/4ulTO6vLPccmhrOcMH31t3k5JdeNoccGhWEtBy0xgaLFmcw6DT/M31B9tJ031V9IKHI/u1jdhbHjQ9IfEwrd6DSTQVZV++vOJuQy08ODMx4Xeviw2IaJS5KM6MVAvDsvt4riaN0Y3GXqukjaf+rpqWNF3sjOztzNF6uRt81wT30jTORKsFUNe9aLpX3WWa10UJ8O6xdcOGdCepo7FyM7LrYp0LC4Jdi4kehJMcviZYfrBMnT+TwCk50u2XtQYaelVGFD7t7eKkS/feXZwMKsv59sH5ahkAgIAIGRJmBXL7v3bsjZGz4h66VBXoqrD3Zm3emKP8xcMeXSK+vyUzdMShXV1KCHrrtXSEfun3ep9c5uy9cnLJ958r0TJObstWJNCPto/qoNPTp376VrJr6iOf3eCYu2OSXN8/1u25nljQbMmcGg4siCXQUF7mPf2+CVv/7cYcUwW29SFu6uxJoGpeZF8jQbC/a0YUR4WOaySFldMTWS2a2uO3nx7MUeNcaKWT45ZV7npSwpkg1uWsz8VFPB13n7xCSNz+Zhff6S5eFLiWWIU+6Fg8ctHoxBUSvJPV/R1GYgwkMyV4YkFOadbUZiHDjrMWbFh6dLO3D/ZybP4Yi/ocQSFT4hI159dFNOXTfdf8HEjJeCZR/W9Y4cmvSyWllTB3ndMaprOLCxAYuMWPac6eifq5tsCqVdNCZt9c7CaiRga9hn3ykV9w+mKztzt3QWpScuiZbs2dx03SkkBMkrQrmni77c1IN5+85ZE5sqPXO0yGIUzSN1rGB3yY6vdRiDTmADDWJGznCXnT7TL1GYD0v57tmDqVOfTWfve/eseOmMyFhmdbaOlMrK99YfFusMPM85r01Int6+L1tnqKo7UNUQtjI1sfXCzoMDHFQ7xuDsqMcEOV/m5SDPm0Onq8wQ9J05753OnRSz4n8GMbFaqV1qVi7Sw0PmPEpUbM0pqMMEaTGZU7A6SyobNxK6SAsfm9Bcsu9t9MKBEwSFy2ZLLUVZu3upKz3tTfX6jgFvgVbsgyggAATuIgEr43UOa+9QNOsN0k5dd4NCipFyOYPDG0Nl0ncX5KmpZ7NGllOoC412R/NSjGi/OH3r/mNIodCDre2nU6rQFKFnXxXSwiuHkVhSWfS3M0NqkFXIZNpBhhsa2srNi2LISy11KsH4MHNLtT3ioh7KRr22ukxO47GcqVhW2GS+LKe6sEpr0JvIjh5pR78qGA3O3pRY5hQf7hVLKoOyQorE0lx4e5OSYAuoSMybw1MoJF3ok0lSqyY82VyqTlbYJL7sdG0dijcZmk5KZF5eIm9zeiroxN+XHs251eHM/mJu7wM93DeM0V6QjVxnzNDWUlGFByfwr79J1TaeKzF753oDObCXggNivDtLz5ovWYJKLVVgik6toU0hJU0KuZ7gUNOnhuZOcY3OgKB2S8V1JrYrcT3LkE/2jZHliastK89UhusvGUMKudlKrRVAxXlMcGdfbiyqQ6abZKea6vrvMes3krkYbUch8s6pHCZy8D1poxYrdy+Vsv3sDzsPVw4e5rBRAkQDASBwNwjY9S9tGWAyPzWv6fVoeGrgUkGjuvdt+JocaRKboPSSRzA13fK+krrRW7czgfTSPFRrUssHPGxt1XaL8VeNvYNnJoNGg/lwUEt1dA/3+HmBwWj6To/ROGy6hvL/MJzJZpvQA95KRThD9GQ4wSBL2wa4gBhdmCpKiOdzGSYjRudy8XpLzlaljOfl741LW3H/UBeypUWJHpqocC4unDdt5Zze4mkmstWeXlixYqSjaK5MguOZ8YGwtyIGjl2io2lFiyCRap01ZcKDU32x80XigZJgot4zjOiHvg++uUR2ZODUVC8PDnWJ8MCxfHsNsm+Metiz1DdVqS2DnDiM68036tH9bVmbZP1GspSi0ZH9w7a2yoV4IAAEHkACt6SXttrJ5KNFrZ3o6hhPPpqrI5HbpFNodc5OfQKJuaJJHY3cMq9pq5Q7FO9CIFWiHvQ4k8vBSBX6yIpZEhPWUrz3Qxl6/WenJixJstRlUKtxTzdKUIfWLdmfewqLzHxhguzT4gqzw0qPDsmYRxR8XFDaaqKmDN+P7YXY1pST4/XUq1Mjuw1kW9PRbzup2k06tdrUdDR33ylrojO0vpuOMWH9C2ZoBGH2l282GBU6srvpwNs1kn6/2mERrr7x4apSNH7rMHC8018Murr33J58hBcXLZ8x1W6WWzFmaIE3Wen1AtC7gv46hasqPeHGRP1LdR6N4dT7omPrRhpqB8QAASAwegjcynisrdYz+DPnePCRTyn0y0hglBd2UmOwZc35mG/GbC7la7oLM9M4l85JHOilBgktK9jKFyFsVWwtnu4nTIxmogc0d3qQyFl2uRppG06wMIOSpBwgV0F8Ut+Qo0ktLuzxSA2PCWHScZzuyhYGooyWYEJCq8y/ePAsI2VZiD/LHMliEHqDWkU5jwJUOK+PIc4OjWdWfJ23Z2PB3q8amiyza5i2Ok8uSA0JC6T3Fh7OHuBeMkVPxc1Ju/UvVKjbtEZ/r1DktOF0Ybp/sMVCi+0qksRRW8zmDehnUklibi6eHHMic7yhoqXaJJz6GLUiCSPo3GB3oYelCJs/PVN9BTVN1f0Ll2wmRN3OIOhG0uwXEiL/GNHAVzSTWm1g+/PZA8y7BWOsVG6vUivJe6NEIYv/nvrsgO+3dFzsVI8PiA9GNuOCKb5BvdBs3Ei2C6bGUoa01F5ydI3u4urmckffZx1UCJeBABCwT8DO3yM/OfbteXz04EFe44oNrjq9+ti288fsFKfpLNcHvbctwZWhq8st2ZprHuDUdGzfVr30+YlbFzCZGk15buHWY46WMGgk3+0Xrl6StmuJsVtc897fGxzoq1WTSLGMTJm4cimLppGX7rpo/tqiuvRQi/+TiStSTWqprOh0i6zP05H9UnKQEZ78QnKqK27QaiW/lu5rGOhrmqQHS3I8E+e8qN77zxZlSe25+Anpf01LJ7XS87VFVS6W6UuMZtKoGMkrU2PMBpGtLTlfVla3Ycrs0sOM8JTlyXN4uEGl7SgRH65S9w7+4gzBWL4/EhTM0XchOJ7pa0RCBs52pdOemb54gUl5tvTAUTVZJD4VPmHqutRUNPF6vq5UzOH24+iSnM32nPX71BijQV1Rtefr3hFnQ1FtbvyEOR+kYVpScrTwQI4WI2W5/6ya8lTYcx8hLTeo22VFezoldrSQcI+ZiFdvtzqEPaQ3us1mLEtdicyobSw4rUgc8JXQpl8u1b0YuuSTEFKjLM0qLGhA4G7OGEF6XEYyi0aw6BzBY+s9jfqeArQo11alNjD2Gq3Xowls44CBeUNVzdFfJqSvmpGIGWTljeIGAfWuY7J5Iw1p/PUIKy21kxqtH094dvWsnm//tqdmhAYm7NYOF4EAEBhKYMydOs8rIOyTdez9Lxeevp11O0Ptu7UY9H2Sp7zEX3xOrX29W4EetnJafHvJvkMKalEMwYpcNjmh7cLOH4cxYnm3TIR6HiACYx9/cyH9p837qu/iPfwA4QFTgcA9IHAnx2Pvgfn3T5U4wRXgZLe2dwUpweRxMHW3tTVE94/NYMn9S0Dg72MoLQCxvH97CCx7CAnYGY99CGncRpPRGN3+es8FicvSqbUhdINOUnjxeI6VBUS3UQdkfXgIyE5+/tHD01poKRB4IAjcsfHYB6K1YCQQAAJAAAgAgVsjAOOxt8YNcgEBIAAEgMDDRQD08uHqb2gtEAACQAAI3BoB0Mtb4wa5gAAQAAJA4OEiAHr5cPU3tBYIAAEgAARujYBjvQyfsPXT6Lihpw7fWn0PUi60190HM9IjHySTHdsaHfLs+zNWbklf8tRNHMjtuNhhpPB/bvqyF9yHkfCBTcLwzPj71KmBD6z9Dg33CHx2S0KkZZMjh4khARAYdQQc62VD4969DTV3dRcCIuO1xIybeJzDCfXDvy/Lavb8Off4xXvwJXjp2Zqck/077w+2GB099rcY0QP5IKaHLZ8xcAu94XfFw5aSPmlC5oC9Bvubj+Jf/kdi4vVDex42MNDeB4aAY73UKE7nKe7qgVPOgtDA/j3Eh0MSTqgfDqV7nYasQ4d5WdVp6qgTWmG9uHfH3Xtt6E3V7+0bI1KWnrqrfyA3ZeB9kxgXhvCs/lkbVHoSnf3yIPb+fQMXDLk7BOzuV+CauS52ppDFx1o2riktNruYjOSJnySQ5Wz3eJ7y2FFNZJqvn75p84ZLNcKwT15m5ZfR40XOzjxcXli5dVe7Zd9XRkDAiudFcQFMTKOpyC7/4rDM/HBxylg3NfhUuTQhfGYgwdDL939acFhCJC6KeSKa7+tMj1w/cx46MKS1YfNHV+odsBhyQj3aD+8xN6mYEPi7Mdk0bfWBi7lF5q0DfLzTM8cG+bMI3KRuay/YWVnRaimbLpwTnjLd3cOVjpFaSU7pvkOD97GjjowOZ+cVHfwZHRJJ958XmZwkEHDQWRba5tPVRw7KzBv54J5pkbNm8Og4g+tGp5tMirPFO6gjo5n+88JTp1O7maubJLk7q8X9W7Pi7MTXE2OaSlGyfiUhwoPTnwzwd6PTTAZlU0vOP8VNVOnWKmUI0t8JxiowYSxHfVrcFOgf6Y/Xf1uQU4InrJ3i39BiGOsu4NBpGtm5ndXV6DQV24Hu5536rEjkQ2Ckuimn6jg6wdF2YoxwiVkcHh/CZhO4US4v78XLtFmpSJS52FfAZ2JFxZ9/TR1gMyi4CmMitWWbrp8OboMARvfxnPKkKGwsm426r0uSu6WyGm0L7Or/xGsuFd/rwuZ5e3Bphqbag9uaqOO4WS4Jz0TGR6EdccmOsrrj37ZYOsl6S8PDljyJV9SyRGMJgoWTdQ2/ft0kpe543DM1cla6u8AZ9TXZUVRz+FvpQG0UpvhzK6ovUbsT9wZuLDqfXOjBRRsIt+d+VWnZkp4ICUxfGOTvQcc0PeLjVTk56C7Cw1ZODVPKiHAP56b6om73mFgOmV+y76AC3Qnc+JD0+b5CLmbslpf+VHG2DN29NvGyUeLHhELzDSOrqv11Z5NlY1+Ece6Tvq4MzMkN3fAY2Vy370MxOtzbOoEbOqX/VwY78rkJU2PR4XfquvzrwwO2KvVfPH1qZ3W559jEcJYTpq/+Ni+nxEQPD854XOjhw2IbJi5JMqKDYMW783Kr+urQGEjSoBlywwln/d/SmIZvP/2p1t6da8tuiAcCd56AXb3s3rshZ2/4hKyXBnmhrj7YmXWnK/4wc8WUS6+sy0/dMClVVFODHiLuXiEduX/epdY7uy1fn7B85sn3TqDTLr1WrAlhH81ftaFH5+69dM3EVzSn3zth2XLdKWme73fbzixHR0Y7MxhUHFmwq6DAfex7G7zy1587fP0Jar/h1k6o50XyNBsL9rRhRDh6fkXK6oqpLde71XUnL569iE6vZsUsn5wyr/NSFrXHLDctZn6qqeDrvH1iksZn87C+R6LlD5USyxCn3AsHe4+MNihqJbnnK9CR0UR4SObKkITCvLPNSIwDZz3GrPjwdGkH7v/M5Dkc8TeUWKLCJ2TEq49uyqnrpvsvmJjxUrDswzrqgY6CSS+rlTV1DDhcE2fHLAgizuZ9nq3FCKZnIKNPuKxV2o5eYLiEOHdPWciS3wdKNuV9L4pbnCTILZFjNGZQKLbn4zwpiXs+nvjEYn/ppobeSofCJATJK0K5p4u+ROdzefvOWRObKj1ztMiqL2jOTJLSktqD33bKVLjnvIlPPTm2vqS6CbXIVqVi8d63xWj+co61aXBBir+HuPbIgHcI6wSQkb+P9K+qOvi1VErSBT4MdZ9K0TnCKUk1//n4tBQx4+DUWc0YPWxxfDR2ae+bbUrcJeH3Ex9foPrmW4XBdkvpPl7+5wu+3602ELzkNyYmT2nfd0qHcYXJj7PrPz25p8FE57I9XPWDHEmOZ0KCoeKf5oPbLAFnB4skBzbmSEjqBkudLxV/2Wlw9Z27zP/qjwVf5msxH985L8fPUp05eh5ZSbhibd9slM15PzLsP7k7swIWLxcKDyma/EUZi/j1X+buqzKw4yOeemGCekNhKTpv3AZeUior31t/WKwz8DznvDYheXr7vmwdOmku8bkAw6EzO/INxKQJix/XHzaLJWabQH8jBn4QzJmQ6i87+HZek5YV9kJCGK33vFPrlVI5aR6pYwW7S3Z8rcMYdAKjOsNQVXegqiFsZWpi64WdB4f44m0tOd/QzW8ng8LVjobG+pYeEMsbwcDv94yA4/HYoaZ1KJr1BmmnrrtBIcVIuZzB4Y2hUum7C/LQOdHoTBJZTqEuNNqdOsMr2i9O37r/GFIoTN/Z9tMpVWiKEB2HaQnSwiuHkVhSWfRD/lz6Eg3jfysn1Bsa2srNx1WSl1rqVILxYeaWanvERT2UjXptdZmcxmOZz4tkhU3my3KqC6u06HgKsqNH2tH/N2o0OHtTYplTfLhXLKkMygopEktz4e1NSoJtOaDEm8NTKCTouYaZJLVqwhMdFG0ufBJfdrq2DsWbDE0nJTIvL9H1qRqd+PvSozkDniAmUinDBLH+kehwMVInrek7ycRWpZhW2mIwdKnVmh5pK8qsQ+dxm88LM0nLJGY/wyQ9K5H5eAW7UrFWAz3cN4zRXpCNnB7M0NZSUYUHJ/QddmY1A6aTnEdiaS78fIeMw2L3CuFNVNpbMCFISKKLczqvexc2CNAjKSNzv2+TomO4SZ2s7joZ1K+XjjYhsUSBpM5ZwzCOV1i4/tLRNnR2Ger00rNydqQXOvTMXktJWcVJ8ykxZI+k1cT1NFMktUoNK2iGLzoG3KBUSwadWoNxpwT5tzSVojNVrgdDXXaDBJFBN1iFkubGRjcYO97br6vpbL6WwtvaUnBBL0pyt5zppmxVGjRahZKUopK7tWongqBhwiRv3uX6girKFnVJk1jFF0Va3mut4zU0d4prdAbU7m404m1iu5rLduZ4crUSsblBYrmSyxaY73V7BAY0o+8jKziS3ZFX36Q0tyhHqug7Ctt6pZZstY3nSszDOXpD73bKVkoeEEVqm8p6hriXWHfpT9/sK7BzTI79UuEqELjjBOz6l7ZqM5m17Zpej/54rg1IZETnz5vDNTnSJDZB6SWPYGq6+4dxupG35Ez0HR9tUstHboPVq8beP22TQaPBfDiopTq6h3v8vMBgIQ3TYzQOGmKi/D90oDSbbVJYPZwKZ4ieDCcYZGnbABcQowtTRQnxfC7DZMToXC5eb2l1q1LG80IPVmkr7h/qQra0oAc7VTgXF86btnKOJRE69YtsHXAAZm/s9f8M1f8vj0wPjl88LcUkL/9P9TnzcxY96KxXajQZzb1h1JvPoUJt7nsFMl7tewVBB2FidAKtpqG03EqguTIJjmfGB8Lea+jM5Et0NNVkrtdaINhh88ZGitBQp8lIYwr63XFU/7ArtZTLTgoUyZt21wx0IqwToPGYNKWs/3k92CyDGj3QBwYu05nBjv8jOsvMHEujRlOdaJi9lpL6gX2MTkulMpKy4x+VxvxPYOrrIqJFcvbHmoqGPlMZvJhklni/ZJC7ZCLVir4E1DmrVGCjQ9JVZP8pdmr0NxDOshz5aaTOpqb+oR4ye2IooCPbCCI8ctlHfSuzGSaZM3ofoVpiFS87MnBqqpcHB0MVEuilIN9cjEYplYv8w5mFp3XsMAFX3tNhtsAeAXO+QQGnOztjavPZpVSgbiQXy0frlZqvkWqdzTvHkhl+AoEHk8At6aWtpjLRSZkYNT01xpOP5urQsc+YTqHVOTv1CSTmih4dGvmtnGdpq06b8S6Um0X93eJMLge5HegjK2ZJTFhL8d4PZWjIjp2asCTJktugVuOebpSgDi1Nsj/3FBaZ+cIE2afFFWaHlR4dkjGPKPi4oBTNCKLvnLwf2wuxrSknx+upV6dGdhvItqaj35qH6Uw6tdrUdDR336lhP0P02rqfK+t+rkaTWBmLY4wt1GCvzUqHWtwXQ7ggAOYWuSI32kDaXk9hVOjI7qYDb9dIBsqW7ZI958XMEkm//+wi5dL5BS9+HR0S3huGXymVAWdHJnObfr14g9ghV2YoAWSkkcti0zCbo8oDDVbqSHQQ5sd5Bb3z073X6HZbar2HumWlu2Wl3zP9/yc2Y3mI8s/mkWc0rhkbEKZvOVh2I7I+lbxuDXVMTTg1kmFpJuX/9ejUN+brT29SK0nyYvWXaCB3YIsw6gxzK3g53ukvBl3de25PPuprXLR8xlRLLlNPwd72zGXTlqRqSZWy4CvzYCxSXLsEUAI6AzP0j/WYDEjn2eZ3TSozCx3Uag62KrVchZ9AYJQSuJXxWFsoGPyZczzQo5Mh9MtIYJQXdlJjsGXN+Zhvxmwu5Wu6CzPTOJfOSRzopQYJLStYZG2uy1bVQ+PpfsLEaPSIwbnTg0TOssvVSNtwgoUZlCT1RHMVxCf1DTma1OLCHo/U8Bg0BIrjdFe2MJB6NpmDCQmtMv/iwbOMlGUh/ixzHItB6A1qatwPF6DCeX0McXZoPLPi67w9Gwv2ftXQ1KtP2uo8uSA1JCyQ3lt4OHLL+gNT9FTcnDQEpy/gLGGsC1oZhKrWtKlJE45Z1hTaqvR6zhs+4YL4oDDkbTCYokd9Ba3tdQPWpNyQ1FDRUm0STn2MWpGEEXRusLvQw2a56AKB3B3UScglYrBEM9GqlP5wE5WiPPRw/0hWe+ENE6U2CBiqJGKjV/KTngLkKFNGWijZsFPVXlpBRD7uL3RFBHC2N88/mOrTm20p5uoSHEItlkFDiwqp1oD81N4lnqywFHfZ6UaLCNkwojdaXdJSz/WdOoWFxIbu55sYz6g/1z50+LG/EMnZFkWIaEo8i2BgdA7TM5JnPqUaBWt40YHudCNpdgEJkX+M6PobsM8kL0POBXQ3fv9ZZWmfW2yfAHdO4oq/T08N77dFK65Se0wN8kd9jG6kGZ4CS/NtV9qfc8gHk1ptYPvzLY71kKtWIuhsgaur5U/OylWIAgJ3n4Ad/5KfHPv2PD76y0Be44oNrjq9+ti288fsmKjpLNcHvbctwZWhq8st2ZprfiRoOrZvq176/MStC5hMjaY8t3Drsf6RKRtlaSTf7ReuXpK2a4mxW1zz3t8bHOir1WJIsYxMmbhyKYumkZfuukgt9sHUpYda/J9MXJFqUktlRadbZL2v4pjsl5KDjPDkF5JTXXGDViv5tXTfoJkqk/RgSY5n4pwX1Xv/2aIsqT0XPyH9r2nppFZ6vraoysUyfYlGWjUqRvLK1BizQWRrS86XldVtmDK79DAjPGV58hweblBpO0rEh6v65t5whmAs3x898TDzzBkV6D6pE+JfYKEnpFGjbvqlotA8PWawVWlvrqH/mSRVKtGK5FkedLJVgtZMmt0yVszKuBghOquTzjZNWBxlwppq932JZFmW+8+qKU+FPfcR0nKDul1WtKdTYnviqOmXS+IXQ5d8IiJVavHRJnFY/y4EVitlhi2dmBiEVuKw2Fjkkr/qjdKmw/9E9tBDU700pwskN85cWyeAaTtz/lmTvFCU+UEMQUPLmyU5n1VS05PWg0G8s4jIDJnzlxA0pEF299QdvdhUR42v3lRLMYIbmSl6DK1rNZnILnnF7ktNFmuD/WPc2nPPWhmQsGJOd9vxL4nUzMQVz9CNqp667KJfz6Petv2q2lB38PkhSVkAACAASURBVBssdV7isheZaKZWWd+SU6swzxxYw9stOZvtOWtZ6kqjQV3bWHBakdj7oolfVZGCOZMtEwEGpaL025JcNK1onwBpREPEhr5JSlSl7OeLOW4T5ryfRmi19aelTaR5PNZmpVZa3x+Fbps66rYJITXK0qzCgkHzvkMz0kMy/m8h6/Dfvi64OvQixACBe0Hgjp3nFRD2yTr2/pcLT9/49LsXrULfJ3nKS/zF59Ta17sV6GErp8W3l+w7pKDWOBCsyGWTE9ou7Pxx8PdS7pI1zITXk4MKc6l1kncv3JNK717z7nVNN4eXm56QGdV58MsGKRrnwHHBnInPRrfv3Nhw49D3vW6V7fo9Z616WXj2w28Ke1fk2k4JV4DAXSJgx7+8SxaMkmqQzybAyWpt74JAgsnjYNTE1b0Lt9m19EkRzz+JHKsbA1lWsXP3kO9Q9qUamv7G/PD7bRAYPl62OwtTaRWWSQEanedON3Zr7+XteLOtdgoSOlXnXwSxvFlwkH4ECQz/D3AEjRgNRZvUpfvrPRckLkunFhnRDTpJ4cXjOXfTvbvDFA3nK3ecv8NlQnF3jYDkaHX18yHPfhCClt3ScZNS3IJ2WniQ9PJqwTcfFdw1XFAREBgOgTs2HjucyiANEAACQAAIAIEHlIDtRQcPaIPAbCAABIAAEAACI0AA9HIEoEKRQAAIAAEgMOoIgF6Oui6FBgEBIAAEgMAIEAC9HAGoUCQQAAJAAAiMOgKgl6OuS6FBQAAIAAEgMAIEQC9HACoUCQSAABAAAqOOAOjlqOtSaBAQAAJAAAiMAAHQyxGACkUCASAABIDAqCMAejnquhQaBASAABAAAiNAAPRyBKBCkUAACAABIDDqCIBejrouhQYBASAABIDACBAAvRwBqFAkEAACQAAIjDoCoJejrkuhQUAACAABIDACBEAvRwAqFAkEgAAQAAKjjgDo5ajrUmgQEAACQAAIjAAB0MsRgApFAgEgAASAwKgjAHo56roUGgQEgAAQAAIjQAD0cgSgQpFAAAgAASAw6giAXo66LoUGAQEgAASAwAgQAL0cAahQJBAAAkAACIw6AqCXo65LoUFAAAgAASAwAgRAL0cAKhQJBIAAEAACo47ACOql55QF88Jot0AseNbCucG3kK8vi3/KczP9byM/ysr0nzbn6YW/eXKyD8HhsxkYhrulPD0nCn2AAASAABAAAg8lAbrNVtNE85ZN81D2GDEaDeupPnPqbIPGZuLhXOgvEGfScF3H5aJT+fUK03By3l6aAQ3ByPaS3DOlUqODErlhST7tR34oVmA00eyFUY37D1xykAMuAwEgAASAwOgmYFsvUbvJuuPfnWoyYXTPiZmPJUl25tQ5EhoHsPoKxBj8qJlz5j+i232i1eAgz5243FcvW5Sa+ehE6Z58iX2dJpgE2XOVqtkoPvadGP0/gn74nWgglAEEgAAQAAIjTMCuXvbVbehskhgncpkYL/w3c/Gc7y70YLjPzGdDG7/NEbOjn/5NkFqFcZ2dMXnZkWOVsuFoql5e/t8Lwc9Gh7Fay0mXsJRpsW5MGl0nPnMiv1lHDYcmPfZ0ojMxpqf61In8Vh0vfki9RpogfNqjMe4EHTNgLPWF7w5UO65YXXupKTnajYE5TVsQg/ewvfnK0qOHxM5JjySJeAT9mrz85MlCqWvSzEhPN8PTC0V1BUebxi8Iu/LDkYbr/UD4RD+aFMSm0w3dZcdPiO+GizzCNwEUDwSAABAAAg4JDEMvcZpAFCpU1hVqbZRGk5f/51Sd3jks4zdJQZeOXHGsW1RBZHurMk7ggvFE02LJ8z/u6zJwI56cG1239wK6KKvK+bFUQ/dOypw1qfHbM1YGgnmRj0aTJ/ftl+idE554epjTlXQ3H09tZ6keY+MsNpn3455W0kTzfyRd2Hh8d0UP4Tft6ZlxTd/l55+oEE3p+fHfl0gMCx4/uNU0n2nJXpcP/btagzI+niKqO1QzvPbagAfRQAAIAAEg8EAQsKeXNFZw+lPuGNeNR4oPfF+pwDCetTYZVHKZHl3QSNt1URwCfbCWamicETMZDddoQn8frkv8XFeUgMnlaLg0zIjp1EqqEENbZbU2PZiPVQzJTQT40xrzJOZ6W6U9PkMSDIywNIQ0GoxkV+GxPKkJC8Z0smYklmig1X28X091bg9KTzZXVBtTgl0wqZ3SBD7+rm6ej6QjGaW5sNgqFwyT20kOl4AAEAACQGB0ELCnl0Zt3fHvTzVhXilPpwS70uq0d9SRYnh6srurZUaakZSWnjg0YDR1wNpYowHNnlqba0R204c9p9jbEGvlINXDcPQPzVSiDjUa0GzqNbs9qzMalOITRy8g0YUABIAAEAACDw+BYWiOqT2/SC5KCkXOpVqjdfZwQy4kRvAFTva01gFBar1PPLuyGC0gamro8oyMFFi+eNJrDpPHQ34bRncVjWc21ims1KtubTUER/qzUCqmp5vLrXxtxWKiqbOxgx8Vyaeq8xCNx5vqlNZtN6B1wqjFPY1NuCgmkGk9EcQCASAABIDAKCUwLM0ja4rKY9MTAy8dv1xUGjLz6aej1SojoR/muOsAcgQ1wEteMxgNOmnNyUMXqZFMsvrUcX7K3CeDjCY61pr345lWFMmNnvO7CKNB312ec4ry5IbW21V2vHxm+hMLMVKDcTD1rXePTpx7xmdW+u9CkVGdpSfOyKwWZZI3tRAzM6apD585e6Q49ZGM5+INGF1bfvR4KRqnhgAEgAAQAAKjncCYsKiJI9RGtF9BUvfBgQOtI1QR2t+AWsJa11c82q9gfN3uE00jVB0UCwSAABAAAg8hgWH5l7fGRVp09BfDHZ3yHGwHnWAaSB3G8Al27bzcNuBaa96BzhGs99ZoQC4gAASAABB4oAmMoF6ikVL0fYwRC8ygpDlJQrRER9d64ZR44HddjDq1ra++jJg1UDAQAAJAAAiMbgIjOB47usFB64AAEAACQOChIjCM9bEPFQ9oLBAAAkAACAABawRAL61RgTggAASAABAAAoMJ3Gm9dMp47dH3Mtg2MI8JWZS6/Q/ed/xYrAjf3/8UGi+wUStEAwEgAASAABC4XQJ3Wi/JgmMV+/Nu/puZt9eORtl//9Uqtv7NSSsl0/RPrKo+vKp7XP82BzR9+rJLh1+Rhd+MlBMBso82lBdsv7zE20olEAUEgAAQAAKjicCd1str0rKW4k77W8rdeX4qbeWRHhv78gypzZTyuyv/5+L5x3+6Xt8Z3sg4/uXYHbTWLUt73IdksBWR/tumyV2+C5aN3zHw2yy2UkM8EAACQAAIPMgEbH6fxNl77aYI1T/+m1Vl2SiVvWB9cty5//7l2FXMWbBgSdTscGc2pmspE3++o7Ge2vYc4yfHvr3Aw5PHrNubTSXrC+xxY1ctFUW5Y92NkoIOu1LKmPpZuH+D1jWJRy9pLsLck2KZ3Qerdu7RmgS8R9YGJkQQzky0C3tPQZY4u8BycCZr6keh00QEh6n4KbO6RGWplJX2Vbh7QRczlsfj0FmYJn+z+FSJJT0xrv31FNr21wRDjlFh7PvS99FPmlaeiXivfDhdaiKcTIomVjN81XM4tCANEAACQOABJ2DTv9RITxTi8cnuvQOUAX7T3WWn85AKOs1+aWKq/vJf1hxdtKbgBCPkzZe8LdOV8tySV9ac+qZqsH4wBJnLx7ML85cv/+WVb3qCojkOdl5leaib//XH5qvT/QNLqrdu7nZL8/BAjGVXm0437Hj+/HuPFX9X4TR9uZdXL3jt2ddKPnqtuePGfiDCErFTr5Vte75o5wn6jOVeVCFUSJrV5Vnm+eOQ9NQ1Oe/HC8Z5aT3UBrkQgAAQAAJAAAgMIGBTLzFTeV6rLto3zhmlHhMyRcivajpNHenlNT1cm3NIIkU+pV517FCzOto/iUpjIwR4x/G6jh1VoB1e9Y2Nx8p06Dhoe8HUcZk0yUiFjpRcNhhkOi2ThnxKtM3slSMKGeU+GhpOdKs4TjwHumuSZLc2mN3Njgq1xtvJzZKejBPpr9RwqOO7rAQ8r8aZGawKH8b27e7jZI8G4x3Sm5nwtFIjRAEBIAAEgMCDQcDmeCySt6rmAsXkmdGMgkKX6QmM4r0d1K7mPCc2dlXe2dc6hVaNeXigo0tsLPFh8JlsDanuvXpNrtFbP0Szn9Y1g44aADZhJkpZmZiJSR22hQnYiS/4RY8n6JjJxHTiMLttC31vUeruPkeXKrC3nTQj1wlTKm3qoU5J07ENXPt9R7v6+qbKJQFjmk8FrcixWZT9MuAqEAACQAAIPFgE7MqO8sQ5bchkL77INw5ryykzTwAqrnZjTvz+RTHuLDZGdtg+okMv16mdCXafF8Z2tiPQtsnhYcvD04SKg6+VfbGy/P9lddkQZ9sF9F+hKa9iXK7NKUcm18hU0x2sHDI6bVobm77Ovzay8fVUm0UNwxhIAgSAABAAAg8MAbt6ibXkNbWIfDKT3fWFjeXmRT2You1MlVPqPF9fJIHOLrPn+bHLmvLt6FdjW7HCbfY8HprjZAj9Z4czHYyjWifnxKGZVDo1Gl/lsOIfd+VYT+U41khU1tHHhaio0zWtBNPkEI2u0XnIUqChSfHmGsEvdSZfTwuVoQkgBggAASAABEYVAQfuXmfr6YbQpQna/Rv6XUjyxL8uOC+JentbDFtPrY/dvEtiPn3SNXNdzHTeGCaPzg6csjXtmr6s8k+7pHq9bG+WeNXSpKzZY9SS9hNl8hA7k5220JrKdzeEvzlu7X/G6WQ9JXvaakTUQdEo4NODf7+cx2AyuEx89uexqZihbHN5domtclD8qV/dpW9Jn/Tg7Ri65IeveHLimF/+7mJjdtNOqXAJCAABIAAERjmBh3C/dVPKsuoNAu8XPr7hKyX6J165tEIf+MxWl/7ZWfudn/HH0j8xA575u2szOJn2ScFVIAAEgMCDT4Dm7unz4LfiplowpqGUq4xveTOOkV/k1N37fVBj+rIrK5y9X9nGb7R833QYRTZIiMBEydpFciLf7ULvNz+HkQ2SAAEgAASAwANI4CH0Lx/AXgKTgQAQAAJA4F4TsL/e515bB/UDASAABIAAELg/CIBe3h/9AFYAASAABIDA/U3Apl66uQ9/4/H7u4lgHRAAAkAACACB2yZgUy9vu2QoAAgAASAABIDA6CEAejl6+hJaAgSAABAAAiNHAPRy5NhCyUAACAABIDB6CNyXeoknBq89nvT8bxxsPuS4Fxj+vmv/MWnxxFvag89x8dZShEe9t8TN2oXBccyY6IPb0rfOsDQRT3sxLXtL0nN8Rxl9xu7YMjvr0d7djRyltn2d98jEd/c8kh5yfbd4mo/f776e//ITnBsOXKFHLErY+H5A4F1EaNtsuAIEgAAQuHcE7ku9DJzuirXp/ZIFt7B13gCUrh7/+3agZlfpzgsOzhC7c/jHBIULPIdZnE6p9w50pXQI50T6GGUqxxslREz04nSpvWO9AoZZh9VkjKjIP671LPsg93jN9d3ija3N/99bZbRnZj3/yCBpNFTuKv223Xf1Wm90CA0EIAAEgMDDS+C2Xbjr6CICXl475r8/4onPunlxsKsl9V++26nCWGlfRXv/eH73EUoN8NjANe8w/5N5uVrgvfRzfsu/rwVOZzkx6TRZx5EPG6rbzIUxedFJpsqsNuEqQYRAekFGxYW8OXEWJmkRuPkK6GympmirOLvAgDHZ6Z+H8gu6nGJ5rhxUSNexDxsqLYWgumIWhUTUiv90brBYuntmLgqdGc7lM4zqzs69n144JkHlOyVmTnh6ssDT+Vq3uHXvrsrTEmSu2/JNkVhet2e0q6szk63v2p9Vesyy+4+zYMFLUbNFzmzGNbVCfmJH4d4qAxYQtPb5wJAADh+Lz4pGQnStaNfJrEI7ItillvnwRXhHJYcfgKnbSKqhcQunrxdcWZIlMTcb806O35Hcs3bj5UpUDs5OiSKKj1xiLgiY5VW/vZ1KEDF/+jq39nxCEOdGcHBt7r/LthSjgojn1kyJa2jRBbsLOQymtuv7XVUHW3tN4aStjmb88vOB8iFHq7TWfv1t8AcvR587e6FqADVD6fYa8T8jnp3S8fm5gXlEv33l2cDCrL+fNFsCAQgAASAwugncQb1ED3Rvz0di6/asrEMHOzsJ8Kv20XFco7yrs17sVmGMxI9iH3tWVvNJD3qk0xPdQ3Td353u6n7cP2om48KPvZuzeiVyzq4sO9iGceaOX7k2WPLi5UrqmU6ERZBf/LGsQ0cf90rUU2u1ja9JzVvTsT1mTMXOfygdfHQKN3NN/PTWys2vt9ZpcM8AQk2JJeabkbAiunvr+gvFCnpIRvwbayLk68qp81gYLsnhLX/ecLFeT49aNP2NTL/8jxrlKP2cyAxG4xtr6qV63HMcz1liPumssX7zhoa4l2at0Bct39Flv+3mq1rlZcJlvDMmDnYRtiorAqhjN4tPNbe96jfXTbKbKoFIm+jaeKGKEksU/HySOB3bS9s5MRHzJ7K2/0drjsW8I/hdm/KXtGOcsPCsFyMfrys6iGzEibgQ7NVPzxWTeMRvkj5cFFDxcb0YlUOLGp8S0pWzXjFELamyFIcqi19IfuSR4qpfBl5Xy34+qX873cv5XOsAnj3tTfX6Djtn01jsg59AAAgAgVFB4A6Px2qLdncisUThqsyOZ2VGp9OWH0RiiYK+rpJ0FqKzoFHAxya7Ggo6W3T6yly1b9L1o7t0JR3lZt9Rld1Zy+SFxlKf0cHSLbmdHZRwGupOdKsjBKLes77G8QIx5eXq3u1hLWmxcL/p7l0/7WisURj06HCVKz1IWDDMZfoUl7rsy8UKlFhfc6y2mOGTGm0BYyw/1VBPCbbhUpVC58G2jLWqkWr4CDOQP8owSa9019+iZBjVFe3OkQG4KJArqZP3OnTtkp/ruLOmoePPMMxLmOKj/LWgVxcj4r04NdJi0pRb3OU9QSjq6zpdg+SI2cNT1bTkq9ySwiwXTI0XWylXEzNVnpO0Cb2SXKk0mHOoh1drx6VW8y9Dg04qrmcGhfJuOAb7WmuZUj+ON37QUG372R92Hq6Ew1yGUoQYIAAERiOBO+pfIrlR9Q2H2oA1UJ8N1HmW1wNOXWPyJiQy+MyIN2eiz7gThkV5S/PMZRp0xj4F1mlUNIFLb1GkujfaJNPrMBdnARIO5BmyGWydQTN4LJbBI9gK7Q0uJxqM5Tsb5Z1mHxEF/VWphh7SKxhG9SA/bIwliTyv+C/64AVzYjZmYnW51dv3S1pu6YQS4+U6cn4wN9IPEx/Rc2ZYCiezz7QtWuAXd+QSmST0FtdnmzUdw7mzYtgCfvTuj9BnnMNgzfKpFTebL5HGXo4mvUqLufSt2FGRfU1SkT0Yww1JMPJZnd0ITKW1vTu8safH6MwhLLZc/6lXGdRs4vbmk28sE34HAkAACDxIBO6wXlpvOt635hIX0JEE9oehHigajBXppHv/2Gj2f5gJb0ZETWfkmYdkmRwGMtYsgASHY9RQY7dUYLsiX4j6jAsINqbXWCb+9GqDmsl0Rv7QAMnUK/RqZ6SOGDbII9TKNbQQd2SjOSnDydPZILc+XGmpEf00tRRe2Vp4hSH0Xvpy7Fq96pX9t+RmtdUpmXMD4vjKI62mpL7CVRebcufHz41qV8UQ+f9ut7SHGShMYrVv2VhVTIkgPemZyf8Tz/6i2XzyKIfwRqPB6ANOCNhYj4oaSEa/CTgEEyOpNrmy3DB9sTktpukh0ZnbyAm3lGuOGxhoLi40TZd5LnVgYHDobLXxFh3pGwuD34EAEAACDyCBgf7eiJiv72oz+SQJ+Ei5BOzpj1P/2w54SBrPlN9Z3aiXU//UxblaYbKb5VsW9FjvqbFIMXHhc95ogrOq91BoXJjmE4L0gknEL3RzquwW97pOVxStmMv4sF6PsLdKcVOBwj1zkV8QD8cYDM8AV1/KY1KdPqUITgtJdEcwGCGzRXH61pyyoVp+3WzPcK8Qd+pNQ9/Z0yI3YYzrtXQrdGwfvu8NX8qw1WJds7zBzytOqagYWJ1J+fM5bVx6aBK9Pbt36hKLRCtjr0iy28nGLvRPnV3c7R3jE2HuPaaf8KkJSBpx0bSgJOeu/GpLWbh3XFCaB2onkTbLz1vSnt9ttkJzsaPdxyPUx4ZJTE9RkLHp4o2vC2N8ormMJkX9IH+d7uLq5nJXXrhsGAvRQAAIAIG7SGDEH3eGsh1149YGrfppnEnWU3KwveG5IWN9/c3l8CJjMfHmPs8R+UAFso7n3CMC2tAJzsoSpcuS6HUiBiZT5G1uqEa6SGmvobbkWtJHkzIFmEYs/elDy2IfFK/u+PXsuP99zOPHsgHjr3rFd5+WYItC39wUQ62PlXTs3VbYosFajhVtZU94fv2jqxmm7kbJrk8rqcU+NsMY/rigVX+Ic0WiqDe0VF3ZfkjZl/Za/dHqEy9P+Ns2kU6jPb0jd3vZ4AnUG8vUyys6sMC6bplxkMKK8xobZkcLc6uKLXbg/LQoRsV/uvqHUWUXpRULglL8Lp9Ccn9Fpkqe9MMLLKZWfmRPGbXYhwqmympV8rKU1R4MlaT1i12N1GIfFIzll0/XhKVk8E7860ZRRFd58yLiyNrP/3vDYiC266wZzNLt7QpL0ZafTgnPrp7V8+3f9tT0jfsOvAqfgQAQAAKjjIDN8y/RfutdnUim7o+Avk/yOHl58yeKQW4f9X2SKPcfz39r/rLKkODquXqTSL/9/Ofn7KnfkGz3QwTf7+N1vpUf51u+NGLHIvR9ks1elx/Pah88U0s8tzZlcvGpVSeGDKyishhR0X/+0K/ozWMHb/hKic/Yl7Pi9FsPZf0y2I+MWTXpf13r//pXScdAS8Y+/uZC+k+b91WDXNrpILgEBIDAqCEw4uOx95BUt/TzDxudF8U8M3GYw6P30NaBVeP05Iyg8TWNB0boe4368rJPNnfFv5WcNmB/Hwzt7/NBNO3rX7ffIJYRCKBX62cbB4slGl339zGUFoBY3ic3DZgBBIDAiBMY8fHYEW+BvQr0tc2b/2BZRGov2X10LTkz5dXJhE7SuOVfvVsWjIhxiv/mv/PfwSWj/X1esIIK7e9T+IY1G2QnP0dLdSEAASAABB4WAg/IeOzD0h3QTiAABIAAELhPCYzm8dj7FDmYBQSAABAAAg8gAZt6eR8t9nkAsYLJQAAIAAEgMMoI2NTLUdZOaA4QAAJAAAgAgdshAHp5O/QgLxAAAkAACDwsBEAvH5aehnYCASAABIDA7RCwp5eTf1dZ8GXljt8p/G6nBsgLBIAAEAACQODBJ2BPL/P+v4jk99ydZrUsCXnwGwotAAJAAAgAASBwGwTs6SUqlpSwmvVGYuChIrdRGWQFAkAACAABIPCAEnCglw9oq8BsIAAEgAAQAAJ3loAjvTQxOroNsVMU4ei0YQhAAAgAASAABB5WAo700uj02T99O+Ku7P+6aMejN5zy9LAyg3YDASAABIDAw0fA0X7rtKsrVrR4FI9bsIdX1fPw4YEWAwEgAASAABAwE3DkX+J6Pzd6yTkQS7hfgAAQAAJA4KEm4EgvH2o40HggAASAABAAAr0EHOglIdT6MWjkVeAFBIAAEAACQOChJmBv/nLy76o/SsIqj/jvqHmoGUHjgQAQAAJAAAjYPC8a0AABIAAEgAAQAAL9BByMxwIpIAAEgAAQAAJAABEAvYTbAAgAASAABICAYwKgl44ZQQogAASAABAAAqCXcA8AASAABIAAEHBMAPTSMSNIAQSAABAAAkAA9BLuASAABIAAEAACjgmAXjpmBCmAABAAAkAACIBewj0ABIAAEAACQMAxAdBLx4wgBRAAAkAACAAB0Eu4B4AAEAACQAAIOCYAeumYEaQAAkAACAABIAB6CfcAEAACQAAIAAHHBEAvHTOCFEAACAABIAAEQC/hHgACQAAIAAEg4JgA6KVjRpACCAABIAAEgADoJdwDQAAIAAEgAAQcEwC9dMwIUgABIAAEgAAQAL2EewAIAAEgAASAgGMCoJeOGUEKIAAEgAAQAAKgl3APAAEgAASAABBwTAD00jEjSAEEgAAQAAJAAPQS7gEgAASAABAAAo4JgF46ZgQpgAAQAAJAAAjcil6OG//eplnbsx7b/pIXAwjeCwKMhNjtm6Ki7kXVt1Inc0LojncfOfjp7N0L+cxbKeDW8yQ9k/LDYg9blXKmxR95Y6zoVv4Ibt0kyAkEgMADSuBWHhVXLv/l9exPcjV3r8lxC1Oyt0xZ6mOuEee/+u7s7L+Mj3Bku/eMSUe2pawOvnt22q4paMG0tZMdGWw7+x27wgnwe3VNCpKu7E/TDr6TtH4G+3rR/ICPXw7wHnZVSZlJr4YNK7Xu4qUl75zaUm4YVuqbSITPXZ62dSYxKIdHUNbG6LS+F7nLeZe253brbqLMYSfF2Stej557U2+MbM2KV6pzt1/ckmIadjWQEAgAgfuFAP1+McSRHTIVQxRMx1oNmCs/kEHKSEcZMCI5hitr1ydN5DLrlCPyxHRoQn8CIiqcg7UOP/0IpcS5i34XOr66bO1XXW0YEeDHF6q0/VVxQgTjcdlwa8bZceMIrHS4yUcmnamtgxR4sJgY2d+/TFeCo9RKjL0Vyuraj4xM3RjXLdIDb7iZwt2nSVYEs1ev8j+lvplskBYIAIH7g4B9vWSHj126ICgugMXG9NLG2q0bxDU2zcZDZsc8n+buy6Mx9eSlvKqsXW1Sc2JGQOCKpePihEwmZupubP1mW3mBAkWP8Z0ctWKB0JeHM/W6lrLLW/7V1GKzcMwkayMDA7jMMzJmMFfQppZxqLRxC6evF1xZkiWxPOa9k+N3JPes3Xi5Er2+u3ml+HQf+FE7/zFhJK4spl7oiefWTIlraNEFuws5DKa26/tdVQdbTRhD+MFGP9mvZGAMW8Bh6Brqt+xsLLarxwyXmYsmJN/QVQAAIABJREFU/DaB64oZpVVXtu+oLUfOtnvgX9aPlf7rdFaZHsNcFqybMr3hwp92yTyTo5fOcQ8WMpjCR7IyMUyv2L+h8BhFgBEyO/LFOZ6+zmPUkrb92y8ea6TMXr4pEsvr9ox2dXVmsvVd+7NKzfEYxvPIfClqtoiJKeQ5hUY91uut2cBrFSWN8GbrK0o7xEp0WVtZqa20JON6rF4sSvLjcAi3re8Hobi2M4WrjqCHOj3psailiW4BHBzTayvOVn7wbxlCHTEzeuVkgciHwBanJCHb9F1ffFCRjVqN3lEeC186zc2bwGTNrbt2VR3psGpHXySL+1xm5PxIDgcjGy/Wfra3udKMXRA29tUFAZFuDKZJL2tq2ZJ1OZ+KxyNmRP0x3SOAhYwhG4svvbO3vQHp5QSkl3KMy47kkBXodYrL4ig720wYc9z4zYt8A/gEVly0cGfHdUH18Fq9ODTNh6Hq6sq+TOu3z1ypXyAD47ixUHN1zbVvbbqMbpuAuNDVv/GL5GI6efeRAxVfXCQxnPX4s1Hzx3ORJQHvpCzFMF1D7dovm9vsthVd5DkZMDmvFsTSESi4DgTuTwL29NI96JU/jMWOFr/xqawbYwW7Y3X22mCSNkr2b6sob9QxA8a/sS7qt4XtWVXXMIw5MzPcr+zM8vU9egYRJCLklFQgsfB6epF7879y/oLUxZkdJTTaEUsqva5dpfLjemMyt2C2pFnmYh4JLD7V3Paq31w3ye4u9BuRNtG18UIVJZYYeswJAxpbsks1gfOi0kSXii1CjxNxIdirn54rJvGI3yR9uCig4uN6MWWNIM7t/KqNMhnOWvjy1Fd/o1zyg9ymS0qPWzRxkXvDX18/W69nz/7DlFVLNK/8o03d2bB1l/vfFkUmbiiTp8VmMGr/uleGNKQlt+y9XO7zG6Z6Hvrv5rzr43D8ydFr55j2bvr1hAQPypj09ssRLevKy1EGhktyeMufN1ys19OjFk1/I9Mv/6NGOcaYvih2pr7mLy83tDBcM19P4mPNVDNt4TVfGxL03dnl2KsLIiUHao9Ua1X915UdW7Z1BMxKypogWfVp44DnvkFSJ9l+oby43cAJC928PPSponNfNGOVJ8pW5Qreejdat/PUx9XXawmYGf1qvGrL5uzsbnrS/ElvvTi2YVOtpTuGmIIi6HMXxc/HLr35Z4kY5y5dMWndfNWSvXIdzp4/P9gl7+zCE1odQUQE0tss7y5cn5W/YRd/lrO80cTksuP4BmQns0Ol4nMCcNwNVRfS8cG7FQ18QifXoKbprlxe9e5lNH/51qAhU+LxZ6LiusqXb2lvY3usXhXP1FO3DhrkX/RMAPaf088VGAQTo7Pm6T8wiyW6ld99lp//1cm3qg2CuMjNi6O7Np7/oUt7cNf5IwHjd/yRvevdkiPUiwIEIAAERj8BO1NqvpP9QyW1WYe7pJpreo2mplFj/8Egr2orbtShNOrG1mIJ3dV9jBmfQdqp84gOnh3NZuvJ+iql3AJVr5EqmKHJAYkBDEyjLr9y1RHrbvllgh/JIiKEJrHF4UI52iU/13FnTTNPwnkJU3yUvxZYBhhZyTGcy6VtMr0stxqLi+tfZmJqvNhq9h1NleckbUKvJFdzvUZt8QXKc8JM2iMF3YIwDztrQBhu0xNo+cfq6pFPqVefONHBCBdGmp/J8ryyr8SuL66ZvCqZ3LtNXG+PFyMp2UOdKz4hQQpqqD/RVMPzTBRZiBnLTzWY8xouVSl0HmxP9BEJejhWdKKxBcVrug+fopTYHGzg7b1643+G3D35HxSYkjKn/vB+0vq5Hgi+/dBY2Z7fbkCvDrKa9golIbDgsp6HNWsiv/FMbTYSIJMhP1fS5uU12c50KMc7LcyQfUwiRt2hVX5/rlsQ4RWJ7kcTKenGvGMC5oYQHJKsrFH3jhGTmgatc1yKX7IXrlOq8xupXtR1aNu4LCGDG+enLG7lxgXjbq4MWZfW5rsOxyMpkMw90d6oR/5ix4ELfQP1zpwArrbiCuWzy8TyNi4nwJlqZGSSUCCu31VNEWgrbcpX8ZMi7L1iWgdjjnVxU2XEXe2REvZdbjslwCUgAATuLQHbf/xjXPkM9KbePVz76EHJ459IEXgyMJ0e9xTidRj17EP/inec/WS26LeZ055e0pN7qGLXCaV5QEr5zaY86ZzxT6wRvahoP7S38nCVzYec2QSTsqJjXKSIz+Eos6XGOMwykkZmn2lbtMAv7sglMknoLa7Ptsixh1dKID3AZ8bB+RiTTmeqhXH75flmiVGRfatOVGQPxnBDUksNTppUfcuXdFqDjsV0Q8Vf9wXNBvQFZ4LvTIS+lJ7UGzGGiXVxkO5QxesLDjU9sSGMn3vuROegTEN+Ifh8mu/sKdtnWq6gQoz55kc0Em+1om/6jfrVLKIMBuqNGjny16mgU+j6YNnCa0k49KeJzD9RlX/ikneIz9IF0Zu9ypZ/3WF70pIeN2P8wni+GwOxYAi4tOKhBfbH4ISAi0c8Nv3go71RTBNZMXgtzqDcXKYbgx25Km2upbE0apSVQ2E3HNl+Vjdr7Pznpi81dWcfqfqiwKx/pGzLx8UL5wateHX86tbWXfsuHUSvTUp1F+YhCPGIU3VuqfZaEcG9zKd31dkeTGfRXXCyi+pxKrSp+lJqlI1yUWQYwTxDCsIE3nJlI3U/4AI+wQmL2r2xdykyk2ESs1BX3/TCpZTlF7NmkT31wnWfudg2bhAe+AUIAIH7jYBtvbzWrdEzA52QQ2GZhnRg+bjxaxcJTm8q2HwF6YZL5oZpA5alXi0/Vl5+rNIzevyqlyYukuSYx2kxTKE4tvfCsb1MNPG59g8T5K8Xnra75NZU0aD/nwQvTldHhYnVb43qYlPu/Pi5Ue2qGCL/3+2WR39AnFdA3aW1OyXUkCPOX7omNHncpXzzyKGAQ/QuD3FluWH64t7JJLqA11skh0swtfKugYo1uOkaUqPRnPjHf7dbWjHoIjtjUTCjsEkaHfn0uLPfmN0VG0EnlxvrC8/8af/wZrP0ermeweePwRopdExnBvP6Q9sGXhsVW6JNbTXNHx8R/LDAfTzekW/jzQB9D+StDOL7T/N/QLO8aFnyX2NtfTGDKtREylSm4mMnX8210+wBRil1XXpl7qfntg9dB6XXZh+pQEqJ5g7fXRS7tJUaBEZBJ5ft/la2+0cieW7sqy+Ftr1dlW/UtMmJyASB7nJZxUVct1gYiRnaumy0BxWhNfSYCDcuGgugChRQ4mcOJuX2H9qzXpy+Y4ZGpVJ+v4MajEWxMiWpKq9a+NX16c/e9Df536msCYn7VUt/f+Xt57mntoJk3iQ+SA4E7g8CdsZjW8611AWMXTob+ZljGM5EULgL347NbPQE18sV6FGJe04OTnLvL5gIiRagJS3o4dPdqpLraUzLI8qZGxfN4VOf9VLJVTWGHCwHwdRWLxfEeOka5aqBz0OT8udz2rj00CR6e3bvXBlrVixXXCqp7CIb0b+OjuxqPGmiZUgW944LSvPAMQaRNsvPW9Keb/GfaURScoAIOUMc/qJpfFl1h9j2I1ffdawQS8oQxbmjlw2c7c6LG2dxDPGgBbEL2I1f/Kt066Gr05eHx/X6i6hdum4N7iviDRj91OXntvOTwzPGEQxsDIPHDonm2cOrlxVXjYmfGeCLinDmzU4R9BVlA691lhxuWqIgwo3OYeACD/7CaQKsVX65r6VIGzA3l0jzQipqbADJMovB0RuQCqLfRdOCkrjXV8dgRoNMyxgfzKa6rbevtb8WyMc/Ejo3gM7EcQ6fnRTGFli3wxyrasuuJObOC4jj40wG7u3FTw42e6M4KymGG0B9NMna1V0mGtNSPp+bHEKtxMH0+gapVofjTMoZ1TZ00+NC8OIKra6ro5jmleRGSswzktaDqiO/gUie6YUGoplcwXy0drovXdxEL93J88s/yl+1reKHvgH/inPNsvGiFXEsNIDA5BAREXzqJjEHnZqU4ZzxAWbj7PwZ9ZXf08E5XOzk4kl69MXA/0AACDxYBGz7lxgmqd38D9qLCxK2ZRIMvV4qvrK1qodaePLS1EzRGKazM5sx4ZNN4fqOxi0f1daXXdlbmLBow+xMDYkWux4rdI/rBUEPTp6w4A9sNmbSabQ1uaVflZmdS4Zz4oKoVeZFszpF9+ldF0/YdS6pLLoGeYPBS1Z34+yUOK+xYXa0MLeq2DKp5yNM8lKeKu0f9zIVl8qYmcIkBlrZY6qsViUvS1ntwVBJWr/Y1UjpInrsGpX5zS6v/SUtgI21VV76+N+2F/sgOwzluwq+yYx8fv34N5wxtUJVc7S0+ArGCA9dPfPa4U01NciKE6V7o5NXLOn80z8kZkfmas7+y3FLEndkXVMr2r9ZX4o8aXnexQ+dI15cPuNpdzSDq2kpE28pU/RO7vaiG/if/vSukuCXot7bFo788vy8tpbJlqs28FopAUXhRGRy+OpMFofAdFptY0X9Bz/2Li1GF1XFtbviole/l75aS1YcO//WSa2q1BzzTvpqUnv5wpUD1dzA/nJNygOHm+OemHpwpl7VLfl44yXkpDaeKF5Pj1jx0oxXubhOpRWXXt5Qjdxn1sLlCfO9cSaXLjBF74gw6ZqvvPmVpA0zHNlVxFwY+uq6ULSeVtWtzP+lLJdaUsaInBH91mK06hUZqSo+Xr6r0VwrwU17UvSWBwMzmVRd3dnfXsqlutvUJjNx/OXFyAE1qfPEhucSNW3UFDbx+AuTngpEIsfiYJE73jHoOho3fIG6mzz4bXng4vCsTdE6eVd2aYes9yukyGDS+9EplsFknVJ+ZG/JllJS11j75m5s9WNJPywhMJJsa2j5ok5OLRBDoat1V47X6hVpR4x6WWXVqp29YxuWi/ATCACB0UdgTFjUxAe+VXy/j9f5Vn6cv73dflOI59amTC4+terE4Ckk9H2STeMaN5+2DPrZLwKujkoCAbMmbY7oeGd7fSUawcdx0exJWye0L99Ub1HqO9Vk90ev/DqP+dpb/sd77lSRUA4QAAJ3j8AwBpLunjG3VBNOT84IGl/TeMCBWDoq/MEn4aiFcN0mAaEbC1Nr2yzfsKExAt0Yum6t7WVQNsuxf6HzlPAzseb1z0qzYH8f+6TgKhC4LwnYG4+9Lw0eZFRyZsqrkwmdpHHLv66PK97/ZoOF9xuB/GNVuYtCs94PxdA6L5qpTdz8wd72699PvVPmXnXe8VnojjtVGpQDBIDA3SUwKsZj7y4yqA0IAAEgAAQeQgIwCvkQdjo0GQgAASAABG6agE29dHN3v+nCIAMQAAJAAAgAgVFKwKZejtL2QrOAABAAAkAACNwKAdDLW6EGeYAAEAACQOBhIwB6+bD1uL32Mvmif8UGhlu2fbeXEK4BASAABB46Ag+SXjKEa9eNDxpGF7GWvj47+/3wJEvjvMZmbZn9wyKBgw33GPxX35995PdCe1u4DaNutD2Nv+/af0xaPPHG+tyECzfP3/rLE0sfGVYx9yJRhJubQKe50rur+81bkLD+qS8OzVvzktDlhrwML++V/0h8ccqNTG6+CsgBBIAAELhHBB4gvWSEuwc5D9deUoVzRW4UVA46X7r/GArblJnjhHFGtSxYmIw2476N4Orxv28HanaV7rxww3ErwicmznGr/WjBvu3/vY3iRzSrUzjPSdzdbeucGCYNd6B3heu//7/1Eo9n4x4JGmyovr3t840SjxWxT4YNtwdHtKVQOBAAAkDgpgncyf0KGOzpmZELEgS+PFyvUOfvzduaR208xwgIWPG8KC6AiXZJ/f/ZOxP4Jov8/0+TPE/OpknaNE2P9L6hF0crUO5TQRSX5afL6oqrsLvKquCiuLi4/tab5bd4LOpfXBVlWVaUQzmkHJajhULa0vtueqRp2qRNcz45+M+T9EyTkkIrtJ15+ZJ2nnlmvvOep89nvjPzzBRnFe0+qoJ7ivKW3PP3ePUJs296IIaxvFpzit/b32rfPZUxfU3S/2Tw/Vle5H6zx6VvntDAo6TW/CE+PdTH38f60s4gmKgjJ3/L/iH2X7HCbdbpiaEUoLQlhnNamg3kOYzc4He3hVW9d363zI6Jwtv4lykB35/bepncJD41VQiKSn8QJ2Um0w7ZT9jAExK/uh8ca2SlS+gcFpBfLnn9MHlGprt4e57Ja2MSaqq2XBqsOQxvqrW9035iSndwVVNAmfWHxavaLj6/337mFEuybWdI8fYLB9uE69+OA9kd/kl8PosGmhv2fFxZ5Nhx1y9g3eNxs6IYuNlYdLpk98FujMtfnhH+U1HrlPj5oXD7346DOy8flfeV7eonmk8yS19KbpkPOJygLXGB2obiDxTw7GXatOCY3wTzBVQa+0bXkZLCTzosgB36carPkZzCI47DSDDhtilhqpKrH2jKO1UgmOHYtX1AKQ0NX3wremWD5OKzdc39LgjSf/vs3K4DO/Zf9+xYE1eWozhEABFABEafwMjpJS117fQNUW27d57OldvYfmy23r5LK0u04bkY9vHcZ/7WRcA3+3NTn9eff82+tzo7Sez/wYXnrxLAT7Jte+KqQiV5QlZ81K8zzPu3nzzfeYPtxw/C7PpiVu3/vwsHM6d+trTrjZfL6zzBUt+oTQzn4nmmxEBzZa0tAJ4Vomk+Vhy1YaZgj0wF5QyPE2diLbsK7G9pjLcg0Zb7qTIrXPPL5ICA7MYWexl4oDDq7KX1e02AJ9q+OWlj/U/bC8jjPNzFs4VzZoArb7TedOt4MnOXNbUX6yZw08U1z2+/3gHos/6Q+cxazfMfK3SAu+a5pNjCvOffUel8RBteTnmm46fXTjsO32akrwj69/sX1sssgIVhN7UJ5/JDzZ3/NlAiRTHPS2jny6T7uiAc2szoKU/isreulJRaKdOi07eFiY7kN7UYjQoQIIHnqpFbodJmRkRFqst2akg47k9Ca/6xsXJNxMK4+i/K+oZ8DWpZVY1OhcTSTaujaEQAEbhbCIzY6BjmO2sKLXd/8XkZYTZbOuSdTZ1kHbGk4FRz88ETXdCnNLe1fPuTNna22N9ee7NcfgSKJQxtqoo2ur+f/bQopbYD489aEBDjQ9G1qSvk7s/VsmfiNhANXYSYK2Byo+ia4u5jP2zZ2XIiOTiTPD2TkjldRBQ05dpFHWpnqlmZXQ9arilkoeLMnpO1CJMq66o9RYciqwKkJvs6BiTdxUf6hAJNZT8x6DGPFRZ8z2ROZ7O+X3WGXVNL8VXHaSem3GwliA+IgWd6RQbP8mk/clAFa2jubD1xlYid4g+PwHaE1qvVR6FYwqA3O45u6bni6t8Evg/o7OJHpmzx130iLbKLJTzfQ/JYgPmKXE9ncVK8vTnwEG14kBa8YNPJTHgAk3x+OD4RT/I7P69W2/s2hEHVxYyfJxa5cDF1nZUKRljcgFFdQ8XJLw5caHJlEYpDBBABROAuIjBi/iWLzsOMFUpneWP70HG9uveYKnWnCbDoUC/h8UtAT/T4PDfg2xweA0lyaat7823T8hURm/42WVdV++XeKmnbrS0/UXZU+ohTw01i+IO1+91NVMuyVDOWTadnXeYtiLNkf+g4t4uSnioU+GLb3wqGOopDNU2jH3CcYWK2Ej3uktZgwwU9uFzHY2yMTVj0TmOx1Jk7Hl5/D7WzSPrhR8p+ztewa2rV6rtRmHUEwWLDo7wxIZ3PEq3buXhd9zNFAXIa1Ev7IdQ23ZDHkjk9heTkJUYP+wNGKS2V5/e4ewkiYYAV6EIjo7qTmwqUatL5vqGXGSjTmAwonw9H+1ZXXznTfQshP/B62XOvLn7nYeLS9n3/PDmgGKJTC1jwLEkw8IQYJ1PQr4gAIoAI3IUERkwvofiZ6Tx4EvNAj1DXaSBYDCiQrfbK833oQN/h+NkdDZ1Mvv8D+X6W9/zHp256nHj6nfpuub25i9Q/S5u6sjUqfTpTWy8jABRCRzB8d0G9cqY41cJLVDV2T2TSfRfE2bI+O7/Xfkqwb0bK68migNMycnqUjsGjIgF5niJFwMUIQ89r3nW8WWfR4TgLuk/9JdN6YdNeaVjwA9vnrlvf+OIOVZ9kuqnpje6uAyzVh97PS6PxfaALTsoSxmOw9QQ86trcaVLr5V8+J708PDgUGs1mGTAESk5eGs9cv3raJ/WtiIhpqoorpJ0UEYuhUlzdUq0dNCFrk+mNAhY7PihkvrHmOWVvZrhw1aY46pGTL3wmH7xjOe7DAXrt8Gztbjn0DyKACCACd5bAiI3HmtuyC0H6qrjpYgwDFLafT4yY1GJzYWMuCFq+hAudHsxPvGYBp/ySfAi9xMS+qRI6dECA3tgoJwBO7Ru80xM6H26sn4dfB1ptxY0gPRmrrB5wvrQqryGXK143k1eZK3es++HAwVibMqvIIGs3wf+klxWyYPEC+9panC68dz5XQAEcieSBOGtuQbfD5i6+urMZeEfHDbZQX9d46brWJ9C7j7ebmtoa24z8ePEkON+KsWatCA4jWTgCddLs8BgYz+KumC80lyrIg6lLG8+3CR9aIwpieQEM85f4ThLftElpcau3vPHyb2dA/7Q32Ccv2y9oLKWNFSduiJ+UcOzcbSqTReDjG+nIk4rHw7VGPaFBZ8BZ4qcCLf+tUjime+1XcG+hn6HojAuxhFPWPtEiY13NQO1l+Aj47BHrt/Wah35ABBABRGBkCYzce8py+bNcztqEX7+8aBPLy9zZlb0/pwIuyNQr97xftu7XU99bheN6fVH21fdODLnyRChctXbKJh9ol0UtU3z5ZV2vuJoLq/cXpq3525I1eqIpO2/bQfsKUvfBJqvu0M7FoGr2uZcwtUl57Fr8u/d0vOuYmATkYCxRJpX2Oj1KRa4iOiOVeaAZEO3KSk7se2/xBMBUfLZwt32xDwzu4nXKUxcjf3uf8L+FHiz5cVPTuiNFRyRJz++MwPU6aVb9+TZxTxUN0ir6r7cvDvfxUpfWvLcXLvaBQbN/Zz54PO6VnVN5wNLRpj69/1rRzSZ9LQaLxUJY+rt5cPIS66oqgeO9Nzo/r1J8khD1UEv+PgO4Ul9xZlLcW7MkcFwaB8SVqoLX9D0Dr3q9ihMEqnK/cSwv6jHTPg3tMggXBUcr5P8t7D/ATgld+NQGyZV3Pjw7xHJnl7mhSEQAEUAEflYCbs/zgvutt7e1/ay2/FyFpa6evZVd+vi/lEMfcEh+N/KI7d1XSnMHTsq6i3eYz/ff+HaUec+Vf15yGnUUP7Xif2c0vvG0tGroYl1TwOD3JMngs6yPBoiN67QjH8vBcA6wqMy2/p6hRJz0VoD6z/kNA/Y3YE2Z+ucd/pd+88OROic7QoJf/N+g+h15+wr7r6D1nvH4prSK996/0D7yZqMcEQFEABEYQQI3HbwbwbLuiqzw4LB1U8xZp28ilrdsq7r1n2/IWGuTH57aN5Bqz0z+Td7h9uCnDz7027m3nPmdulFrJloGiiWHE/pcKOVw+UCxnLL9obde8m/+15WsuoGmkvv7vBik3JM/UCzhlyhBYfyaywVILO9U06JyEQFEwGMCIzce63GRdyyhr+TdF2ITqQbpicI9jqnLUTHFXNO44w9wENg5tMsPbTpyyDl2zP0eGZKyLZDN8dKdKCva5zS0fnX7N1ddVojc3+cP/SY5exNZyr7+e5nLW1AkIoAIIAJ3F4GJOB57d7XAmLOGQgugARVhGbRidszVBBmMCCACiMAwCEwk/3IYWFBS9wRslhYkle7xoCuIACIwXglMuPnL8dqQqF6IACKACCACo0oA6eWo4kWZIwKIACKACIwTAkgvx0lDomogAogAIoAIjCoBpJejihdljgggAogAIjBOCCC9HCcNiaqBCCACiAAiMKoEkF6OKl6UOSKACCACiMA4IYD0cpw0JKoGIoAIIAKIwKgSQHo5qnhR5ogAIoAIIALjhADSy3HSkKgaiAAigAggAqNKAOnlqOJFmSMCiAAigAiMEwJIL8dJQ6JqIAKIACKACIwqAaSXo4oXZY4IIAKIACIwTgggvRwnDYmqgQggAogAIjCqBJBejipelDkigAggAojAOCGA9HKcNCSqBiKACCACiMCoEkB6Oap4UeaIACKACCAC44QA0stx0pCoGogAIoAIIAKjSgDp5ajiRZkjAogAIoAIjBMCSC/HSUOiaiACiAAigAiMKgGkl6OKF2WOCCACiAAiME4IIL0cJw2JqoEIIAKIACIwqgSofv6BLgtgsVgGvd7lJY8jcW6AH82oM9uc7nAX35PMi8EX+/N9vL25ff/RbXqDhZewYF6QobZFe8OVDYzgqfMT6E2NHRZXV283jh05Y04kaGjWONfGnjE3bsH8cFNtc5dLy2637EH3D23MoOSeRXjxh8TrWSZ3Zyp2yOSM2fdMTU2MC2d2VstdPz93p+keW+XlN3nRwumTEmMkuLJWYRx436g8ML1F8ONnzwzS1ikMHhuLEiICY5EAbfSMZkdlzpY0nzmjcCrCXXxfMq4kYVIk0wswOHyGTaPRW22AUOQr2r0CAvlEjdrqxmYaMCgalU4vCjdphx9Nteqam5Rm1zcyRIF+5iaVO8tc39QbSxVNnupTn1uhuUm6vstDGuNZLoMLZQ+N17NsRzYVPz4jUJlT3HZ7uXJiM9LFquwTF9usdAzob7GVbs+G0b/7Rtv1Hw83Ji2fx+3UDOq1jcADA/DgtCRqSV79oL8wKsWqbmgaXOjo1xmVgAj8rARGTS85MdPiQfmZUp3Tn667+P617qy48GMFAPzJyxbzy07+VEs4LmLhIp6mRWECVBoObhBW5/eetrG4wAU8KhWjAjPhnNpFyiGjNHUFJYMTUKlUm9VKFfrzdAppvxcJDccAYR7s6HrBG6zWgfHsqORQryIXmQ8urifGnTGe13RwoZhwaLwQOxVYBlF3byTwomKYM3kqjpNRzi90KmaPHpgZHpoYjzdVD1GC8yWI/QbWav54AAAgAElEQVRhdsqGExrKV1edVxhh/O2IJXyQvIDZMpwHiWp/DDy6gyRgG/xQA0DFqVZnMoBkC59qZ2MYfkK2qqFlcIGuHxiID1roZXXOx+WfjCA+IcB6VeqMHP5uba+43j443mWbksnc/P0OzgHFIAJ3F4HR0UsvTvT0OFB6ulI7sLbu4l0yYQl92Rq5slss4V+Zn0hgNhkmL75fxMIxuq0t/8zZcjV5KysyY26iiMXElHmHzlX3uYCswMnT0iIEOPDCGBRd5aWT15p6cxtQJDV4xvJIxQ/wXkHysvmRbecPXmmhBmcsC205eaGOETt3bhyfiYGGnMMXG3tfRWTmU6MFECChqO/kW5RVHfY8OSFp05NFmNVK5/LpVqNWXXk5q6QdULlhk9MmhfJwKg0jmvLO5FTDngQ7bOq0mEABn0MhMpbfD8CNzrJzWeVDuZlc98Z4VFNooJtC3eMFuG/s1CkxAUwaht1Ql188e73VNUYHU3bc4tmsihJKTEqYH4Nmbc///lQZfA6o/MipUxJDuBRAoRgbr53NqbM/HFRuaNK0yWF8HFApFkXB+exKcvwAF6fMSAz08+VSzX7LV04GwFh9/seCdmeV7WtETBg/JS0+kEUBVKCtufjTtWbYecGCUmdOCvJhcxlexOQlqyYDQ33OsfzWvrsG/OQlSls+k3rt4JUmRzQneu7i0JZTp8o0ALb1lLRoIQNQqFZV2fnzBe0QADt+4WJRzQ9na0xkeu7kZfO4RUcvNFgBHpq5VCyX6oJTY0UcKtCU/3g0X+WmUBjNDkvLSArhwgcJY3hpyi9m5bcQwMsvZWkGo6mFERzow+Jg+uqc07mNsEqc+IXz/NoaqeJgAZOBEfK8M+erdb150wL8fXTt1/o7gG4eGAAYQclTJkWKuRisFOgqzT4hVVgBJk6emRoJ/2IAjUHpLZQfk5EaKRLwGYCYtSIcAIvi+smcWrIU36TF94RxGXSi6uzhfGWPHa7blCpOvy/RVq3lRzr//bpng64gAncVgVHRS27MjFhr8ZkqJ7UE7uJdEqEKRQJjS0Hvy8CLL/KDbwii/vzhHD3VN3XZvNAAdrmavA7/sH9oCM18MFbVf7wUD50yQ6zKOnqOfAFjXC61y/1bnoZTLYQNvuniRUBvgeO/gB0ZJWgpvQJvIcrPHm6MW7wssK2tVyxpfilzMvxkPx0512amh2Qsy2S0X2yDb3MvbsKMaZyak8dg3eH7dFlgzeks8n3KiZk5J1KTd+qQ3AhYMXPvTU4QVV9pAbq6vLPyyNkrYhQ/Hit3puWSisaFMdBsz2sK3BTqFi8uSls8jVXx07GLGgvVN+2+eZPDKrMqBo3J9VqLi0R8JjuEXXDx6FWtFWcwLGRa+NqeHdZ5+dR/5XrACMu8NzVJ3HBRbuWE3rMwwXLtzOE6nRUXpy+dmRRWR/Z4CHn+2da2GStTDOe+lw4hk45SqcLkefeIGnOO5kAhh4qydGpc/eH8dmBukp5tKhRnPDjFdPao9GaDujc6u/RYqDcHALIlGGFTE+jVP1VqAD1w2vypzIrsI9lqM5U/efHiKVHVJ0u0mL+Iq1e22cUSJhf5c3UNSvIBofqJ/Zh+VL/GguP/VRMYi2EbehmAqa027/i1TvikMaIXrIwN5Oa3tAE2zI9ta6o790OemSZKWzY3Lqy4sUyLiUQ8FkfVeuoYHMzwSV68OD5aUN0nxn4iv95+m8MuqNaDn15YUsiMhanMmisnc+RaqxfOZgGd/dk2a2QFp4vU0BOnh828Lz3YL68R9hDVFTmnmxMW3+dXebh3sMeRfXvhyaONqcvmctrsHVd7cNOmXlyRkMMj8OLBf7+9t6IfEIG7m8AorI/lxk+PIUry+nV7HQjcxbsB5OcvBG2KvkkRttCPqSm/IoUvXDgCZLMCuACo760N1y35GtqU/V0znMGkMn0lYh/YW4YvAo1xCO+ERiVMBPCJjqY01OtsNiuVHx1Jq6uAPW57wP2EfI2ipbc4RkRyhK38cnEb6cuaOnUma0erfRCMFx7KUdbYPScqm80gtDpSo/HQlCS+qqKB4PB9/fhsqs1GoVIdOQPYLfAztrT1+Qjd8e7/cTYG5u95TR3ZuijUHV5+fFqEtb5aRfXx4/vymcAG4Iiye+OgWvgLzM3Xc0uatOSgq8lIjoIyIlMS4ds5z952wNim0tKYHAxQg5JSBE3X8qBYwmiiDVJgcZg9mfP8/axtig73rdaTkBuVGm0rv1ji8Hp1UMOYbOjXOQLZDwBtrX2vc/e2GzUaM9ubTSagh6RM5tRfK4JdLd+EtJDOwksVarKtreq2DiuTDdOQ9SSUiu4Hzu7YKRxz5zyRn1dbyWVpo5pse7OeBDBUsGjVGiuDzeXyfRjQOdaQDw8mEnJ1FdLr9gfM0tmlg04g/FOl+gn9zPXXCprsT6JWpbuBU/r1eLlCIVWlIPttA8KgBwZOXacGtF3LLoFiCVPeIHT2x5QMOjXsFDA4XC4HDqhoNF09ttNFflyNom+wp68Atr+Q3aFo65licNumrICh/n4HGIx+QQTuUgIj7V96cWPTow1FJ2ucBMBdvFssfH8/rK2sz6Ozz67VXu5+7w2ap/ER+VHU1weMemmrLmRTU5KnL41LaSm7klvgvGSwX9FwZo4ggDhe0lmVbY4No1ICYwO1lVk96usQ475xUkZIsJ+2IbfnXenDZeoUrfZXmMlgoISGRoUBEzs0LqCt8JQCvrzwwNAAYNVEpqb0FNlRV9Mz32NXhTwPVKHnXmdjYPwwaurIZXCh7vDyQ0PYFiBKSBN1l2+QNyqHEneoFjdarjYPcOWxoBB/Q0OvG0T18eGYtRoT1V8SaG3OVvS8arnQo9L2drO4Ij+murLvAejXXAN/5ISEctW19T3uOe7DpeugAnUngo4ao63Kg2xg+k6NFgvywUCbICmVL889Cd1FL7+QIIaioKFnkJ/D96bq6jvhQILIl9JW2P04wrHsXseOLQpgtFc0DO1T9taA7hebNi2CDwxdWuMNjoivqyRFl9RFY1NRt2NN9eFxrJoKHbBrv4IcN7UHroALOuWdvXlBH5etGTx5OeiBofqHBVKacuTOwy1wxDwtLd6PBuXTQND5Ikvz9d6/AHuv7rqLhneIcU5PV9Jtm5Lu+BB/v72VQD8gAncxgRHWS258RrSh8JR9bqN/cBfvloyryUujsqh/d77/PA1bCDu5db2dXEe2cEFryYXmcnZI2pwZaXGyY/lunQy4doKgBkSwZPktUDWtVHEkV150pXuoDQAoxl79xNjLh8e1qku7X9CYOExk65m8tKja24xspg8XTqJdOCZ3vLU5fLZX2/XTZ+sHL/8BHqtCLyknY+zxntfUnnxwoeTkpSu8VK4321h38pR7dL12OX4g1UJd4SRP0F0Bml4hxMVhAUTThbYbzChvqram531PFYUG4Yrrzd1iQBf6c/vPXjuV0+9XqL5Ep6ansRghYX66hus9TU06aholXCPmSTBqOs3RbIF/UppIkX/SLktU2BkytvWqr09oMNRmOJHICvdjqeu760n1Cw2iqq7ZHTscFtihVLhZR+1kBSN02txo88UTPzTD9NSgGcv5BOmxQl0UUjVFPWIM5Y2quNpqJQdpmVCsuwnxQ0LYqorm3qo5fNwBk5f24gY9MAyuD6ZrsLuW/QItMC0zGb9+8lgt+WDzU5cHGvuce0cHy8UKWGcxZnJdtynVXwTdcbd/vwNNQb8hAncpgREdj+UnTo80XM+rc1ZLd/HumTgmL1sHTF5S+kbV7N35Vsf6GjIT3A++XPuNl8IYLh8ObpHBajaYb5g19olOdwGjUZkBIqKyUnODAhfv+QdQ6/u980kx7uwbcSLztFHZ5EQXHGkMTJkcQmnvHgTjJ2REWOrKa2obmxXq3qWYRp0BCMQBDEfpcCaV3dtLofrwuWatwbmn785OGD/ImOHVlMx5cKGk4+ISr9VoNDOEgVwHShqDzyUHt90HUi2gPDmphUFvJJ0hMhMqNzw9RaC8fh2qEWHUWzm+AgxGe3GC06aFaAvzZT0ofPg+Nq3O+UlyVbJeZ8AFPPswKiaIz0hg1klLe+QSvs79jErFUG3fP0uNRgcXDiWHqPOl3d6XVWswM/hwpQsMDNHk6bGg/Ao5dsImx2QdisMQp6ZJGCrHgDw5TGtoU3g0Fw28BGJ/0NZE4oLLwdKSQ+BoKjnSAHWRRQ6KksAYgckpIbrSgkbCPkhLwRxDzZgweUokqLpe3UfI+Y+iu2KDHhhATj14B3Y3Kpy8ZNvb1EckonfKm6HlVEZQ6rRItkphn44lA0PAYxI6Z4V13AW7kq194zpu2tTtA2bPnhUybcn9CxP5jsLQ/xGBu5bAyPmXcCnEtEht/knnz7PcxQ+JxD55WT1g8pKhrun5++X7w3maIrI7z4nMmBnvR4cTeDgQLlweTrQVncqBeo0HJsxJD6aYjUYLFbepKy9cqh9Kk2g0nAuXv8J3EmBTqVxORwH5TvTix86ZGe2NwzUrVMBdsiLG0HQt61qz9YaiqrxtXvJ9K2N1Bk1Tm57onrykcbkMgPknzZ43iUrBMIqu/Ce4GtMKlyMVXA+cmbFyFfwWgwqsnZXnT/csY7KqW9soybNWifSEuTHnVKH7NSnujBlmTUnqgwuFk5cu8QKgKL5Sk5m+eFW82ULFgK4x/2yOxj1Ju1q0FjmrhbH6Wknw7AUrI402WHj11dNFcNkTnLBsLC4Mzcxc8YABvpc7ZYVnztf1fX2kaVNY0uGiYR1hUxQcu9bk5A31e3rU5fk1gfcs/UU0YaOalGU5p8p7l+/C17QvaJO6HVdwfgb1nZ0gNVB/0f4k2MMNRUl+8+ypK1dONgMvQ3PJmTNV9u9/O5ob9JHT7l2VQBBaRZPGoNb0Tl6Ctqt9PTnnEgb8fkPTqrSlZaxcbrQQnfXyToNDokhdVNfVB8xbHg4niwlFefY5uEaXnDH10zU1cKetXOkFqDc6Ky+fuk7+ReDiqQtSAjAc5zAwa8ZyEaGpvHCuVOPugYFTqg0FBcGZyct+MdlkBRQb/JP5qYIAWoXCEJN27/0JZpu2uVbdpdE5phhIi41wIcHkhMXLQ4xWXTWZOaCKUhakBTNwHK7SBdPvvX+yrv7yabiA2U2bun/AYO5U/8hQPrOt1jOffEii6CIiMKoEvOImTXVZgK+fX3ub+9e3y3vurkgqxsCoFJtZP/jjtZEwlAZV1GyEbxxHgJvjLJrJrTh7pc7RDSfXOgbVHzpb1eMAeEFRp1hNxsFf41EZDIrF6OJjTU/NvJWaDqtQKh2+FftV1lPDBqSDmZDVdBY+aDzVZnTZRmS9bCbjoI81XRUPmwPA3pGrS57H+SQunCOsOXW2xmn2kYrDD2P62ro7Q9I8SGVQjTwvj0wJGwKz9LecKr7nwSlGckEvxsD7yMAvTO6by5B+m9MMyG9Vex+84ZXWLzUkRrOZTf2/haViLAwu0XJZI8gA8/LwGRiiTV2ZS/q4FKP2ZgujXN2K4hCBn5PAyPmXP6fVHpVlNRuto9hlHfCOgxM+YaGczuuN3WNWmDA2lK2oIT8C7Ak34FCVa7vhoKeziLhO6C72Vmo6rEKhzN+ehaTlbjIhjXdTsSEuDboDNseguOFF0EUpGZGGwpPOYkmaTriycTjmuTfFuSH6+cRmYz9Xvnfh0g0olu6z8/yK0wNM3mg1u9/PwTUD18UNkwxcoOs8JOE6XxSLCNxZAuNYL39esJqGxq7Z0+9dHmewUugY1aCounDRxZv35zUKleYRAWHywvRQNs3WVppNDubf2eBmQS8mCuDaN7dCARFABO4UgXE8HnsHkJLjlnCG0s2I1h0wCBXpEQH7+OGAkUmPbhuVRHDckw6/2hw0QA1n0T0dDh0Vu1CmiAAigPzLkXwG3Aw5jmQRKK9RIDDM8cNRsKAvSzju6XLcnrjtAedRNRtljghMAAIj+j3JBOCFqogIIAKIACIwMQkgvZyY7Y5qjQggAogAIjA8Akgvh8cLpUYEEAFEABGYmATGtV5yhNuejF3Fc9OyPNFbv4te0ru9t5tUKBoRQAQQAUQAEYAERnC9D8U/WrxuKj+I3N/MUlfU8Ok1nYf7nIxWS+g7j2Ybm/qfWTJaJaF8EQFEABFABMY5gRHTS3Z4yItTbP/+vuSyxgYw1vKlYZtAzbbBuz//nDxthLTM/eZt8JBLFBABRAARQAQQAc8IjJRespZnMHJP1XMyYt4LoOE08/lzSl2GcFJ+Q5GNEjY55IkpvHAm0HV0nciuPwhPoGX5bntMWPGfsv2OY60o7HVro/xzit6sgAfVspbPk6wIZbCBpala/s8z7XX27V9S509apWk4zwtYHoazgTX3x7KP6knFcxOPzV8cvUaC8xiGL78oP9rrYlIZSxaErYpkYCajtKjfLtxuCvWMIUqFCCACiAAiMP4JjJBe8rhp1s5PhUGbWO3b9nbMWhUrNOtqrbwwBqgVhbyUTjvy7fVt7cA/MuTFZWG6/dUnNB0XZMEPxrP2nye/NcMCBel456e1UBips+ZHrgBNf/1/qiYKa9WK6E2zjM+f09m3tfMKTw2oPVnz/CmzmUplw4OLu4PLePPpkyWnWcJtjwn6t2HYlLBfC7t2/KtMSuCzFsXMojq2Sxmi0PH/BKAaIgKIACKACHhCYGTW+2A+dJbGyBYyO1q6WgHGptv0RpsZKhqFkprAI8pbjrbDX2yt1c2n1d7zo+D5Qdbssk48wncSWT5lUhwPVLdLoSoyefPCrKfzVORxFGb9iRItP5wX22tji3J/vZnUTqtV13/PUXfxzgDwtAhGbUmr1EDuCHo+X93qOIl+6EKdM0G/IwKIACKACExEAiPkX0JJs91Q68w8Hp3NwsNYoA6nB1GJ8wZqENNLL+/d9tzaYQAsb7giiDDXtV+bEzozuKlIzp0fdiP3aBeZiIHxqYwVDyQvcbQFxQtYLayedtHpzC4PMnQX79yeFBoPB7pepTVa9A4fdchCnTNBvyMCiAAigAhMSAIjo5dmrdnMwjuym88vDnptqeHE6fbUWQG6glqp1crW3WCxSYG046XCc3275dPadaYSbIrz5tEFiQbVX1vs141mtVWf+9+y/R4fWTiMVrNZOggQzoSn8Np1EqexHJ7rqBY6DPtQUkQAEUAEEIG7l8DIjMcCVWe5N28W1vXlobLn/1t/olrx5r/L3yuBGmmTlnSA2IDlQqhS8IOTwCU+uuyq7jWrFWUqncR3TQxbWdpW50Bk6DhTh82fIYyBUkah8HjsVH/y85QRCsS1GmP4JP9U6LFSsVlJfH8ve8ajW+gI2Y6yQQQQAUQAEbijBEbGvwRW3bdXrNvuDdFnNZ+GZ75TsUkRDHVlVxMAuvqGHRdDnrhv0v/Y18eePlHXt1pV2XZem7BGovvyXO9XH9bzp6rZmUHP/DoICqVOY5Dm1Upbh08oIPC1RTyeF5WPUcMfSFhywyb9qWxPPai7WvclL2zDYylsMyEtVBeZHWO9I1To8M1EdyACiAAigAiMFQIjeJ4XxT/c/9dTBGHQNbxhaZW17jmngnqJAiKACCACiAAiMA4IjJB/SZKwtda27Kh1zEOOAzKoCogAIoAIIAKIQB+BEZq/REgRAUQAEUAEEIFxTQDp5bhuXlQ5RAARQAQQgREigPRyhECibBABRAARQATGNQGkl+O6eVHlEAFEABFABEaIANLLEQKJskEEEAFEABEY1wSQXo7r5kWVQwQQAUQAERghAj+XXvpK3nsz/VciN1YLwz7aOW01x83VEYsOCPjt9wkZAcPMLyHo99/GpvU/5wRnz/1H2gvfpr/6bXQc3DveVaCkhD73bXSCm6uu7vAojsLd8OLc1zP6fQVEYa5eP+vAm4uydqWtZLrJ42fC66Z0FI0IIAKIwLggMDJ6GbAw/dB60QC9o3A3bpu9OaYHklr5n+8qs1Wjwix9TfrmuFHJ2Z6pTHX24+aq/qYTurN/vLbj1ZbeYzU9Klw4J+HNDxLuETk24QuM+GzXkqz37f/tWPDVc4mrJR60hU176lj5oTJLX4E2w4GPzq/eWV3V/8CWIe0JiAvb+tysQzuXZO1adGBb2roYD8p1leHIYOdJ3n1aMtwujCtzhh9H8XkyLihy+PcNvIM2LzpmSV+/yOee2Nc+mDQnxNHKnmWOs+c8M3XHvjkvPuCux+NZPigVIoAIjCqBkdmvQKXUgqnsAAqo6j2VkkoXsE2VjuOgYQ1shuwceIzWKAQKOzWSDgpGIefuLLWGkmO3nTuWFL1pHXbqT4WXFI5DxGCOVtXurVcOaAHO5S5bnbLhkTDp2zV9AF0XaasqkFe5vuRRrCA5ccdvhPIzpS991t5iw0JjuKC5t808yqE70Qhh58QIoim30o3CqTT8hkU70HaXkaTBFBrfy6Ie2KWQBEbO96r/3FWlcSoFWG29mzS6StIdh3MkD/NtH/Y1Seel8nfxSa+8EtvxbFmBy+N0BuWGTQl7eKrx89/nXRqNUwYGFYciEAFE4BYJjIxeEkpDC5cppoIqKj0hmNJSa1Cxmb7AkE16YPSVv5m2NoYp4Gj2vJr7Va+CYuyVDyetTebgBq30ckef+Tzhxkdj0/kUnMsU0AGhVe3deeUrBcCDxZvXRKcH0nGTNvds6a6THfAtmzA/6XcZgqhAOnh0djp8dZrbd79enNV7epgrJhTRytin53P5nBvK83Xf7GhTEoC2LPalRwx7npA1kW9I2tR3pkwtyd/9GTxLmjnjndiZUXQO3vntmrJ8rav8+sdxvGe9FJmZQgcqXcl5U/+3s/fK9YEd3+ac6hPLfvcRGs2xvPZ1D5MAZTHxXz1K2fWX4myyFpQFT8xbp7n6+AF4sAqIWpj26ly+gEuRfp21NedmIucSL4X9y/sCwcUr2w932CtjUeV1d2IEMWGbV4UlCjFg0OT+WLrrnAYmwOPiv1pFOVbLygyn4ywKUVv3zheyEvMQ2OmZ98Wvm+kbABE0Nu/dW3pMCSEKNm9ODb10cdMpA2S94NEZGzg1m3Y3yjiwoaPSgzkcuu97/xsGrWm5cPWZYzeVGNq04JjfhAhDaACqmlpR9PtSJZQZvk/I09GSZDoFp4CGlpLXKtvhRlN80aRPAoxHLPylPgw2RtG1lW0pVsgAkPjH/D7EN4HDAJa4z+8B4IbucGH+PvLkcnvmwXwBlca+0XWkpPCTDujKMx5OmTZPI326RksASook6Vlfzf9drymhB22JDkzw5vCBZUsGnGmwldRcfU0BG6rzXMXhOfc8ulb+4kedQz6LPc8Ah4ppdc1ILPv9TaAfEYG7kcDI6CVo17VjvhI2EMTFv7GGeWznpT2AztEY5KRmmA796/whruS9V8X9ASQsTtoQrNr+6qVcA3PZo9M2Uw2nyMuUBQ8kpisL1+9SaX2D330xpGQXKZaALtj4ZKzgwrVf7dAQouDtf0zZqDy/XWopOV34TLZg66tJxBc/vVvmCV/cO0JQ/umvy7UC/op3Yh76lW73Z0O4vYaLL+RfjAp6+h/eHuRNCX8qeg5H8a81TU1QaP8yaSre0wvAkoLmCNq//gEqsMvAZC5I9SVKSouHfLtWnbr2q9PsDS/OkLjMZGCka7x8YarQkLvPIZb9buAFb10n0R7MXX3ZgAcGb/192mbd+e159lHfwIDUvJz1+3QEnbfxT9PWZSg2Z5vcYZfMT9qcpt21IytLTUt/YNrWJyLq364pMah27ZW9tz5pbdmVHwInbYjs2L2jUQblXqPc9b5SsjD9o8nyZ3bKPNtHkTYzesrT3u0fF2SfgYeX0hgSihHKDIcb8VYC90pJ7mudFpwZ8tbUmIcUlz7QUBL4fA6nC1yXPlxs4fjGfZIoSqYqZFYga614US1+M0Nceu3a533NT2b+JC5760pJqZUyLTp9W5joSH5TCzAeb2x/KFYyT1YmC0h6Vqj9oKAmH7KxNL2W3/7YlPT4pksvtvQbIYfQiIs/tP7imeDkzzrzPHFSPWhPlAQRQATuPIFbnLtyNtxsaNHQfX1pqXGc4hJLaiIT8JmcDi35WnQdmBmJnKrLdbnQATUbss4qWrq9MXpoAFZfa3+hqzVVapZERFqIxwVnYooDZ0inh1A0Hiujpqbxb2ktDWEoOqTSEMDWos4+bRBN5/Nc2zf8WJwdl0qtOy5vgjZqDZePdZD+iiMI47ishg7yeLMBgSrY8DqcRFyS9c7sdb6KXYeVtzIu6dpQ13hxNsaBPvggRyYgTZyoku29DP0/oG1u3JtnSZ8u7F7gZGr/IVtHWm7SFDfbxEK6e+zMhVN5sgs1WXAIwWbJzZa3iESOxVVEbeU7p20rH5/26gOc3H1FWcOb9+2rIRz8fMzf8N/iKlIsYbAYZaRljIeignQNZZ90kqJFGDUyAg+gU4AXK8WHUlpX8rnGHk8OPxhbeh5InMuPIjQFxoGZB5ivyPV0FifF25sDD0mlUByVVbfXnTAJH56UskUExbLqSq84Yvx4VlepvdyBwVzaUcfmRgfffBYT43vPmeptVuj7DbE454Z+RwQQgbuCwAj5lzZ9vZqe6stPDdFkf2144D5hoolOqE3OCtFbZQrGYYIuTbc/RWhNPWOdpspm84IYX0GOUisUJHK1OfbZNQ6PzuGItr4W2J0BRsEraPBd5jZ/92wtuh5V0rYTgENj48BpnPVWuxA0FueGtr37hWxTEUaiW1q8WHwa0Jr79LPbOjh/uY2cvwR0evrCpK3PJYI3i3PdWz6MK27wEgazFmBQCsDAl7OASwdaU6+Hp9KYQBxTQLGDMZm1/eUATuy5CxQ6HCtOuG/WocXdKXCbqZje/XPVuTrp/LR0Relfytz2odxl3BufIBIGdELpGpiQKZrO7jrd2iN9NJYIN1YbbIDOT8A7T8PxdnuI5PlgmprSnsnjBIEP0FSU9M4lw7F9mLkV6EIjo7qzNxUo1W9P2jIAACAASURBVN1MbhhLuoiHAsC+3H5iCbtxPqTo/ruf6PZaZrbozTQW7HPUDDR24G+hazNe+yXH3ND8//4q7xwqIbqGCCACdwGBEdJLYGlpN/smiEPbVXtqNdGsqAWBdFUr6a+4Djaz1gC8OfAsaPLlh7PoPWtrbdmHSxdsTvlom1ZrMhUfLDwAB2Oh06MxadWy7a+WS2/9ZdttCIUJX2L21yCHA1XMQvpOpA1ePUKAkW+5WwkWo9aL6wuzsdvIoTF6PLEbep0FcDB41qabd6LJlJutkC0MSw0EpF72SRJFwKaAW/DG3OFt7yjWRKcns/c02l3GnqBSkwIJF6lW2WMEPCifhGq4qG0mldYmPXFuc/Zgf4uWuSo2sblR6huxcaZi6wV3A9P9bHLxIyWExVDpB1gOU+FMtsiil/UMZQcIRQlG5edaOHnJD9Gr87vriafwGA2tnT1dI0YyF69q6uwHgSKCmSuubqmGk5ROgRIfkvQku/OKXjjdn/W5rK/fk8B3Ft3eOzEaC7MMGvd2zrl+b84T33PnbEh+bL24BEmmMx70OyJwlxFw7y4M09B6pSEgRqCtUKpsmtxaVnoCrV05xGvRkFOmjcoIy+QCgNEzM0UB1O7yBHHixNbyl97OXb/z2rv2EUIYiJLGbJt43TKBhA5wOk0SDufheuyzWlQGLDoc+on9lcad9Tg7foE3mZTDnpLJlF9uh56WpcXQKfBJSIB9B4pgWWCqJx92DM6f0JVIrRFLxSFQ+jnMqcv4jN40yrIufQgv2u1IJkZPnyuWWDSVCkAodS1038wEctgzICHy3vBbayA3eG0d351qFyxM3TpfEMWhQJJR4dwoJmgpaJRyg9dmMEnTg4PXptFyc1puMjjsArvh1OWO6LmxyyQ0nELh8NjpcWxH1yNgasLGydo9XxS/vk8uXpHU/zNc0pf19U50dJduVleV2SLg+Sc4HhUqLoHdLRgIo4rGibLT5nuHPBtKP1MlKwVw8tJbpelocDQClZ/ANpaQq6bsgeIdxbIojP113aYyWQQ+vpEOG6h4PMvRlaTEB0/a4q/9oLDk7/XtoiDJvJ4HFSp1JBtXGV12CrF4Xpi5q7Kmn//aXbTzP2a15lxeJyZijdjEgHMJ6HdEABEYIQIj5V8CldKEc2jSElIjpSVqfCZfZR+bxCOjdzwiEtBoAgyTbJx1r80qPXjp3eug5FjhbkHS5lcXbTUYpBcUUhNUTnswmUFU/Ec74u0/G6SnC7d/36E1qXbtLt2wOuG9N9kcuKpT0f7dfqUUrr2Ewab57mhj6kMzDs03a9Xyd98szx3KMWpRlROB6z5lsjkUXX7tN1/ZJb2k+fvDrPv/MiUDt7bnN185bUqw50yZFf779T4YjnFxypJ/pswDlsIdRVn5gLUsct0j3mQ8B6z4NGUZYbzyRtn5Klvtx5XnXopcuz+YojWUHW9vIgXYHsx5TRdVqQsX0fO+79+FgPOXby7ZAK/bbKoW5aFPi46RU5+Ne74XbHx49qFHbapa2Xc5mgcceWDCzS/EpmJQhyj4/bO+WmJTSYs2He4Ak2M/WiXE4VgoRln7p1m/tJmz9+furnCLV5adv8kcvWF+0nsPQEm2qFpa9nxYXNUhf/dT+sbV6QfWYIROIz197V3HYp9u+1394wq77LR0Oy1hw1NzNnMphNZQVVD5tzId8A3evIonPXDxGOyadFTuyknf/liEdGcNXGcLg1Zaszc1aeNrizYaTMUnrmw9N8TqK9uFuqoLk2PenBmktQL8hu5I0bVPzHAFdeO+Ft8/TM2832ID5s7jpdLP4aJWLw6cvKyu7nIoJDlbaVUf7vUMbV35nZTHJs1MJixw0exzNaSjeaW+4sykuLdmSQiYOSCuVBW8prfFB03aIjZ+4pizbGs4E57yC3HdmUbHCCxRrdYHhE7ZJyRMxubXChuqeznhM+71J84WFAxyVV2RRHGIACIwRgh4xU2a6tJUXz+/9rY2l5dGLxIPj/7oN8zvPiw6pCBFTxATu2M9+7s/Xzs0xFt09KwZyZxZSbGvbKIf+1PhOfsAMwq3ToCD4WSfyTzg+0icigsA0bNqzKPMOTiOWQmnjzJdZj5EdjgNlmtpgVLdF3zmTHplrXXfs6V5N/04xn4Tdk/iexso+54tOqe+uT86hC3oEiKACIwugZsNgY1u6YNy5zEFNnOLxvH2oQiETI7B4LRWf9A9YyJCX1ixY4912UvxPfv7jAmr70ojtWaiZaBYQjMJ6/DEEt6iJZzFkox0lfkQGAgL4SSWU2M3/9Lr2F/LPRRLmLf5au2+PPz+/5uN9vcZgjS6hAjceQJ3l38JMOayX0xam8jGrTZABdrW9h+OlB+oHbx+5M6DQxYgAogAIoAITCgCd5leTij2qLKIACKACCACY4fAXTYeO3bAIUsRAUQAEUAEJhSBEdNLuD5oQoFDlUUEEAFEABGYUARGTC8nFDVUWUQAEUAEEIGJRgDp5URrcVRfRAARQAQQgVshgPTyVqiN+j0U7oYX576e4cFuEhTm6vWzDry5KGtX2kp02vCoNwwqABFABCYugbGkl5h408vRYT9bW6Wunp216551gfYCKbzNry7J2hadcDNg6WvSN8fdto027alj5YfKPPiQxmY48NH51TurqwYehuwwesETC7JeT8x07Bt3G0ZRY55a/NbHSTE9u/zeRlboVkQAEUAExiiBm73+76JqYfF+Yayf116VFosKtzt5fF4oZlK50KSBgCjs1MieIzluC52tqkCee5tHPDGFC6LNLWbhgpuK/NCmih6a+/u5qi+fL6xwOsll6NvQVUQAEUAExhUBD0b8Rqm+jOUvzwj/qah1Svz8UDpm7ji48/JROSwLi1mS+MRS/yCWl07ecnDP9RPwEE1MsOYP8emhPv4+1pd2BsFEHTn5W/argCT27y97H3067zS5F6nXpLVzn2eVrP9YAX8LWzN7I6g4iIWvmcJhA0vxwYs7sk28Jff8PV59wuybHohhLK/WnOL39rcOIUpwW1dTqISLX1Dh4VxBi07V7V/R0u+btG66r4RDgYd3Fl8sef2wCu5OnjA/6XcZgqhAOnh0djrcocjcvvv14izSMnrmffHrZvoG0IGqsXnv3tJj9p1v8ekpB1JVr9cKNszkCeig5WL+M4fJHcGjFqa9OpcPz8aSfp21Nad3ozXXhQ7ROJzJ4kSlbFeleEOqL6dASWodJn79zWDVKVNoMlvAwYj6ul1fyKQmgCckfnU/ONbISpfQOSwgv9xdI3vmvhH/s55X+JezRUgsh4CNLiECiMD4J3Dn9BKyZaSvCPr3+xfWyyyAhWH23bB5GUmbltr2v33qtJwStnzaK08nNL1cVGRW7f+/Cwczp362tOuNl8vrPGoWL//MmNS9V5/fqzNjGBt0n/fEThL7f3Dh+asE8JNs2564qlC5p/dMxMHZEgqtNpgbAFS+4Wx5o8q7e6DVIq+V78krkiosnDi4w23sL69d2t0ISk4XPpMt2PpqEvHFT++W9WUmmZ+0OU27a0dWlpqW/sC0rU9E1L9dU2LXQTwuYnVj/qZXO1TwZBR694aoVaeu/eo0e8OLMyQDDHJd6GCbe2Jomam+LdfLs0soa38vTqcrsxxbvWOCVN8rz7ypUsGJz6dnbL5f8/gBsseABwqjzl5av9cEeKLtm5M21v+0vcBuomBxVGJb5V8v3dS1dm8JuoIIIAKIwHgg8POObzoTa71afRSKJQx6s13QsPRMoS676rQcvqstdacbKnz8p0fd/JB653wdv8sb9+foyGzNZvs/ZDDL5UegWMLQpqpoo/v79R3P1J1iwD/qjko6L5FJTxDbqqCf2xNkJYpchQVmo6pQFGvoAr6re7vjmAun8mQXarLa4TkkltxseYtIlAGPmnQEg/LQyQ7ypEl4RMnN9pQfTqHwXC5hZpQ2t8BANCtytYLMyT0NbTVI80hvGNgMxy6rBXHCKPsVwqTKumpX1A5FVgVITfZ1nD5GjZrsq7+uJB1/FBABRAARmNAE7qh/adP1nkjY3Qh0Ho8atOSePfMdv3vhwJoLz1n2NAxUVp1BPfhGPdFzqtMNqKEYGFqMbZpiZWRiFI/D0WS1WlPhnrZkoKXOiV6dxvPFoNBhAi5VOriY3hh40haXknDfrEOLu6Nwm6m4d4rTQLR76rgNp1DoFiaLU5m81M0LVkLfkU4jUoWcPIV9RNWm7QFAGCwEE/el2o+JNlvhOVaOoDXYcEHPg8HypprkQxxkOkTV0SVEABFABMYTgTuql4NBEh0d1rqrF7YcdHUSUo+P2HebGQpWr+B5sXywnmHXwTnfYoytuN587xQRp11ZbOv+XAOfHLt1Of0/O3MPNNvIdbN/TXF7EDQs1GZSaW3SE+c2Z3uw2NW9kcMrFNAyk/ktp3P/4jhOMjDsjV+JM5mKY6QJNIFPdzEcLh03dHQLNh3jQBUnfVyKgIsRhh6J1HdZ6eQVFBABRAARmOAE7ux47CD4RG62gpcZvzySDj0/zIcdk+TTd+68ntD5cGP9+nmEnfpWM296Bgt+MMGOjFgRP/Lqb2up6xAkiwhZh7ZnOBZnYhyzBaoglJaomWHp3H5DulaLyoBFh7NJBe1Gazh1uSN6buwyCQ2nwNOe2elxbMGget80YqhCB9/MDcgM1+de7pC1m8j/iuW5Bt/MyXY6VHp6piQKCiCHt3YmT1WmrLLXC6cL753PFVAARyJ5IM6aW9Dt+VtrKjq9JwvFg8tAMYgAIoAITCwCI68wt8evI+f6G6yEJ9bP+R8/DOj1TYVVuwo7HUtYzYXV+wvT1vxtyRo90ZSdt+2gBuibv9zvt3HV7M/W2tSy5qPZqlU9vtPtWdHvbqK+o94iUtUa7JOeZNAW1OxNTdr4l0UbTYbKvOrvyrihveltmu+ONqY+NOPQfLNWLX/3zfJcG5Cdlm6nJWx4as5mLoXQGqoKKv9W5sp9dmSCCTe/EJuKQWWl4PfP+mqJTSUt2nS4w12h0O/8aJUQh6O+GGXtn2b90mbO3p/7ncg/UdO2p7nHLJsmu8S8PVUogAPHVk1uo/cL2xZI2KClpPxd+4pcqO5Eu7KSE/veWzwBMBWfLdztWOwDM2g7Ulb0SOqCe4o/R0t+epsZ/YAIIAITkcCInecF91tvb2ubiAjHUJ3h9yRvR8p2nIerefsH8nuSR2zvvlIK1d1FED284M8rOj98Kq8UfVLiAg+KQgQQgQlC4C4bj50g1O9sNYfb5op92R+eFfzmjcQotL/PnW05VDoigAjcSQJ323jsnWSBynZHgCj9+OQWdxdRPCKACCACE4IAGo+dEM2MKokIIAKIACJwmwSGOzZ3m8Wh2xEBRAARQAQQgTFJ4M7oJVwcNCZpIaMRAUQAEUAEJiqBO6OXE5U2qjcigAggAojAWCWA9HKsthyyGxFABBABRODnJDCe1sd6Jzz4WGLj1weukNuJDxmYCQ+uXxrDxWxN5/d8egHuhH7nQsivZi3Fyj7518/66So3PWHZSpGQBUztTcffrGgYvNPgnQOCSkYEEAFE4O4kMAb9S/Gc1Qv7dtTphxUDXVXFNc5iyZ/2yNI4p26BoeTb//v7N6WAopG72JL9tlqKNm3y0x9Mn957AgnMLCnhybcSQuCefa5C68WKM+eGOINzwD0w8zUr2a6yGU4cxWfKSpHp+IX3nz3z2btVQ4gl996Mp58L6t08lr1o+tMvhnKHU9Stp+WGPPTBogdmj6f+3K3DQHciAojA3UBgzOmld9KiOYzOVlfsVCWnjpc4OYt43Jy5AoPSxV7n4ogwWmP/Q7p6sqQxabdBxaI1m6xmncc74ZhqW6tqXZjnqoIUcYzP0OePubprUByV6cMxtdaTG/xZDC539Bl0y88fYTCZzBajxkMyP799qEREABGYcATGUP+dGbPskbkJoSG+mDHohS3z4Uau177+59EG+ML3mf7wugURPlxa3ZEd/7rYLVW00DmPrEgOChKygfa3r2TAszcq/vPht2U9L2DviDCBsriq//uYH7d0+ZLpgSwag26pyfp0X3YTeZW+5Nk5a8zFz3zQ5H7T1/6Pjd5iMln0npyAFRW15tEgAQ8H16T/7DceS48PX/QLSYgvjWqzaBqaznxY1WACtPjw5SvFwkAm2zL18XQrPEqz6quc7FL3zyvGjPtFwj1pPDbVoqlpyt5XVQt7EphgxtMxUXw6F8PFv58VawXW/JIv/uPskbvPtPcKxX9e4sJFfgIWBZhNymsVR/e12ungISvi580ScOlA1yDP/qKsSknG0tKTn0xTHa0VZM7i+dCB6nz+/kOdMN5lTbvLsFpMerOx5+gxD0xCSRABRAARGF0CY0gvDRXHPq2RPbJlqeaLnXaZ7A2dl/ftvD7lN6+kN1b1+XWW+nNfvF+z4qVHGUd3HLju7KfgUZIAVc2Rrt48OMmPPD7XfGrv61+2WxiTH/3jQwsScr8ohD6YtUnWXkzoe7dbv1l7tDSd+ZLW6smMYFXV/leq7POX/fKksJNXhdEv5vwzywDouH8o1mmXXktp7Xel9XG/mze9Oe+LQzdVbor4wdR5gfLvXr0q1+Mhq9KWb7Duf6NWZVZd3JlzEQt4YEdE64cXL9bfrC7urnPFmSvZdTvPfV1vo3HZQr7ZYRB3weTlabrjb5+pVdNCVk1d/lS4ChZqbylqfMSUxvxvXoG1odDp9ig3Ne0u06a5+lUJaHBnAYpHBBABRODnJnAbI48/t6lkeeKIUCCrkg8eRKSFRog1shqncVr/CAlXVjfAiey2WhIlMdXVKHrqQItbuDROXSBVs4JCQkKFDAugYJiDjaXo4NUdR9WeCKA9N5OhobDLE/fSNT+bSaMCgpSQxBicZiJaK3S3khWFF5dCr82ql8Pug41o+L5OLgxKjHBd4K3EmgwaPTNsTlBIAMWi0cntQ7sAMOOm8VTna0hH1mZpOCdXiURRvfO4BuXV450m2HA2m4k8ZZM8GXTImlpUxSqVI+WtmIjuQQQQAURghAmMIf8S1tw/Iowry6l3dhbhFXGUGGs6NfDYDcCOihAqampcvHTtk5enZD26S4tIi2VaumKWLovp5ttafE1mHGHWnmVnKft/OaZF4WmPzpxt6yj6vuxSrsFFfYfOi4qzOabOzp7qmYhOE8bmQv0f3NEYOqMBV8mpU0cGJtWP7xQk3xs6709R9Cb5xf9WFNfDo7NxWIR4xczfLe2+i2ozNfcuFtITJqtTWSNR02GYj5IiAogAInBbBMaUXkL983Wtf/ywMH7zNdnAQVNaWFhgV9UpFytgnScvvUUChuLcxx+fc5H2tvDe0s1mQ+0PJbU/lHHTYpY/mmxtyrno1A+4aa5Wg05LZ/MpoNaub3Tch25u1wxbLE0GM+Aw2RRA+oXwSG4+Doymbn9XrSr4SlXwHzzk3pTl62M0fy5rsBE6na3hePY3P3ms77df05uiQAkQAUQAERghAmNqPFYk8rep1H1zjr0MmBGR/sq6fpOX9it8cRCtS6UeLBOOycuavowMGo1FEBXj68iQyRcLGL1501JXTd20nO/mcxBPm4FKp1NoPf8NdROFKU7xhutloCunb9GZbBTQtyLWptNZ2CE8KGA3CbbO4jxT+MIIMfz4A4NrcMLEyqbympvcNPiyqbRNKQyaMc+bTaewo0LTp2Dy6ypSL/ne4TFMOjTDbOlsNVioDiMNZTkdgnkxcaE0GoVC47PF8exe93Jw5mComrpI3h1FC0qau2BKCNN9CnQFEUAEEIFRITCm/EtlXY3plw9uemkuYZEd3/ldsQX4znh47Uwxw9vbmwkkG55PNjSc3n1A2i2EalmVevaKP74w02BRnNvzxdVOAL/FfHhWqDeLy2EA429eStLXn/vX1zDeeP348bjHlv/xjYUmMw2zKKXf7jnUs2qU6i8RJJrlOPB8CnNQS9G4Acvf6ZnKM7Qc2nK91ozHrZs6PQzQoQMHEh//q9na2nD0wwYVoAXOm5z2GyZUGqte13Cy+Gq/VTkNJ8trn4h9/O8xJr2m4KOrl90v2Gn9TvrjLxKWbl/Aptjg+tgfP65tHdxvGGSnc0RL/bGvmItWTH18FQ3odY2Xrh8/Z3fh6dzENVH3CWnkZGR7R/FX5Y6PODVZBUex+NnrM5f6UCxagzK/6mjpEPOvQ9XU2ZLe30WpcxemyRrPXXWbAl1ABBABRGBUCNyZ87zgfuvtbbe2ow2N4wNnGruMHr79aUwOExi7PJsCxL05dIuniUelOVCmNyHAmLZ+y9zWL3d8W+PhA3CT/NBlRAARQAQ8JTCm/EuyUhZtp4sBWbfVtRi0nicnurQefzbitkR0YTQJSCQipfQoEsvRZIzyRgQQAdcExpxeuq4Gip0gBCq++WvFBKkqqiYigAjcZQRuunTkLrMXmYMIIAKIACKACNwJAkgv7wR1VCYigAggAojAWCOA9HKstRiyFxFABBABROBOEEB6eSeoozIRAUQAEUAExhoBpJdjrcWQvYgAIoAIIAJ3gsC40EvfGb9+7pGkvi157gRIt2XSVz+36L2FQ2104/ZWdAERQAQQAUTgriEwBr8nEc9ZnVh34FTf3jaMiPgIS93xO7M9ek9LUrgbt92zUjigYYmC/JWfdIxmW1MWPLlgazLZ6SE0uqqyxr2H63JvWiBP8u5a8O77shaPLfOOU3y8QZOzO/IfZeOig+VxxVFCRAARQAR6CYw5vfROWjSHUXq5XxPSJGGhXXWn4MnENAbcy8fFVj40Bs1iHLgJOI1Gs1kscI8YnEYjLAOu0Zg0m4G8NKxg0+x+/cfdML/I2I+epO/9c2EWzNRqI8Boe5Y2VfaVXx3QcAJ9H7gvfvsfma/vKM3uOwXURR04MYJoynDOiA5Q7Xq2veTDOCSWLmiiKEQAEZgwBMaQXjJjlj0yNyE0xBczBr2wZT4A2mtf//NoAwiKkACtbPpTmx7js5kcoDi39/1TNXYFZARNWfbgnBgBRmfS1Ne+/deBki4Qct8Ly1hVIGK62Hj5eLFg5ow4Zt2Bf3xxGUoMP27p8iXTA1k0Bt1Sk/XpvuwmMhf6kmfnrDEXP/NB001OaSbMdo11/N9iI/qdmIkLg7a/KEkVYkDbkXWwcFeB/ZAPJvdXaxIfSORwgEl2veYf+xtLTJRl62dlatq944SCxrrvOoT3JrOJy/nPHO6A+w7hweLNa6LTA+m4SZt7tnTXyY4+0bPZVI3KPXvMnK3T1mbWZR8z4IHizb+ITA1hcig2raJl797iQ80AcIUbH41KD+Zw6L7v/W8YNKHlwtVnjsF60dLvm7Ruuq+EQwFmQ/HFktcPq3oytz7066ZgafjGQuRZko2GAiKACExYAmNILw0Vxz6tkT2yZanmi51HG3r9P9+oCD6TJqv68h8H1DbBnPUvTIkPOlVTD2hBcx5/NKL06w/fqjdS/Of87rmF91wsOWmOCBOA0st7fjI89cx0iWLnrm9WbJkLN2sHIPmRx+eaT+19/ct2C2Pyo398aEFC7heFUKasTbL2YkJ/OxvlUaImc0+9/9P2ZpBw37Qdq8Kyr5dLbbRla9MeAOUv/VleReGu2zDt5Qe0j+/XQH2OBvLH31FtfXXS7GM/rf9Y8tFT4tSjHbmYYOOTsYIL1361Q0OIgrf/MWWj8vx26UAv2NyRW2FaFukrAI0qtS43u3BPkaYFMFc/OWPdfW1Znyi0GuWu95WShekfTZY/s7P/eKxFXivfk1ckVVg4cbE71sf+8tql3Y5DxHzVv0jCjr7M8XxXwQn7t4QqjgggAuObwBhzGsQRoUBWJe8nE4yIMGHX5aPfStXQGbQB+D+t3TXipz84l1F1tQ4IQ0JDgriYDdAwGmCHRfCqruY2WeCJJu3Xzhd3eQsEltYmNS1u4dI4dYFUzQoKCQkVMiyAgmEONpaig1d3HL2Nw0mgWS3SmkPN0GhbiVTZwmVL4BgtJ2BBnCXrhLwKupoGzX8uqQUJokR7iS3NGq3e0KIx1ctMRIdBS6cLqACPC87EFAfOaKAfTCgaj5VRU9PgcZTOoUtnA3QaB0YbNFlSTQv0cc2GrOtqnMsUOKcd8LusRJGrsMBOgapCUayhC/jdV+kx2kgdW9o05M3oIiKACCACE4DAGPIvYWv4R4RxZTn1/aYb7ZOXZV84xl8BHioRqmrqoC8kSEgKgskyFq/obkRrXUllEy1spr+itFwHhGFB5pqjchszKdy/ubQeRDwYC089iVm6LKY7eWvxNdnILSDSqk3d/qkVdP/AxX0xduIzC5ZZ7SXCIyTNJo79qEsTOXdK/kdAA2zAcT4zh0fncERbXwvstg+j4BW0wXrpzaUBgwn2F3ChcN19YakBMFuozRzcMPSEJS11TvTqNJ4v7FYATMClSruLATjbihvp0O1FARFABBCBCU5gTOklOyrCV1FTY+hrMwo5eSk/WdcdI4mSmOpyFQBQ/IUCc8U37x8oG9C+ISvgyqBzWuCdGMaV59YBSlSEuFX2vcE7QcBQnPv443Pq0XkcXAzmaoh2syZ756U9cFqxX32WuTFAqzFp1bLtr8KB3AHpBySnCxbEYVVnO7SA+atHUzKbrz7ztkplAwFzpn2W7iZfezQ+OXbrcvp/duYegE4whbf5rym9SkzoqATDwh3qbnQNEUAEEIEJQWBMjceKRP42lbr/TBo/KsK7qaau2+EUR4TRGqtkpG/WpdVi4ugoxzeZNO8goQ9sTn8ors11TQCPihApyLvEURKirkYNBy81FkFUjK+jyZl8saDvY05a6qqpm5bzsRF+HLQtWSX0ZSskqTwKjlECRLzM8KFW0hIljdk28bplAjiWi9NpknBhav9vVzCaJFK88fdJmXrZ3gsGQKF4swApsTaA8wS/TOf190RVGhPw9U4kB21hx4L8H87EOGaLCqaGPYiZYelcu59rD6YqTjVXlxrUG4F+QAQQlBiwPAAAIABJREFUAURgghIYU/6lsq7G9MsHN700l7DIju/8rtjCCAsTtlfVdCuoN1zLo7xeZRfPpvPfn4tY/cSWVLMFYEBXdfbrT5W2qAhe01UZAMFR4o6qU12AnxTGbDwFZ0Mt148fj3ts+R/fWGgy0zCLUvrtnkM9A5hUf4kg0SzHwW1NYQ5+vCzH9l7DV8dufjk2gA60ak3uycLs2sHJemJMql27SzesTnjvTTYHWFSK9u/2K6XwGxpAEWSmH5tp02q0lcVVW480Skn3W/fd0cbUhzIOzbVqlar/XGiUZfTlrJXW7E1N2vjaoo0GU/GJK1vPGbQF9pi/LNpoMlTmVX9Xxg3tTa7k/7egacMS7e5POI6RYfcmoiuIACKACIxnAl5xk6a6rJ+vn197W5vLSy4jh5V+WIkHFkfj+MCZxi7jgGFJlxbBSBrDm0kzeXwKNO7NoVuMXS6+4HRXwISID2j77LW2mn/EvFY0pkYjJkTboEoiAojAz0dgzL0BLdpOD8USQoTi57FYwuRElxaJ5eBnr8Vv4z/4Cb+t/WOMR52UwRmgGEQAEUAExgGBMTUeOw54j80qdBWJHn5WNDZtR1YjAogAIjAyBMacfzky1Ua5IAKIACKACCACwyKA9HJYuFBiRAARQAQQgQlKYGzoJVwfNEHbB1UbEUAEEAFE4O4gMDb08u5ghaxABBABRAARmLgEkF5O3LZHNUcEEAFEABHwnABaH9uPFeX/t3cmcE0d+QN/Ji8XOUgC4QoJMYRbQDzAoharaKViq21pt9Zedrfa3W27W9vdHrutbbfXv3V7blvbVXdba9fSrW3VRS0eVNGCIgJyiIAhEAKEJJCD3PE/LwG5Eg7FKvibjx+BmXm/mfnOvPd785t585Nlrs1J4lAo+uLtm/b2uUAZPc6enDhLJJOG8BmY2aBubJBrfZ9Ei0cv/+MC0/ZPD06oE81JyOfJzLumMvh+mvf/fOr7fgcUjhnVqC+Iv3XextD62zapvBwuOGohl5iRPl2Ysz4MebZxGPUHnj5bjM68uEYDacZbs+dUlX+09Rfpk0EQ2DPvXRdd88lXJb1HcNGDpFESgR/uMCobzjXqfPccb/aq+xbIGCR7w/53c90nblzpcOyn/cMXkX7jkuEz+EpNWTb7qRs4fA5WtPnAhjJfua5gfOqS5PusdY8VjOB/8ArWYEyiGfzHbg+bxqFydcon/9N2jT8HQV/261tXXf7Hr1cueXqNoK2/C5Qx9T5Gj8hYvWoOW9vSbsY4weJgrOizt/J9jQJ0/m00W7cXnXh79UNIrGRNVniamMkiu7RqTd6O01tqfXxw6TLnbjqaGyzd9Az3curNEoevu0M6X4y8ljqMncbSw2c2XJM3OSXpoXBecdWbHxgcLBJpWGfcY8NBpU1bO3XhQv8AAoBdU9W666WWJt9aZWzCe3NTktdOvydY9fEbzY3jLXpghaiy6EhMd9ijLNnRS+7KniN0tCjVDoZAuDTp8LtbC30e+q87sf39ipT7/pSpa/0llKWn3s9mF/ki+vruAQcuE94LbpXOj+UQR3HpjZUHyzccNPmCWbrnxL153KdenOk5cdJXERMmnsRcc3/MzZ4jpO12pUr7bYHqqM7Hk+ESWmXWfvClljktctO00V2Mx69Ovj9W/fHLiis8nr1V57rQlzidgTvMln5uTQgUVAbdNSQScx+qV+k5VK8/MJxOxyyDRfRkQPIxm5lwK4JhosWr5pj2/uOfpT2PVWTwHjC0kByKozcz5j7/tkThwHAGnWS2DLkFcSqO2RyDKo4iHTYUh+NUB+GCq1/A6bjDRyUH5BvyBz85YeODAtWh6me3alpdlIhoDkY4ILuSgcRZ/UBMVE35+s2aVowmDueGGn+5Z+WYGkb1Z2GaOvcD0ugaRyrcO6NWppp3PX+qRnGBHsIQi12aISNgTBUdmnlKxF3Jv45Uv/0X78oSpzMpDpOXA628DySSO3poHak4jkZpuERsl5eoUCUY0Xf8Pie8buc//l2lcQ/eAXeBj1spXBZmlRcOfXX0fp+6m4rqQ/V5Vw6FcYkxAaEb/jgt4vy5T945XarHQsL5Ed3moQwuUfjEuMxZvKdiY72LyWHefJN03WJH7ddt7Ver5o6qbWVfPTb78fW2l19v7fqFazG59SVbOn/50vREAQNDOsZY9vl7OyqQaZQuzVi5LEPKwXEKpi7N/fz7ir4pA1UmDtE27Op3pjselJS1MjNJyMAouK0uf9u/C1XuRwAem/PHuS3/k0uXZEQHMDBT6Rcbt9fa+FIxR3e6sU/gxccrXZiWtXJuopCN4zjJXLvr3S+KtITzzi6z4Nan/yxmoyeXoXrn1i+L3T5S3DWfI2MTDwtl4Y7N+cgrCzP1vl/HGtqDExLYivy9hoTM5GB70Wev721CTRLOzFqZEc2n0Bi47tTOf+VWuVsQF//B7wKPvnNkR/2FYccViXnXsjDs2IkNPyDfJig4tCd7VBc/WvLU7ZIEAQWdSV/0Y/X7BYQDTp+Bwsi6fdrqFC6fbG89r9yy49wRDZGXmjo9N0X72nn+urlcPg1rPXb6sR86bWRaCNNeWaauI7yFmauqzFUX5TI4OXfErJjGDSFOjTce2FH0fgXi6MRonNVrI7NkDJbTXFlwZkOep7a0+cvi1swNQO/+2uaWbduq89SYOHP2SxHGRoEggaT5+mfsxvmCEE3Dsx8p6pAYBufeuxNWJLBYmFVR0fDejuYq3wfj0ma9GJUqo/NCSPgj09c/iLnqWrY+39qJYZxV8Wsj2ndpAzMXsthUV3Nu9RfbCWSceeLbHgoSh0xxaU1nttfn5VnR+cXp78WJGs28NH/8dPMpLDBtOlX3ffXn283sAKqjTnmmCp1xjFnqDJ11vQCIeWfk4oVMFhXrqmrbu1FR2+pOCvFf9NjUWdNpVJtdeUT+3Ydarfu5zV049c61gaHUC7oq1fkBTt6Cwx9YSS54vnHImzgpKGn5XZnxfAqJQWfY1T9t/nS/202ej4GEC1Iyl6PxxsBpDPPZnVt3FHsmGHTJopUrM6R+6GwsZZmcgSsLkLcDesLKlbHtez/Krbro7sdzF/i6ldxtcztLyCecJfQGX/cpb/7v7+MXF5JSM5MjWFRHU95bnx5BM1dh9txXFuk/+FNFKXJhN36BlLYkJqWz/rHNcmLwYFhdjaqnn7iCdatisqYyqE5rXem5975V1Q1XMCk+I+6JxSFiBmbUaPK+PbOlxvMmwVn3TAI1T05dEJkWTKNa1VveKf8eDTB0K905bXUyB/WQzWwszTu9AflR8B244rDHFghimC6dSlts7/UCiFxMRArXpgfGsDCb0bjvJ8WOxp4qeounZN8ZO61VYw/jCOk4xWbYua/p4MB5pElv2lVluD2DLiRh7WGiTUtJn2xpdHtMIqUuTbzPVPfYEWQE9rvvHjFW3E5JDknjUzBb145v5Ae7MUl6/HpOZymFHcOhcMnWokL5lvrheGE0v+ybxMsj6EzMoaxXfXxII/e4PkSlOcq21NZ9FL/qBvXHxy9G+oYzjimTWF8ypLetywmr3rXl5Sq1GaPzeRRiHRGXZK/JkdTmvvMVOqZdkPHI77IXlFXslvcivegRrCeCP3PVurnWXV+8WYrMStF3/OGem2eU/auY0BmhMhFbyJNV5P3z5S8MGMufYiSeXXpVizlzwf0rsL0FJ2r6FmxwYcZDDye37/1qY7HKhOE8Pt2A7nDCeSfupzQUfvjml2Y8dtX6VYlSenGJhSFdvm4Fp/Cr97arbLj0tqfvy0z9+dMCi0Qmpjt27n6nFnslJ4Hx6Wef6H7z+yDk8BIPznjofmn19o/ebLSQgjIe/WPmDceq9hMm4E79mTqSsmt4ZYny8ZC3E3PRVx710290ccOfWyM2fluUU2ymhoU/99sZT5mObjjpvs+9BFLKipnrwlo2/O1EaTctbcWM537j1PxfQ5X7KUONleY0n17/UqcWHRBPcxGo7LoDZ7Cnbk9QfdeQV2Pup4bxrNUzVnOU779fekTt4oeyWGrPQ5RMlQWHfH7i3k1mVmzMxrVxd5UR3tDEC5OemmF8f+OBAzo8bcXs5x6WNv5fgxFDLl+sb71VlPL4jaujzjz0mmrNX2IywxR1zYTwFdjZZ/+iqiNx1qyb/fwK40M7On1NF6wnXzpzkspc/PG0wG9Of5XX72GOkfzmiZO3nv3n3SYLFU1z3FBkYb9az1VuLPvyqJ06PWzViwk3a07vKUYJDIHp3EdPGNZsFkV8WPrBAdETawWC7QrVkQ7DixF3rMIO/qBT9wMgfChmeXznfx6uOm+kxK9PzFlv+cfT7Z0YLf3Z6ITGuo9X6vQsdtZbsb+610ysU4pDbl/P0208veWg3W/e1DUvkhynezsnYnFYRH3zew1DBgBv7l3LBRUfvVmAnoc4O4iHtRP1J0apt4EUkH7fg6mq7z95s9aA+ac/9MelGdLi75DSCF50/72JLblvvVprwKUrH1+Trs5rtGD8tLmJ5lMflgz2jef7ViKqO9iu4/s+ZUgjhbyAWN6erzd+3+5g8FmEv1cUTCptbbVpnL0iYCRWmoyiOK70KMtesEhBMNc8kpR2vnTtZ9pWGmfNmhkv3W4eZiCxkuNeupn29UeHcpsxcUrc6w8mGTaeyiX8JSDft6ysLP77m4+93eaisnCqeyBQp0Wtiza+/bcTR4wYP4wbYR1OWWI07sNLAuxFZx+qsFBDwl5YScE8756CsGcWskrzzrzS7ORGRryyVNL55bl9SL6veIySIsL++k1NrZ0kmRP9ws2CswMXFCks5vJ4tk2lPN//TuiD0vsbiX7THPaWPTVbOl0UGrnHhS9S3lOZ7V+d3dKJMcNFb2SJb1bV7+seerEnhjxvYeRyTPnyP7VKkt/ty6PWz7M8WWC6qGBN2v8V2F9YHOx3vMWnCF+iLyd+8u6PFWZkJ+sPb99NKEsULB5HYEFzl6U6jm3P9/g00chbTBy2f99LQ59HMDdUPHZpZmj13p1IWaK/zAqFFvPns91JvEgZW124c1dxkwGloVNtPQPaUfv9h18cbw+68YEnn3k6J03oEc1LWzmPVPjVTkJZouDQaY3oIsJ5J6XpcG6BnLjW4bJjJj2hYkMzsmfaq0qUeHCESCSkY2iGgmbC6AU8wnCmsMrAYLPtDceOqRx8Hqu9vdWBhC+g15XIMYEoQiTkIJfPOKWnRarmTe+eOTriqflUJoWF2TWDH3BYyIzQBK1iWzFhfTK2NG876UhLFfDdzfcSSNxFybTSg3LCEu2yFuXJKwXhmVN7M5rV3+/vRM44MZdL23PvO45sL3qt2JV2d3ru39I2ZAnEHp9prJBFsY4D35470OKw2V2tCn1d77PC1qzYdpKojLa2rdLkF0J4NGNkzuIqChsOoImsy1F0RNUaHDwnhCjU1maqs1tbNUhCp9Zp1ZopaEaJeYTvU9WhOaVZ//VxHT8+OOESbwJtx9EfTMRWLpvD4n7IhS4KCq5rPXQUvd9jltOtR4tJSVmeweVSn7O6tNYum1V1zuHQ2sxUsh8Vc5xW/PP5Fn2C6Nc7Zv32VXGSzF0RKnv6PJr8h+bzSA3Y7DV5mu74wGhEXRaQJDOd3K7TEwAMxw+YBal8RIA+nSts7TjmLtR4tOV0vwc7HhXrp67p8mKzYnHYOC8iXsZHA8VhaFe7rRE+BhIjaenSoObiSjNfhAYYj+JwecYXIykzg3Vm916kRJEQdZvO1a6QazGmLD5M33Bm8Ir9MLeSu9Fuu06vpyH0aPV5n+IRUqG5an9ufk07sQJict9KROgsqX7jU4Xc88e4/U/GWQxMox8yEwoLmx+s+y5P24pSjPpth9TUFHGaZwB7KZs0PzXEVtrwfTNxAyhK6/6nDshMYVzMWFdcl9dGqCCb0dHz3tRp1rICFqUL4lmYtqWz1G2n8RUoYdwETL+v0oLqYmptO9i7khIdy+e2tP2nmZiCdZ5XF3czUyWEqz5f8ahuynptLdFWl7xKpwzgpvR4viWnZk3f8fvpW38VkWJq/ftBLZoADx+UVS1HO4kW2a3Oi+zsKu1R95WmFk2xhZ0i9n3jMbg3SZwHT2qVqO727n1VRt5Ubkz/7BdayvX2SP+oAeaU4es0HqmTdn4pmp7IlueXDXpWCBITBMqS0737DhjBPKZW3dFzww15ycWjk2Ox2s9re2cfghC+Q+exlzKkkmB1xec9M5/+PeHS1h7cXnuYLc184J5l2TOrNhUZ+PFJQvXpfw/OTCxeykvKeyoTKumxR4VOT+RZMfGNy8U9Ys0NlXU6LChJjCn2NWLUFKlAWYt0iNt5Zwl64CcJUQPmLFnek90przo3+Gk1/FCxme1GjMJG6mTgfcDnoO0NVo8pEEkgHGfGMvgkjFB7QwOZxmdaW/W9aVar1krhc3pXrsw2zVDLCVKrB6uLDp4NiQ5bc3vSxuDytf9SaznUAJK1yPPqPagUY89Ugoh2YsStQqKhIuKXzfu+dzMj1WWt9DgSdbofQJgTKV33Apo7IOEUZsJji7I8lSGT0A3NQs8Qry3qucbHD5fWZhg4L2XzcYfW3rsZ2mXQOqgyz6vLBYeNKMGFuWzoEirmovbUyFLVnvd8+z4+M+neqcveiqY+WnNSS2Hx8ejfz3z2kZ6CccxMZRHTcjbVf9HHszN6okkurR4t3zkDcJLxYk2c3f3mqRQ/1pRut9ljcGj6cfNObPmCXz27wFBx+Jvcwib0SuJjINFnJEdhdvWMrKwZPVJaKsrQ+KLKEiLNtZ/3rvQLhEFmeSFavBQLeSRt+eDuG+ZWcksdZNcZ5j4NjRNhdXurh51vDW7uZfztdBitWCgLacIBVnsqh8qyoxHeI9mmsxlpxFoDNkSxunNQ+CySsdHa2xV2rRFj8WhUrGcd1DBEH9vOn1v/kXn1EtnrNye0Vsi3fCsvIpYtvAcqg0w1m3tNp06d2WNPIAWxcKYkYtNver3z4ReUFDTWL/iKR9JN1t671Gy3YWQeahExoJzFecT6pffivcWaTEPvdgTnQs+eXZcDTRWZDN83Hp3CI9OXr0i+2SOcNAVzOpDVv1+wGx0mJm1gnLeajG/cZNWXeJCAb1YP+ZAjIJhn1qp7N1qzpqWIdRV9m1cHL15yBIGU9lO9OxBwWXIsoyG/hnge4jKpUK840Kt3h/aJy9BQUWdA+wPR/UMKCuPbdZp+a6Lu/MTi5SDnncQ+I1wg4BvKP/l0T+MAqcx07847saCZfHvtfz/MrRlaiVHHaDor9VFpycwtzQN2/Wl1hIJEszVke0OBz0Xq0+ZdWaJkp1lrovG5vQqSRuPT7H3qc7i6uFprm9/O4+feHhhFUhcZbRqMFoAmVP2e/D1XO5H+GxhcVuTmunRfwVNHLr70EBnEkT7K09s0dv2RdwhDrveA49jg/VXeM3qJ7dLacBkFuRp3m4hISH3ajMTa5IgBLXae3tQoTI2NjCedPGo3ah1VW0tyDw58PlGRUuw69HDVyYGjjq5xuFhUZPRw4yLT++3KdCDl6YfWQIdQQzHt5Xs2l/8YlJazbml2atXHBToSumO8DSRhEI/UWPDZ5pJB6EOFAry9tgcjLk2U0ZV7idVHEk4hUdAGOKz3vcHdet+3kjt58OKl7/uUFxnBVh5rGA1Vt+TLDS5jZaMra1pwyEHFxRdHJNPWaTZS+hQklUdlES+IvkqztxpdLP+LChKpT8x4/qL69H6V9nzz+5uaP+FwclbPeO5u872ftfXdECQcd/UNU5vZaWNQeCRMTowYEos2xa3cXZ3dDlN909q9XYOUuI94YnbMZKL/3dlZ6B0NqV7vdRsSO4VHn4KN+AELqiSGERuFSBQuHTOZvelUj2iLXefsLvqmZscQo1dv0RT0MmBy/qLGWKLiQ1o+SSIMBjtbEifyTNepbB7T3a4uvYERHIo6DakrUUbOAk5ZXgGxoc8T3C+5DX079Mw6g50XhiyiiBM//raVCZq9+WXuERQuE2GNDX1Xuq/nRUSHsnteQNgRc29OxSsKK4mnhsHQzRDFxRJykKpl81lEJmLx0iCv63kRp6PvNT32KAfyKcYWy0I9gqj80GDCAIxLJEFtdQ02TCAVYs3oKoYoMqhF3uhwGYxGSmiUrFe4UODvLsYdQkWP/SFxYWBfhI/fXJ3f5Wv4mSnPLeTLWCQqDZdN5cgYWGtZcyknfPUc9L0HxgoPXz0DL/q51ec7gqvzwElrysLINGTDodDmZ0sS1M35w3jAZnEWpfLjA3AWhcQXcHPm8rGWznPohterj9TQslZI5wtIVAopJIwbH+Cj2kS0Ob+4M2pBTJYYp5JILC4zLZbp02KMshtbD1TRspaLU7hu4cHc+VM9s1F3EaLsxze88ttM4TDlDZfUdqBDJQtbNI+YU/pND52X6jqT1zXMkz14YWBsPI3FIiEGoqUh0XyzEmkcm+HUUassRxQvw0lUEl3MiEylEYOhruN0nV862tfDJ6F4jowdGU9EW053KkMC07OIQlmpIUn9jFz2czXdglj/fgPCXXtWsJDlue9tZoPNbmhVEq9yvgaS0WDBhNIYzyoERhcIeZ57CnlZx/i8AKIKdMnSpSl8VT1avMSwtsYWR0TakhSBJxvaN0DcE75vJaJG7sVLeb9N6T7vU4ZUGoxyDtDF7kahXU8z4595JELS89e4/XAdya9XRES9dE94igDvG5Atqvxm3oplghCkX1jc1ZkhNnSzeJ9coqq40I2DpUhzxAgFSTxLdktIZ/6wn5nyxfy0MJx41TF2K3QODHX5xRahnYZ/fv35X6e7H2NEsLd0VmKcmxPoqC7MoKCbwnue6meqOtSi0PsiqUwSuiMpEjFTSJhjMV/xqG7C6KB5yCZEoqTODBSqO3t3+feW1P+n3tJOY6dGEFqWKw5ZiLYAjRQowbxsYtGFJIwNTqMZivtv7hp0rbnzkJyyMF0Q7YcqQ+JymSlBREF9YUoY+lC+qUs+8C2OIZq5KCMxaKSKXHq656l86ddfq1c6ag/vrFq98pG/pFusGI5pCz9/Nx+9/qgK9pbKch57eR7aQm+R//zfTwqIxTFG/G1rM2UMBpOPttvlrJeZ1cdy/4X0qLnqxwPJ9z+w/lk9eujpqvZu2VbqsanyJBFs1eCXXJYsM+e2WLrLYbHacczQcGrn1n3uyahLeTTvmPSOh59PNltcFMxQnPuPnbXE4iXWtFfZA1Dct5m+4eDOsvtzHnkhw2FFz0Bt1d7NuW3uxUt5vhFjJ0g4TceVGEkmDW1X7EGVVx7dUyDNefjPKWgmQ8FMdYe3b1b3WqG5rGgZr91/CtYxZMfHoI5THDm93h61bmHSByvQW7BD29q65aPKuk7V25tpj+ek5d5NsZn0pQdPve3e7ENNjNl0u4CKbKEU0uo/zbvLZT+yo+iTWqz0h5L375j2+F8X85GtEL0db+7Z7ON9kJBoCfPjHr+bwaKhj3HMikr5a9+o3MrY+v2XJaw7Y9b9KXIDg2Tr7MzbfqJK49MWpDhYugGPX/dIxlMcks1oris792rNMC+6jrxtp6g5MU89H0N8S6fTF+0vP3JRqTtQsDusPh973hvSF1vX8p+NU257KPnZZ9EnrIYzW6vzilG93c8oL4HkFxW0ZO1UHh8n2RxGhf7U62ePuWfyqk3V/10rzXx15t18zKa1Kg+eVxajfbbWn186iz8WsfqLKBbm6ibkn6tH+zoUrd9+yLjrwRnP/96lr2o7c9raN7duLGhpXCZcLG35pt+WH37CsrXZYgy9ltmpFIu8IHeXR1H5GEhdhXk/ynLueO7FW+0OCuZoO5b7mZJ46W8rLjqbmv3oC0ldBl1Dtc7UrkOLlyiYinfvjLgn+67HX7gLfXmCO7VFX7211+DwfiuFZtx3V7qAjpbkcUzwxyfn6Gv3btpdafZxn7rtOqF6xUGv72zMUF50HJlHweSj7L9BH1l66SF3lK1Z/uxHrnXLJBueS0CfJns2bFdpzF9uLWXfHb/pjeloCaDuVNWL3yAjK/Ey8tzjUQkUEouHU+++8csVLtXx0qf2m4wV1a9y4h59JGM1EzOij5u3lvds9vFRKjUoeM2KFDFSdGi9v7Hlk688t4Ynt8OMxqmNMF31BGvn5v1+jy2I2ToP06m1R89Z5nkS1K2v78fWpcdsyqJgdnt7m+YLlYlYEfQVj7lqGy1pyxPWcckmjW7LPnXv48lbLfWaL46x12UmbMMv6FrU+85099hOveX1xJmaDfaUqC3LqFSz6WA+sWkWhejUqHUxFAqNSqGxnrkvAL23ffGfpmKn82h+PXO+8LH7hEhRmvTm0pPnS/t9wsLkZWZQy7a0DVxvI0XMXLpUfKKmoMJ3JS4vZUrstFleJaAjzjUdI+4U6bt0TPnHlBmVMdb8F6uFM9l0zGw0DXzJp6OlOoPR2zuqNxQ4nU1xjNKPNJopsNGOG/Q2PdSQgdP9GbjVbBzd95Hea+6tfu44VEkkfCzOsX2KgoRJRIAUsXrmU0ntb/9l4CclaHSx0eqZwTBkMPoYSCQGi407TIPzIzm43eDli0zPgHQNuvXGciuhThjbfTqJeu3qNAV9T5KQdq7yr2WjfN8YWy3R9yR/47U8tKdzHKTjyY/N/jVP/vLLqoHr5AGLfvtEYu0/3s0f+hXv2CrrM/fIk2ifl06EBHSHD1aWqNqW0StLlNthGaWyRHldaKMs2og7VFm65XShcocxzw0A6r3mPpmjSoKy9Enn+k1wNW4r+2d90KPrw8L6DHpoLJoMOt1g5eem5GMgIc3X5SU/oUEHLyl7YLvlDHpPHdOthMSM7T69fjv5+mo5cb7PPcEt770xSFmi9yuxhKcoLrliyhJxnqz22OtrCEFrgYBPArayTSfKfKZCAhCYWATQ+T4lz3itsqV086ulXlPGLRL05bihBEFAAAgAgQlLwL77m9O7r1jt5ceqVl8x4b+Y4EmoYL/hAAAgAElEQVRuj/3FOEJBQAAIAAEgMLkJgL6c3P0LrQMCQAAIAIHxIQD6cnw4ghQgAASAABCY3ARAX07u/oXWAQEgAASAwPgQgP0+I3FEPuIlfLOqRuX+NBYXyKQBdnVdIzpz4xcIvNn354SXfr6TcEM2fPDpoZ4dJEVHeqIPThU1tSqvH7oMLxhSgQAQAAJAgCAA88sRxgErZeV99z+wQOJ5sQiae9fD9901N3SEizCkvZbGjsO7CO7Snq2Uj6gsUXUID/Uf7GqhOfp7qA9dsPbJdasypsdJYzJyfvc08gI2UsW9pFOiJK/M8Ry35yUVooAAEAAC1wmBcXimT1RSyBUzZvbytTXOwF1mwlUQEXCphGPQEedPEX9EZyTT9UaFvN9xz4SzeIdl4BHd1NiMBXzdFm8zUF8e6gnp7voMvEhdsrvAC19vhaJsQzzUq8tyPz3qcXjEn/vo0zND2Rg6bGxsgTQtnMUc60VjKwJyAwEgAAQmAIHJqy9JwqWPPczOfy230q2CZCufXIl9t3FnA/L/Ll20cvlcwik8jY2bK3Z/8nmJ29bKi12afXNqmB9OpzkaDmz+6ojSQZJIw/RqHW4nzvtnz0wX6jQOh8J93HNAyoo7lsYI0CnADBa5rfA/m/bWmjE8ImPV8mShUIBOifz1C3PQOdO1X3+0k/Ck7sNDPWPm/X+Qnt1tSMhOkyJnhO2Fm97a24SkC+euuX9eKIeOVeS+ub3qohL1WmjvMBvs5MHjaNOTypZJudras54TGEfriZ4SHrI+nT9VQOU6ojbFoiNoHUfza75oRhK9ulCnZN+ekHa+8q+eY6e5IW/ew9y3pf4gQjeMq/TeysNPIAAEgMA1TmDy6kt/mZjXVqboUTWhUhmjJZ84EB+PXZ6Tat6JnMITJ63zghkGt7JkJa96aIE9f9trX2gc9MT7n7hjUXzR5+UBsjCLssHBwZEYYUYyVqNgpOga3FrH0Fj0/bvftSEh7LmPPJcWJ9xbW4c5Ggs+/7Bh+bP303dvzK3omyv68lCPnN+KOFI8Ii/v3ZdUZjqPjfX4r1EWbnm9av7vH4+R97bAPZC8FtozxAZ7qCeiicXXYBYvImG6xJL/73xCE6MwWk/09ubWN75uX7g8KVt97smfB1qFfbhQ76nLgB8juEr3dgnEAQEgAASuOQKTdv2SLpWFDvIu6XEYROPQGYygmERkmyTcDLVpCa2Gx2YujdWVler8hMiJvICOHOhQKCSMJYmgNzcaSHaLlRE/T9ZSohdwGhuICRZyW6BVqe0sXpAAOdyiYLr2i6cWov01HEV/50SYLw/1yOGWTESWH/7v7nL3ThwLOtKzb4QwpJFC5LpogBdIn4UO9VBPCMLDEtPmpM+ZkyiwKs/K3S0lwvh4ovfqQr2v+hd/G9FVupdrIAoIAAEgcM0RmKzzS1wsFRoUBQO8S+5ye2w2Fe/cxshavPSRp5eqTuzM3VOB/JLj0hkxDIchemlWdE8PtVeeUlhwqZTfVN6GBTvs/ulp7NLddsl9yAklUjvMiLnZK9PCMJ1Oa7HzxaHakoZed9BMmVTQ1tDQb8WPnujdQz2yAEfK2IpjZQOd0vTUAE09keuin/r7sPFdKLpmkId6txRkVv6q4QDhsOyeZ3My66q+6jfl7Snm0n94d6F+Ud6U3t9GdpV+6XWAK4EAEAACvxiBSaovkXfJcFyVL/dwpMfNQI6gC3tngMa6gty6ApYs+/7VOZlnK3JrMXYwn95W8OmnBQO8eZNkc0O0ih8w+jwsbGai8fgmeuTvjfK9FoyddMfDaabtn75TgyZ/eOyq9WHmhl7HMsixc5ihLr+/oAAfHuoxBjKW+nB+S0w9Q0nKfM9clmjGcIWi5KGLl/3GEOFCx9CNfH5eSvDuf8KLJBcqhjqlV08yKFyP8WJkV+leZEEUEAACQOBaIzBJ7bEkDs8f+X8nAh6QsjwzFm+uIxYv6fxQt0d4FAgvXfb2FreeM+v1Dr4sOsCTwuCF8onvJ4LR4mVdg4lCoQqj+TVHqxliMdaCnOKSJDESTFVLWErRLp7srMQe4e6reaFC3KBFc9a+4MtDPXJ+K9QrPF52+2X3/MqTSHhtdYqLymrYQod6qOeJZIKeb0BwXvLKTGl7kccXMSF9TJ7oXWgeyRUwg0YeKc72TqdAwpMg/8gU+s0pXK5HdY7kKp0lS8+YG3vRWfwQEhABBIAAELgmCEzS+aVDXnnWvDLnhT8vNZvVFQ0as6KBcCKPh2fcc38qw6w32ygUrK3su+2F7omgpWLv3tgHsp94PdNqxykOdenOLd9ricVLxV41huO4veFwoYoal8lRlqAJn0vZIHdk3/Hck0vsKGtVq74F/d3bmzpFne7G5U88PdfsaCvY4t5568tDfbhMhDXu7ZtBukWQhBkPrpoZwHC7nA/63dMZhpqdn+6qcfgq1LuHekyUvmplIjIxmx2o9tqaws83F/W5Vh2bJ/rSU8rSLOHf14abzN0H95zbMdBFa/9RXFrcdHRp+N/WhdrM5tIT6tIwpjt1eFfpuDR9+QL63vLCmv6i4HcgAASAwLVGYErstFle6xQQGKjp6PCa5DVyTPnHlBkVN9b8nhoi5+90p3mwi2YSzmJzMId+iDNbZExks2ij9Q5NR/rM7sPvNM5gMdzz1/6kfHio9wrTV+RwhQ69BjWHSXgG9vKN6dDMVyuGFJG9fp3g6Gtbj/cuAF+tmkC5QAAIAIFhCUzS+aW7zUhVDNhc6gHhchi7tN6Z2AzGUS/WIffx3oUQBZuNQxMJD/U+rxhlwnCFDhUxluYMvfoXivGXhOHVP5cO5fULlQ/FAAEgAARGSWAy68tRIoBsV5OAruDT169m+VA2EAACQGCUBEbexTFKQZANCAABIAAEgMAkJgD6chJ3LjQNCAABIAAExo3AxNCXY9p5NG5sQBAQAAJAAAgAgV4CE0NfQn8BASAABIAAELi6BEBfXl3+UDoQAAJAAAhMDAKgL8e5n3hJS+6ePxUdcQMBCAABIAAEJhOBifM9Cdv4pz8p4k5IH/+BPn4f61Ek825J0BfsKe8c0KnkkLRbUrAT+4tanT46myy6IXt+BHJ+2S90nz+wq2TUH3D6EDxsND36xttnBKEsTofF2KE6V1FeqyHOhh0uTOEmL47rOnBc7qspw10MaUAACAABINBDYOLoSwPr//5P9LdX6t7ujFn700BFdcm9yYmMFujOnRqoLNEpsxKZyHp+f9swGsbZ9PPuHcUYRhamZyfZivadbEUnxjqdF7ArfQ6qU1edt7/SxOCKopNSbspgFhwqVQ9TT+SbJCiYhV32SQmXjBguBAJAAAhMEgITR18i4Ab2m9s4/1urzC6R7DZdfgeQg2VTmarS+u6BoqawIyMDOupP6i8MW8QFp5PQU57/7O4fvYHCnTZ/iVTApF4wtdWePlbZ7p500sMSZ6VEBrBw5HVTUV5UKjdirNibMgI69SxhIElV04CJokLpxtrDBbWoaDJv6qxZsSJ/OjqmCAkpqvII6SnC2d0pP33cybg5PUFSfbjeggfEpSVFBXEYOMlp1sjLSk42mTDUkNkpscE8fyqJsyw7BdVVW73/aD1ysckSJaVNE/OYFLLLrm+rPVFU23Fpvkv6NRp+BQJAAAhMbgITbP3SUBq0y6S744ZhZ1Sj7DGaMFrsbKgdbHIlB0dH0pqr5f08N49SYG82siCEqSj84dudO4+rmfFJcf5EAivmhnSRufzH3Tv++78ibcCsuQk8t/sOFsd2Jv9QjUOcEKQ+nHeyjS2ZykUHw4fMmpfEUh7/4ZudOw/Wk6NT00RDp9T2lhaNkx8gQIulDpO2ufrI/3bvyN19oJEcibQkEn7BUF/8057C812O1pN7du/8YfcPbmWJgtnYXl9yaOd/d+7YW94VkDAjsseVSW8L4CcQAAJAAAgMJjDB9CXmpJfWk2TR3bTBDRnz36ypkcGd9WcHHyVLkUSF2+W1w9liRyrKqTtf3mhCKt3WpmyzMplspNDYERFcfX1lE4q+YG8712zihIo5hCCn3qB3WoxGl0mrs7lMFhuZTsPIIWIRubn6bCeamDr18tpWcrA4aOgeIqfV5iRTqYTetbQ1tuqsqEy7rlGlpzFYQ3P3q7ZT1ypvNyHrMdatbNK4KH4eRyIjNQzSgQAQAALXMYEJZY9195PBRGYLLtt6SA6IlTFbTg+ZRaIVzUBN7YnL21FktZovDimPUXcKg0EnBybefGd8TwL5grnVzd7p8syVkXUXrYD2vL5Q/OhUWkD6reG9uUlYG3WoBiTTGVSHzYyKwLmRiXGRAiYZ2YenMDnY4BXZi9Xx/EIPjU2ODuXTyEhlUlgksnxQOvwJBIAAEAACgwlMPH3JZjpt3ZdbbWp4tMh5/rBykF0X2WKnUpSlQ7ToYGoj/N3fWbQn6wWz2epsq/rfgboB21lZAu+S7Ga7rVt+ZHdp28A11IFmU7pEFODsKO9wYoEpN8wSKA4cPt6BJqS8hGWZw+46ok2dc4PMeerQfjma7ZIl87KTvNcCYoEAEAACQKCPwESzx5ItKZGuyrN+1gGdyBDNXJSRSHxoMbrAjJQF6evrdYN29NCEceH2xrODVzRHJ3P4XIZGuYYXnRLJp5OnkKl+7OAQLtX3FU5VfdMF4bRpIWhzEIZTWAEhgax+uUlkKisoeva8FIG+ulKBVCSVQsZsFgvSxWSmJErYPy9mtdinsAP57tmpe8UUI1OoZKfZYkEvC1RBVKRg6Mqo75pBChAAAkDgeiVwuRO1X5gbO6V9OZP35vGBtklSxMylS8UnagoqRledgEgpU1XeMHhHDycyMlBX//OV+fbCePb4EXLKjHlZaQzMabXomit/avVtNXW0n/ypPGVG0tKV86iY3azX1Jxs7XA78yTz4rJz4pw2k16tPHmoUq4jpsgtNZVNNyQtu2OazapvqapvCgntA2E6X3Y2JG3+rXdfsJtV5Xt/Vti63THpt96JYjrqKus1CUNNvaMDCbmAABAAAtcPgSmx02Z5bW1AYOCYTjkfU/4xZe6rHtvwt1fkgt2xa/MHTokCFv32icTaf7yb3+a1KRAJBIAAEAACQOByCUyc+SVxvk+TsCDy8UHKEn3YKJbwFMUloCwvdzDA9UAACAABIOCTwISaX/psBSQAASAABIAAELiyBCbafp8rSwOkAwEgAASAABDwTgD0pXcuEAsEgAAQAAJAoD8B0JcwHoAAEAACQAAIjEwA9OXIjCAHEAACQAAIAAHQlzAGgAAQAAJAAAiMTGBC6UuSMPPRP2TLJs43MCPzhxxAAAgAASAwMQhMKH3Ji40ONqvbLvuw9cvrGn7G7LxnpLJecvEr5uX9NnTAEXSXJ/+XuJpr+OsbVZuyLH1uXsj2xb85u/tJbRycjvdLdACUAQSAwMQjMJH0JV0qEWjqGgwYTmXQh04ycZxO9RbriSPh+KC2klD+iddh41BjiuWJp+UppdLH8+h9x/A6KT9+Jt1Kbnl/jSFwHMoAEUAACACByUZgqIK5ZluIiyURFoN+we+elXIZdIZDsW/z1iNKorr+sZkrl6eJ2RiJ4mgpyP18LzoaFk9Y9dvZdgUzMVnQXrhPLr1xrohU8cXG7bU2DBekZC7PTA5m4DSG+ezOrTuKdYRHEWH23FcW6T/4U0XpAB8iY+BBis+Ie2JxiJiBGTWavG/PbKlxUMVRm3KopWbe/HD7kX1t/BvECbTOLR+W52kwjMG59+6EFQksFmZVVDS8t6O5yopR4xO+vBXLa/ZLE9NYfpiquOq1H7RuH5142rJpa1IDxCwSOlC28tjFeFL8wmlPzOeySBR+AE51uVqPlzz0ldaG0eYvi1szNyCEhmmbW7Ztq85T97Qk8uame6mBj3zTT1n2pFD++5lwyd+bHi2Mf+XMGJoNWYEAEAAC1wOBiTO/JAmlYgadaS7b9vqbr7685bhZnBRLuK1ixq749crQc9s3vvzCq3/7pIyRsXQO4agkVBrBxpQFmz4vMQvjA2s+/3BnA43NQ8bGgPT7HszAjn7y5usvv/rOLl3M0gypp6NNKm1tdZfuUpUlxkqOe+lmWv4nh7LWH1qfZ1/0YFKO210XNcxPtf3oi8WU2xYzD7xzdEur4JZkZAfFs1bPWEGRP/uXH7NeOF0UEPP8ih6PJdQwgayufO1rR+99+5wxNenxZE8fOVTnVVs+Krht/Y/3/ksdcFPMXR7nmGGSJ7Jo+R/9dO+LhzYcMRnLytcSyhITL0x6aoZ128YDWU8XvN/IXfewNN4jhmy54yZj/cGg04NcmXkYdPp/c9K5fJHh8t1xXw83D7QRCACB64rAxNGXPJnUv73w2921hP8Qh8OFOTq1yK2zaMHKBPXe3EIl4W3E0ahotbN5HAwLkooptT8X60hsNq4sOVpn4Qaxu5QtZkbS0qVBzcWVZr5IFCHiURwunNIzx+4sqX7jU4V8NN1PDYv84M1F379F/NuYwXSbdUnzU0NspQ3fN6O5qktRWvc/dUBmCgMl2IxGhR5TaLptrV2VVpe2085CbrpYIYtiHQf2qeqQSdSs//q4jh8fnODuDZtVe6DEbSjtbDtQi6UkB3jMxoqqtqI2B9KF2tq2Sj2N7/ZxSQ1mheg7K9FsFXOVnjdSBcwQQggjcxZXUdhwAMW7HEVHVK3BwXNCiPyYX3dcKKO02pdHEtLPtX7UqcY4X+luGRCAABAAAtchgQljjyUWL9UVuSpPH7GlIr66ss5BikiOZzTsr+h1zcUXBFJ0p7Vo0inlyksaHFi4JFRfna/DePESRnO+ipq4IAqzq2dkZc3o6eyWijK3TXdMwdaq2PCZXEVYcUkRmbOfC0C/UPgskrHRivSZO9i1RozFoxGqzuUiIlFmu9PtkssdONQACjPhsUVZnnkeGVlZrSyPlrI7bb2TP6PZReV7+ghPyYjKmcENoCBBFD6HXOoWY2vRt3KCU0JIVS2ktGiOsUXZitJJND6HFL9s3vdLekqjuqyVnjkj0+GPkfXoRcNHsOnJNqYDvXFAAAJAAAgAgf4EJoq+JBYvDYr8njU4ukwcom3YhXb+xPHYBlVr747Z4NQEgbKsSotLJEFtdQ02TCCNwBS71RgjKTKopbrREbCIR2os+GxzSa9au8TR4LJrNFYFoS8xltX9A7O3Gl0sf6QgzW7ZSH1ixvMX1eeQcvQ2jV1/5J3jW1oGJBH6lUZhId1mRr+R+ByKzUzMNamJMc9l075+pyi3xYWRuE+9PL1nr1Kb4r3DwRv/OC9TZze2Kd7eoSZUssuqNbpK9xU8dWTIXmIT3oU5OWwMI6akXgKV46SaaHovKRAFBIAAELiuCUwQeyyxeIk11fXOBMUysVXegBx4OfQGMzs0HD3+MYwtW3p7KnZ0V5GOWLw0yOuMGFsq4aga5GgSKA1tVzSYMaPBggmlMe78yBGYQMjr2yLLnRn/zCMRkksdDq6in1uxFGmOGL2CkMSzZLeEdOaXEkrPezC2HqiiZS0Xp3BJVAopJJg7f2rPoiGVJrhlIYdPwlhi8YpYZ1FZJ1LAVAaFZXcgLYiEy+ZK0ji9BlMSK3MG7cDnx9a+VbR+q7yoZwJrzi/ujFoQkyXGqSQSi8tMi2XyPfXo9qtWmePivK5eohyuOdHdNoVf/YB0hmjmooxEYlUYAhAAAkDguiUwQeaXaPGSrSxR9MyWQiUSvDnfPb2rKdhf89Dy5/680IyR9A0//XvL8UYHsXiJtexrx6gp0uC2BrkDC5WJbfISHVIHhXk/ynLueO7FW+0OCuZoO5b7mRJFuwMzlBcdR0ZbguSXtuXHWFH9Kifu0UcyVjMxo1qTt7U8V41Rxb6GliNv2ylqTsxTz8egLaxGnb5of/mR80Rmm0Z9jhXzwZtcPmatPFz+SRnRTmNZw7aUpMdfXPy41XzuZP13NZwIj2Cy02ik3Lt2UZb7T2NL85bNld+3YYqDpRvw+HWPZDzFIdmM5rqyc6/WmIgcTvp/C/y+WtgxfX+wly0/3K47Z03Z/y57gL2WFDFz6VLxiZqCCk+R8D8QAAJA4HokMCn8X+IMFs1uNA2xPfrqUBKDxcYdJoNl1Ff4kjTu8cT3JKtcb79QXeSx8o5QAJ61dt6KttPP7unUIiVPY9z2cPpdrSce+lY/nL0ZfX/5yrk5J6MeHPxJif2OJ8+us0fc8wG7o3+5AYt++0Ri7T/ezQeP3CN0ByQDASAwmQlMEHvs8F3gMI9BWSJRLrOx61pUlsO30ksqiRbKIxt0ZqN7Rkyl0SJYmLbT96KpR4Sd/t4bkvpZ8veXWPt9N+Jc/JuGh8hhj38yUFkiq7VYwlMUl4Cy9NIBEAUEgMB1RGCC2GOvox4ZS1Ndpu++Oy9bkfblYvdVduu50vK3Dvcd2uNTVif7L8/EDkwl//hZzI/eLrCUbn7VsxnXWyrEAQEgAASuEwKTwh57nfQVNBMIAAEgAASuHoFJYY+9evigZCAABIAAELhOCFwdfanpGLCh5DphDc0EAkAACACBiUvg6ujLicsLag4EgAAQAALXJwHQl9dnv0OrgQAQAAJAYGwEYH/s2HhdodzBs7PSyaU//Nzq69ydi+UGJt6UPpXDYGBNhbuPNY+Y/QrVF8QCASAABK47Aldxfkll3fja8leeDe85qG2c0PMTlq24QTLEHxUr5qY7F0azfBdCDk+981crF0XT3VnIorm3rbr7pjg/3xd48kXcsCSJO0KmUSTrGipLz2lGo/06Kg79sOt4fbcXofToG+/+VVYKcfg7BCAABIAAEBhnAldRX9qMP204VBiW/sfH+Mgt5fgEclj0VLKivmnQJ4hTAqIimS3nzve5B/FWnNNi5/ADiINZp3AD/Z3uc86HD+TgIO641N2mUcg1l3YM38Ua0qeG88x6sigCFObwvQapQAAIAIFLIXB17bE2496Nlamfzr1l367va/tVn5/26z8sMORu3FExthPr/CRxoab6H9sHTdSo4ZESTHGkeSSFZNKb/LmcKUodDZ3dqtc7PGeaU8IS05IlARwaCXOa2upPHytvR6fNkUMS5icJef5MhnPeSgmGXbDIT+SXthKNYIlS0pLFgXSSs1t9ruxkmds1J+YXvSSTW3/KJEqcyqOTnbrqwwW1+gsYJkhYkoYMrHSs6ejOPnus90KH62GmWOSvqTlljk0UB5ZqOpBkjBm3KDNYW+cMDOXQ6GRbe2VRSX2XEyOLF6yMNFab+OFcOo3s1NYX/VzbMTbQw1UE0oAAEAACk5LA1dWXCKn83OGKpOXLBbs3qvu0nFmnqGswacf6DOfJIjnqmiODZ5HMyCikRfPdKmTYYDN0+fEEVEwfGMDs6uzgeyZqdn2H4lRjUZveTg1JWTx/elzT/jId5mytPNxaEzn/1tiuo3vKO/vk8hMyZge0HNt3oNVOF81ckpZq3vdTrfuoc4wmTJBUHjmwW2dDZ9eRbZ76qCv3764Mnp2dPsBFs/dCh6k9SyTkaOWKZhMvaaZEgHW0u/OSKGFB5P0H8jscZF7STYvSotQ/1hC+usgBYczqvfuKbVPYcTctTE/S7Dk1KmvwMBWAJCAABIDA5CZwFe2xPWBtZyu6+DFBvP6czbX7P88tHKMfZzwkWkJuqlUOPmo8IFLKaa8+71FZw/amS9+h9+PxyRw+x9TReVF9G1UKpCzRlbY2ZZuFyvQboNkGSQyUiBnq2vJWNKd0Wprrm2wBotCLJltTU1UtUpaEKOsIi5VjKhRNJUUiTkezyuLUyFvJYeKg3io6u1rOu+eOTl1Ds94/VOhZkXVZWhStREUuGOrPaxghQt6UYclAIhAAAkDguidw1eeXGGYwWDEWFbmkvLwzDOgSmch8fv9gWyxFFC3GGo83DdaiXnvepe6wRAcGCHhYxxkbPdqThxIYPW2aKIBBxpwYiUknD3vwOJnlR0fT0JUrU3oKIGN6KvKx6TEF2y1u0+wowpgKJUzAEj6F43/znclo7kihWkWB5PY2t0a223ut0ISKptDRTiiiDjZnLxCn3eak0qnoxWkEDT6KWkMWIAAEgMDkJXAN6Es2m4bZbAM8Lo6d9xR2TCS37WwRYWzsH/zE0SGmhh81o5Ro6ejEpkmC/fT1XS6R+xqyMGX+NHrNgUPVaOVvSlDa8hv6zy6HqBin2WKxtZTvLFQOSRplFUYudKggjjic03Fm/89NhG6cEpCUmSQRkNvci6kUOtrx69bSDD8qZrf0bGKiMpD+d2tIMh0tbXaaR+U+bGjJEAMEgAAQuF4IXH17LDUm0b/rbHuv12YPeLo/n8ccgy4nh0RHUJW1bn3RP/CiIznttfWDVzR99q6zU2PkCYPNnv0y7mwUKtVlNxPmUwovMjKMMeBam9XO4AWw+hkz2xoUpqC4FBGbSsbINCYvNIgzhnb0Ch+20CG1Z4vC2bpmuc5kMqJ/RmVTKxYmFrj1OtlfFC1hoarQRXFiTpdK6fkQhUQPk0mIitGCEiIDzK1KYucRBCAABIAAEPBN4BKe5b6FXUqKJGpBorHwyX6bfdAulYjMR9aJT7z10WHt6ETSJdHh9vqDHgtk3yW4ME5Mlh8fsqI5jFCnpsOAcTTtNlePYnQ2V5eLZs7KXjnLYdI11tS2cv37Lne21FS23JCw7I5pNpu+4eihMlRfbeWhYmzOtIyV6XQ0nTNqz5dq2gfPevsk0CNvuDEhgEym0hnYrGXZTqeh/shPtXpfhdLE6QsTAlF2Pwp51pJbpztNDcUHlCFiTqe8+aKp19nS3E6eJQwm16AZZEerSTQ/K41FsXUpTxad69GLLn2LLmDuLdM4NMyoqjxWDpt9hhkTkAQEgAAQIAhcHX9eveyprKUbb7lRfujljer+C3vs9IfWz6j94MPC0ZpRoS+9EmDGLV4iUuTtPztw1RR9T3J7rC6f2OULAQgAASAABEZJ4CraY6msuRtumqsp+vtAZYlhuFDCayguAwIEgHwAAAPTSURBVGU5yj68tGywIfbSuMFVQAAIXK8ErqI91mYsfG5XoRfwjprtf0emRAhAAAgAASAABK4ZAlfXHnvNYICKAAEgAASAABAYlsBVtMcOWy9IBAJAAAgAASBwLREYN32p6bi84wauJShQFyAABIAAEAACgwiMm74EskAACAABIAAEJjEB0JeTuHOhaUAACAABIDBuBEBfjhtKEAQEgAAQAAKTmMD46UtKxgs3fvLZ7EdXsMfFg/IkZg5NAwJAAAgAgYlHgBwYFOa11n5+fuZuz2GjXtOHRLoaCxoPdnDvXBfYvaetcfBBrkOyQwQQAAJAAAgAgQlEYPzml0SjuxtM3RiO/GBAAAJAAAgAASAwqQiMr76cVGigMUAACAABIAAELhIYZ31pNKvtzOTF/v4wxYRBBgSAABAAApOJwPitX7qp2E01LYzFD8bdvTqEXdpcBkcYTKaxAm0BAkAACFzPBMb5vHVm0AOPB3XuPPH6d11dtuuZK7QdCAABIAAEJheBcbbHshgCiqnsR1CWk2uUQGuAABAAAkBgnPUlAAUCQAAIAAEgMCkJjKu+nOIvZXIxRzdYYiflWIFGAQEgAASuZwLjt36JzveZc2dw9+mtZ4+Zrmei0HYgAASAABCYjATGzV/0ZIQDbQICQAAIAAEg0ENgXO2xQBUIAAEgAASAwCQlAPpyknYsNAsIAAEgAATGlYBPfanpgMMGxpU0CAMCQAAIAIGJTMCnvpzIjYK6AwEgAASAABAYZwKgL8cZKIgDAkAACACBSUkA9OWk7FZoFBAAAkAACIwzgeH05ZwHqoo/q9r6QFf4OBcK4oAAEAACQAAITDACw+nLn/8dP/+VQHqm8qHoCdYqqC4QAAJAAAgAgfElMJy+RCVZVYxmu5NGH99CQRoQAAJAAAgAgQlGYAR9OcFaA9UFAkAACAABIHBlCIykL10Utc4x/YauOOaVKR+kAgEgAASAABCYCARG0pdO+nsfCdUp9d/+69TWJc6J0CKoIxAAAkAACACB8Scwkn8SsmXdOqWgNPL27f7VhvEvHiQCASAABIAAEJgQBEaaX5Ls4QH46eOgLCdEb0IlgQAQAAJA4EoRGElfXqlyQS4QAAJAAAgAgYlEYAR9SQs1h1PIVstEahLUFQgAASAABIDAuBMYbv1yzgM1b6VhVXmirbXjXi4IBAJAAAgAASAwkQhMiZ02ayLVF+oKBIAAEAACQOBqEBjBHns1qgRlAgEgAASAABC45giAvrzmugQqBASAABAAAtcgAZ/rlzgFDo29BvsLqgQEgAAQAAJXh8D/AwAf6KRpbODXAAAAAElFTkSuQmCC;" vertex="1" parent="1">
          <mxGeometry x="50" y="180" width="454.07" height="320" as="geometry" />
        </mxCell>
        <mxCell id="hXhVtGYEjcbIQ-P3suZ7-4" value="" style="shape=image;verticalLabelPosition=bottom;labelBackgroundColor=default;verticalAlign=top;aspect=fixed;imageAspect=0;image=data:image/png,iVBORw0KGgoAAAANSUhEUgAAAa4AAAF+CAIAAABVqWniAAAAA3NCSVQICAjb4U/gAAAgAElEQVR4Xux9DVxUVfr/9TL3XuaFYRgYYHgZ3t8RBV8wBU3R1NRyNWMre1H/pbXJVrJbaRZmlvmy7mLtav3SrSyX3EzTVi3RDFQGxRHkTeR1eJmBgWEY5oW5dxj/587wKjOINCnkOZ8+OZx7znOe8z3nfs9znnPvc8eER09EYIIIQAQgAvc3Auj93X3Ye4gARAAiQCMAqRDOA4gARAAiAKkQzgGIAEQAIoAgDm7uXoPjEDF29wZP+ZlGuWnwcr+/q6jzzC1TQuQ1lYq73zc84LHxf/h/kQlz/aOEupKr2k4EcV804fHnwhOWBPAbqsvld1+lEd0iY9LYVc9z67KU2pu30XP4MKJOiZumRbZJy2W3a+M2KsDLIxGB22+Qa6QZGTVl1N1Unlj4l8kLnYfeItd36cdzFk9nDL3GSC/p5f3AdIeiHWc/eu3clwebDGZ1m47l7X/rSlHrkHVH2VPfGBuMDSjv4rs4xZc9IHt4GdykCS++OnxpgMKSH7WDLsZyadYxmXIIy/Udwzg8XAbUstnT39/sHdD3UZFxeyrUtWXntGnvZmdY/DA/hztpUG8wUMYOtfFO6ozssi5Mtl4jow1xk9FChMPQ15kvdLcyvoxQvvCO4B2kadRpXAKn6lz9cOcHKgx1to8urW2lV7QjeAbY7unvb/YOMmFG8KVBLSmX5A3jZwmZPKR+66v5ErNhiCVO/NsEQyHbLc5ZfeqkLirJ24eq3bnlepkw/G8vM8UFjLhgFssZVeUV7z7Q2GTuOCYSrXk6OFaEIzpdUWbhnuNK843juHDD1IBfCpsmRMzyIzBKdXhX7nEZMXn5uKUxPG8WIypt1iIEIRtqdm6vqDbLsZ06jQYd1aHrLeC+ZOoC16Zygu/rirMd9KVHrmVdIenLXp5zkgP9fZkEatLKG3O/KC5qsNRiCOdFTE9wE7gwEINedjb/22Pt/dpzdZ/35wh2zpWj/2s3IgzfRVGJ8Xw+B0UofV126YmjSjNfoe5JUbNnODNQjOvKYJhMbRck+79SIgjuuyhiZgKfSyDaWlnWF6XlPTtulD35r5PH1eaDYl23cYDf4mQh14XN5iDz3uODTNnRCyfFNq0d/qNTn/Sq3PMvOV0d7OjfjSP+e/ZkATN8eWRcKNedibpvSkgEl2qqvtlbr+W6JT4XHOzLJgj+k+/7gSrqbMm3/6OHg+HjOfPJ4GAvAjFoa8+W/HSyzcLAvs8kTG0uLXQPnBzBdESo0oM5Z6/2KsMY7x+O1B+15PgFP5OMV+l44b7G0pONzlN9hURb1j+ulbYg7LjQOQuEQleGg8moLKk8/UUtMHQZEQELHxUKvJhs48QV8Z2A88u/yskqoXG0rgzqNHVDlMMP1YyZgcGeQM/mrJ3XSoGNjLnNfCM82IVga2q+Titv6tbOaqP9xnRIf6DCeWPnJLlxEYPimrwN+CksycZEYsSPez5OebyKn5jAcyYQZfbVjKNtg/SUFjZg9nY1EfyH1570y9v793ONQ1IUFvqVCAxKha0ZW85mRIzd+0I/28LFCzm/IbvoT7PWPHD9tQ3imVsmzQwuKwP3k5tHqCLrrQNaiuW6Om3C6lnnNp8xICyPNa+Gsk+K125pJ908V7468TVd9uYzFtpyjF/k/Z+Pzq+WGhEWhtF5htwDublugZu3eIjTLh5vG2LnTOq8r4qR2n6lnaOcdVtzv5YjRER48vNRyioJvbVs1Vadu3bhWrsWYY5bPWX6oubre5sAI3CTxi2eacr9d8635QYHHtsZ6bZyLPcVzYOhjlmXj/5ksTuMbZWyrEtFtXIjERGa/GLohLycC3WAZ/1mL8CLPsjOV6C+T0yZxyn/kuZBIHzswjjtyW1nq1oZvksmLnwhQPlBVddWzkQpK5W1CkOvOVNVc2RrDRIV+fxTppNvldba5MBBoTHpS7/IKwXc9Cr7wjv55T3eDXVzVnrzlTmTV8TIvt5Z22vKEfzENWHc7CufbmtHPL3nvTp+ZtP5k1csSjkIZgbyv7q6/98kgjEIpK9CeNQMN2X2+R72QbyY6k0Xjs6c+uQc9rebLpSvnBE1Hi/NJA1NysKM6uPlpNHZfd5fxiYmNH6bSRpLqo6U1IS/OHNyw+UvjvYxKwdRBmVHL+Cf/TTnLLCXOQyGxgwC1Xx2c3bWpHFrHu6HidVGB0XNykVGROi8h4ii3WdzqxB+0rjkB5AqSykbEwlcdIgInFB39du3wVqCEgQNl82eWkRZm730lfbG2mpK0WeBt6IfzLIfAlY2ULcVrmiro4xNzWRrTVsTYlCpMI7zGLoS1Zqbo6VvO53ybB4ZFuMGfEBYjE8s1XD4FCAfMGfl3/2iCZsudO9uoimv4jjgQboK9Wu8kUZlkVKp76e4sUZeaD5bMFyvr9LwQ8LNPdW3l19pp3Wk9KUFKgdnJovOZYZP4SnPluaV6I2UyaBob1L03PCdRpYnzYNnJce7eJCuoC5qAjxoFt5YqybYfDoT8eQ4t7XJWsAvk6xSS7izuXSbzPBJPGV2ZRXINxlrz8mUHh7BnubydCLLv8k/eXa4+8seMb/uByPCOxxrzM0EBi9ilNcXlaABE3i9i2Sl9OJVs01NGQ19RylANM6zOf+C+ZIlabRNbUhbs94ob2symNpUFMGhXZXGuubyMtIIQG1tKq8ysV2I3ioDfg2ujDKnvNRygKcx9q4fA4TcaaPWBNB5grFu7BvSK1VAdZPyl9qqnjlmfSKZxegVecCmpmuYDP3npI1WrMxeumTjhUNfHC/uvzmxIQFm2wGBQa1CW/JN5hviJkWB/ULfw7RObdcadlMF6IZN0FToTOC6VlW3pFawVrIIQIXmvbNJq+pzH9lqbZj5HZ1duxmTUadDvDigpyRD4Ba3yC8AuMooxIHDZuhoqw1BcTbbBO5dKw2hWPBjEQRmyJf3MdwQhnBm8IQ4HhczdSIMLhetttRsUCudPXw90aYG1DfMyVBfrwb3AxDORYWLpr04r0u8g8nQMBgVWNHit85ycMEJjvvC94VdDWEocp0BXHgWrjFoSWukgwbM9EYuXSnve7eb6CWkE/yP6gbfLJEd5Td1poeAQ18iBCgiHqxDgyujHbJH+I4ataWQIwfr7X4nBea35YjH+kSySNGRhp59tC25MH/kITAsKrTVDZwHjn2bwdUx7jzgFzMAY4ds05Msx27uQ1yAA0WnsvgQbUmxU74TAQiHvodRnMtBDBrwkzluxbjweknGB0qwaLNnTlgRb2nLqNWi7q40Vw5sW3Y46xckKvm5scpdkiKzmcmICV24iMjdkZvfYKLdc++N7wJRXnv2rMfjqVOjWo0Gee3Jg8106yZSqzXVnsz69hdrfDKwvTvOMSE95w4OBGG2cu80dbaRhtbaI2+XyXqs4duKcPGOi9Dkgw31bRPHc84q/46Mi1+LAbxo8OoZUwetMhxlBgq8w0Z7BYBlgOpFoUNDEa44GF968Bwwx641zNZEGqgHzBk1CAxng2yrcxhv1jwBD1iCQp+FE7DCvGZ6U1xQJ0a8F87l0haimzA5iXP9ouw2VKgDHMoMsPIUiK2GreUzfISTY3Bw73ET/INZyhulgLZQgokY1QbabHHhx8V37wFN2vK8dsHMiHGhOANFGS5soR+oaEkmwKFq8bWjF7Dpz4f6Ms2ZTIygjFoNbfLxgXDnbgxRdlgcXvTvnK+35mZ8VlNr8WQh+tIcFX9maLgfo0t4BLuPUYgHPx47L2n4T5No5fpOX48wYGqhDOEc3wCLhhbdNQYDCvpiVq/POBvUBsTVyZ1jLmTONxbVl5qEUxfQBzsIweAGuAkFFhE2/+8+05tfVlvac/5jsyAYdoxgdBrM1hwR7DsuuO/qa9JqjWxfHruPesNQxkrjgzVqpXhXVnDoM3+f+WSfh3sU15q1IaK4AKAzyn/A278LNBsTybZgegc0oKeDFQfXGE4urk52NVVu0+B9fnkQqHmJ499exANzCth6a7a4kJT21EeXTg2Cl665kPLf/NEEF4ysyrq6O8u849Qp9n1UuvLpibuX4LhOV5iVt/vU7TzBOtl/DgtTViQdWNHZWl62+e81t6FOqyoZypWG6RNfXMl00KnyD1wzP46nzT9W7/vY5DUzTdom5ZXsemW3faL88epRLCLxucSZLqhRr5edzv+2pq+FaGo6evWs++R5q7QZ/6xXX628GDd2zrtJcwz6pkuVV0qcLK5CxMGk02CJL84cZ1bI0FB/9tPiUjmizsw/jkVMX504zxk1avSKq+XHS7Rdu3EU4wfyfAFXILd7EITjPufVYCGGsl0YDk8kPLPEpL6Qf+Sk1nCl/JeIsVM3zJwJnJyXqvLLOdweOFpkFzLdZ780c1ynUVtU8vW/u1wAxiuVWXFj572fhOgNspN5R87qEYMy658lDzwe/tR2QNNGbaPyytfNskFojnAbNxEt3WfVpzBgNFrNajw/80WgRqU0N7ttcp9HHWt/vF61KmzF30INOnX+3rzcGgDcnSnDnxO7MJHpQDAZHP6CNPdOqj0XHFvbatQGjF1KUxRwFnf28ZQYS8pO/jh2ztoZkxGjslBaXsOnlzGTzYk0oPO9GVZ6Okhp8ITFhCdTZrcf/PDrst9oOzFo6/fhxTH2ikwjCv/bBvbhl/Oyf83xh70GADxM87hH+Z5/0afDdysxwl+cFtd49dtjbfTZAsGMen7KBPnlL/47hC3k3VIRtjOKEAh89M1ljO92flt6F+fwKILH/qrac4Nsf+1GkUSU4PJRQ6u+64yVwJ05iLbV2lHMKOoUVPWeIcD39TLm50IevHsDMMgG+e4p8XtoCWyaDle7L5n8/Bzaxc4wkrK8az+dtXIO83voLOzDb46A8ty/tv/mjcAG+iBgtw0yRBUiABGACIxeBOAGefSOHdQcIgARsBsCkArtBiUUBBGACIxeBCAVjt6xg5pDBCACdkMAUqHdoISCIAIQgdGLAKTC0Tt2UHOIAETAbghAKrQblFAQRAAiMHoRgFQ4escOag4RgAjYDQFIhXaDEgqCCEAERi8CkApH79hBzSECEAG7IQCp0G5QQkEQAYjA6EUAUuHoHTuoOUQAImA3BCAV2g1KKAgiABEYvQhAKhy9Ywc1hwhABOyGAKRCu0EJBUEEIAKjFwFIhaN37KDmEAGIgN0QgFRoNyihIIgARGD0IgCpcPSOHdQcIgARsBsCkArtBiUUBBGACIxeBCAVjt6xg5pDBCACdkMAUqHdoISCIAIQgdGLAKTC0Tt2UHOIAETAbghAKrQblFAQRAAiMHoRGA4VBoVs3jZ7394F+17wwEZvz6HmLJ+NexOThaMFCJS5bHXCoa1zMtPjHmXeXaVdRbu3xj/lYaNRgf/eXZOWcWxchdmjBIHhUGHFjY1/zfxblu7udZE/Y9KJNwKDu5WNXJxw4iXhfTj3MOG6DSH+dw93my0RiY+M3/9eUmb63BPbH9yfEpLYMxgoe81fY+YPfYnkiXa8LPK02VCfCyb9ob3Zy3ZVlHcOpfSdlBGF7H8vKrH/rZD4zIN7F7C7pLQqvjlyI0t5JzKHXJYzMWb3I90NDalW55wnK49/mv/T6nZiSOVhoSEhwBhSKVhoRCCARbj5s8h7rwp/ckTqZOTA/uwTdZ0cV06UD1qj6daK6xolQGuGrCMnlB+C/jYcM2QdEIWmhenjyUKQnl4gDD7XoaVU3yXDpM/K6f49dLFDKolGhfA42iEV7Srk3fziQvKX9WO3VQ/HjrmTlu6vsoNTITsicOUS/1gRk41QTdLK3VvKy2zCg4bOHfd0kpu3swNOGa7nlOw9IG8yF8ZEfmtWBsUKcRwxtUobvvyoMLcNZI/xnhK9ZonQ2xnFKbK+4Eb6J7X1NoXbvsAP9U9d4h8lwBC9WvxTSfo5tQbjr38rCClGosaxlefLi/x8k3wcxBk5O/KNCEIkLohYOc3Vk0CUdQ0HDpScUAAFhe9v9VGeNviNY/M5GFlTnf6FVGIATTLiF0SvnOwq4qAIpS+6UPz+90rLXcsPD0xd4uOHIRxXJrhI1lWu33ZDYkJEsWEpj/hEcRFS1XriSNGea7QUmwkLnRu1ap67N2uMViY/vO/aKakJwbjJG6bElYjfymijEEZ08rTXguve3VZRjfCT/xQR7+fs7tz55i5vIFKVc/X1DLM2bp4rV4QnBDviVEfhmeI9h5tUCMKb+8DfIlpPUa7xXhjGGtOUU7Q7g85HEFbC8vFPT+FilL4sC/S9O7H4S16InhvMYmM3tW2qM/vzMkoAWjYSx5XA5fWZFQZAHZoGlbzBXA5lPvpk9OIQroiJit6ZvhJByJrKdZ/WyREzLPOFIa4YbqLkpZXpB8zwcgUpzwTH+3A4hOvu9/yBAPn5vLUnaFbAfYSpySHxXgRu0Ih/Lkn/UTUoWVobUyCFJ0hZHpbkx8RRk6al9cjBK19VmfUcmF+jl2sIoQB0BhWJOIhCLTUQQg4lV5nAhHn0uUnLQ5l8jnrfJvFXLWYJIGHsR5+IWT6Og+s1klwzsJYEhD8TFu+C4lwmn0BIjfLArktfNSIIk/tUctTiKA4HMUivVf4jo67YgHDCA9Me8QoRMjnGSYcmm5BOKuvgxfTSXmFWfxGOJqdOvKIe8qBVeIafORgVuvm/9qdA5KTkjV3KVoQZ4IZYppKNxkxNUtnhj4oKpSQuCnljQ/Qf8hr3ltwE83pWcoRPwfnVae0URvgHEyqaB8Fc8vjjcre6T85uLKAQFjta2DkcHkR4PutXijSHxcty9biXz/qX4lK12Wn5QDqXU3FuxbWwr9b4F+24sDZ4wt7JrnvyG/mzYlLjNOk7MzNbGfGLJ61fFVizrbKY1oYf63pp7ValEjikXp6a+oh6xSEViRhlVbJ9lwsljUZOeNjO1WGPX7m4pw7c87zlT4iQH7KfyjXyJ8bsXUS9b+ZB0O1NT/LEn51bX2rkx0btfCamZeulQz03z62w8abErJtnyth2+owM9V846e2XI+s3FBZS6oy9ZaEbxj9dcD4Di1g9RZ+xpaKaAnWVGX8/fzhx4v557R9suF7dK4yb/GpMWMHl17Yrtc4eazaMX6v6ZfOZDnCdHSN0//j8a3kk4ibamBa1pECxr+Sm+6yxK2N0+9IuZjfjsSumvIGZLGub97yohZj0jVermyjUPciZJbPNg0C0NL+xfEbg+keofT83Fqu7dTHpjx64dAJsNv/MPrDp6gla6a4kVygz/1udVm4guR7rU2NWTmtce8aAqBXpHylEs+P3jpWt3SUFjNmVCH7K82H881ee2qkmPXzS/jw+RZGdJrGpkMjqmJqQ+LkRifrrq19vlCOoKICLW/gasZZv0teoiFgBiqhFf3k1BPnhl7XnCD5Hf4Neyg1H/519lCvavamfTzXyoZg1Psq0TRfFeub8ZyalOuhP09qjSYuj4hUFq9OVGlefHW/4FqebeRBhzF8etxi5/uZbsnKUu3LNpA2LNSsyVJrSytTS6vmrkx6XXVrx/R1Zhj1gwR92Q2CQtcV7im+YrHLv8ZYm3U1KpyuT6vrMbisKqErkEikJymilDRIZw8VtjLmQsamZFMQEzI1hsylDdYm6awmldE1teFiiaLIIQ3Tawgr67h0s4V5Buz9MOrqd/m/nDDZuLusZJ4xSSg/k6sGuUdNQd+CyMX6ygE9f0ZU3GMkWrVKnviEzKdUGhElwEObsiTzp+cpMQE8mozhLJvfwmGJxU3XqJZfNFp9JfyK3lR8usPglpcWN4kYjEK4sayxSE3wXc6ssjoirL6qgb05luUrO5YjA3gpBouKF/PLqA6V0eXl+rVjDi4+0vdJg8YkCbVb5GRmwPIzVZ2rLnN0nB5sRk1XvzdDGr5j89gpBdUb+qWZzm7ZSkE+Cc8uxw0qAKtXWdCqPDJvgbnE8UTLZMcCDIDUry5oJdzcHwPjRE1xUeZXZzWCJMkhO1plJlk7aBh3iJVw4he+OmZoqWqtv4wduqH4z/Xq5h/+md5L2vxT2aIDtbpqlk3WKE2UGjQkYy41ZVSY+j7AMX1fj/f/Bw30SscZDZ9XA5CQb606UOsTGudgub3NMZS16XOS9eCLX08EkrVCVdxvo1vIN8pZOV1fCM5KPFyvwUAGfYPFRg9ImOzGnRHHKc6vFYBmg9Jk/N8q73JeEnydWU6Wi99mt6vJWlsjDfH9xPJPCjZmnZLQOevU3F1v5kR5Rg9x5VnGxZLIN0xPUAhVRD6YNTHZFwPYkHuPCw0iVrnWozTH8E0OWTgf3EkICy0KIViFgsMGAmST7L/xtbvAfkqf9cUV71rGiA2fU5imm/nJbTtO8kKWvBq9qazyWUXy8ZFAvGCmXpn1aTRMHgvrNnrTelZbB5xKIxtBjUNCUF84EkxgxmRDLXW7spKWCmQqIACX4XDRyQcLRh7r6hJsMRV2eZ5Om++4n9UaSibuC8iZG7IyQZXE8Vwy0igHnkcRST6eWqoKjwgn8vIEfzvdUqaV0XRTc4Zzw6K+2RltK4ZipnAmOD2yYMwSP5+A994F9syylx+BIp9jMqCA15VSIF02dqyv/V86gO2yglYBwYXms3PUQ2I+aE4rIGIAK6U7ryO4u3QRYYAjgWYzHRrWqbpltZI9vTJUj2UgFLJk3bmsyUpVVuu+wrH7wdU/T0Ljn08Y9THbSrLA1L01w3SXe1212dWnS5x/PSP+VD3r4gaOVToQDjK/cgUV6czgARo7H+s1eXVkYipcxABVanx22x1R6Ou9NddDjD8btX2KUXLi+57gC+B9AspovU+g5PE68D+tGTjGyWJTopXVSa2psnc+gGIeJtKu7ECI1tKPAnAw3GqikUFd+jkIj4EdxNTkN5ia5uCvGjlqbNN8i0AH4WwwceoJ1VRviP8T0SvFaJaFy3vMPYY4t3YYoCxYbgIBtKrzZqqNwP0dgCFlcfgOq9s8IClm3nJ+9LXdnBZghTslbpgX0Xu8oPFVYeKrYPSZk7QsTl8vOmjfOCNLWdirj8qkMHDgZ1/1prOqvedmDGSMmqqXFYJnNHEPXJFK20twHDLtyc2OAjBANqbQ1w0wGpcYkOXUuNas/PdHHnQy+c5e+HC6B61UtnQg+Nmz9QuKbXeJDYEKjvNR3x3fZJib1vkONe1cl7J+h02jU3+ynd8dgXgMi1hSWLPtMYf2m7RLf/Q+pUnVW551//fBA0wMNXRSdoKvPxUSrFtZvPN7ry++i9z6SqDZDq0725auS3P7Mxbulta4/Ka3WxAYgIWY2ZGF9jC1TfV7F7rwKTOi58uXx6yjNa4fbrcvol6vXZv5Q4heVEBnCQBpskD5HmLLCnzx0cW2ugQRbyOdndtO2dfkaAGOrNG3TdTOqt0u2xpSuZyrOvZGWe4MDPI/Pj/+L5hd6V24jXwqoMMg91kWdVaYiayKTYk18tUJuSwETpdEjThwwb2iBOAtsOCzJlPV9SVLq+L0bNRqDoehwwSF6dwxWfbKFUmftujjIatElYNB/DL8Exud5T3+sevtqmfgVb8iGg6J1xxcHMdPrL9ZXiQJXzgXW4RiMRfhHONm4wcyNssF9RanawO2Auk8JiHfrEUyExvDByQCYma0NGhXlgFsetGBxY2M4PPo31STr0CLALLrzJM+vk3B9lk9hgrnI8fFZHscQ58htu9j1p3NVIQ+GzRcxcBTl8Njx4WzzbhrYjER8oigYcASHt3waT1mqKAe+PybGoYyAPUGXgqf5x3PBOt6VYid6kOcurd4uXvtR0SELPSNI0cU6ZUjwmlgmuEdwDhEZyaMF2kqkOKuRlxixMIgA9hrmzA6NcbbAy44IXzOLPLw3P31vFT4vNjmozxDpSK0zN6zL82CWXFKX3SxYmuxBI4xh7iLXaOEgQ0pJ8lp5EwIT6NHBo+f5BFjGAkHcIzxC3ehlkWpurwenBZjFuWFDedFYYVIQ05OD4gQROdE/UaCXSrt4kNQalCgnRGRWwqIJA3NimDRqCqwQ/CDR/KB+qy9tyLs6RVm4xFyeLK7LMglXzueLCAQnGKIAQSw40LCZbI0pGhwuiOTREjUtWjlYb1CLNjbym/RKL0FIk0JsMEmK1SHj+GQL7XWxkfQ5pZrgKf6JXGBoE4mJHp7dU4MfLoxquv7mNvHqXVd2mP02dNLIM4uJ+YtEsTwUx1BPD15iQM/MMGm0FN/HxXOQUeujhEFL/JLNVfAM3kMrb0N/mG0FAdtWIXBaVe782GHVkgkfJRMYRTWVV+wuaVchWMILU5ODx+AscNo49m/bIiiFNH17ZXVBRUbehOVb5ibrDOA4+FSeW2xXa4yAxLFL/sRmIyZSB04t8z8rMJuEGGvykui15mNlsq01+8C1M4OZhFY0N2epZDs+I1KWxR9KxkitWnLmyo7LRrAXtJWkZyRpjMg1L8xI5aKkRl+ef2NLqdkq61SL65z+sjFJxEbkxdd3fA/OTBAyv/JAbEzKO3NSDPoblyuOlHL9uuSCugbPhx6wbLRJtepExtX0fAMprXzzKyRlQfyhFQRiMMhr6vdUqSzmqjV9VDnXPmBFrlo9449uwFuqqy8oTy9oU4Hd7grvpsNZx2UApYr0Y4LNqyPL0golZnAoAHJBXDINMlmfdXnjYeCrUmfsuoqsCH9710QeYlQ1t57JuFJodiNYTU1nru3zGv/0lnlrKN31LLmkzcIyY3hB/mv/FOsCkKOM9SUV+471HIZYE8Px8Fj+YKQnF+xbTUp5S9ahvD09J2otDQfOeqSsSTrRSSmLS9Z+0ahUmXNW0TnyKuk3F1SP95l0GokZ5M1zUvSGolOX1p/TIwZl+p6SNcsid29lcxCjsrHlSIZCoqCN9L1LBDjYEWPo8r8mPG6isjLEe8oQW2MqDA9c89x4cIyLGMGhbck/srqehrGaT9LP02BEqZI2wUsVNYTQ1UyFeFDIzic9+AwGH8NEKQkPmzolhy/uuIYUnyjYw49J3TRnvV4vOWzhwHYAACAASURBVN8oMQBSNCcDhQRH7N0ZYf6tl5wpSPsBuA6NJw5cwZeFpW4IA48uaFrV4h8LsroRE/90XbwibP/2MFKvPvrJpX3SLknwn7uMwJjw6Il3uckR1xx4mGZbkHRnNn06PIQkmj1pZ6TinX3VxeC+QdHguZN2j21cva0azuEhgPd7LoIHhOx9jnnkn4VHG+m1iB8KnjpgH3nrylH7PpLo3Xh4e2tOWui2MmgZ2nM6QTS70RwyEkJXJqIFT6KZKzpgfq4Y2aq3vSu352hBWSMaAR6TDx6cVFtscpQvYHL0erkND+rwO1Lv9vfD+JTXrv30EnzbZPgoDqw52AZ5YGmYAxAQnyrJWh62970w88G0SV5e935GY5+zDQjSfYoAWXhjT3h0yoYH8U4TeGJB09TyzWc3xIOfxA8HKodf/hv4y3+HUxPWGQQBuEEeBBx4CSIAEbhfEBjytvB+AQT2EyIAEbgfEbBJha5ubvcjHrDPEAGIwH2JgE0qvC/RgJ2GCEAE7lMEIBXepwMPuw0RgAj0RQBSIZwP9kaAIdg4OXrpIG/a2LtBKA8i8OsRGE1UOOQYzuBF16RDybzuV/mIp9bN2fvQXY4B/2uHhs195L0H3lju3B2ioVueg8/SqW//94mPd4fbii//a1v+tfVxrmvkmI4K26+t3aYBh9Cot398YvsnU6eH3lIS58x/e8rbK3m3YnIbgfAyRGAICIwiKjTHcB5F+g4BfZtFmLPXjZtaW5p+oO2W1xFx4aLVPsrPj6SsLbW86m9TxD27EOnijLW3lZtfr7SSwNvfg77gjHSWFb278MgP7X7JT/r0f4eS1JzYWlwcMzZlMSRDK8jCrF+FgD0fscbYCclRSybwQWBqqk0L4kbvNseYwkSiNU8Hx4pw8KZtUWbhnuN0HDjbYZYdJyfH/HGKiztrDP3O8knJ1lNqECHLZgznO+s9xpy/JHp5LI/vAN6Hrd+XcSOrBQEv0m3y09QIBFFoyzc5yPREgWdL5Zv/lNIRGayFU8Yjo756BDlRx4oXERwWIsvtjm5NcJ9aHvFwCIdPoCDuTOb3BenmWNggvPP8J2OWh2AIQYcwAAGasg5mp+UarUY2NneHNSP4MV9F+tZWK69l4444WVel743RZDVIOID3o4mNr22pNEcVYi9JS4zKzNyc1Znwypy5zRVNfsIAZwyjWk/tu3bcHHcRjJKVkNogOwaEptXuucj54zyBgIWo8gpe3980+EPDjhHOjuWyVvqZc8z52YjwybrKDysU0puIiO/3fKBPMI6yHYzFVdfertOAQDUzI6c9ayh4oaLNYkRG+MW9zZW9fk0mrWsgMa/eABhmHUEi1Uf3yDa/Ezb7nOR03/hxwtmvrBxXc3DXd5U237/uFgH/hQhYQ8B+VMiIXT55TXDznl1nxDIT243N1lkiQXmseTWUfVK8dks7CULPvzrxNV32ZnPoBathlpGI4KenUBlpP2a33WS7uXhj5tc4KFsxnK11yXYeGrt4whqvhrT3Lkl0RPziuPXPd7Zsq9QgIFiIYft2cWzK9OUhhSvel618K2y2l7RcYTOcMu4lCP754uoDBoTnkZYak1LzS1q+CYRgKM+vfCdDUa4BUREn7VwaKM4vEZsQz2kRIOLxm+/dKEbYK1+dEim+SPOgjcjGNCPgMxa4Kc7lFg9pi2kjSLhNEBihMazDaVm7dWO8507evDq0bENxGYXYCKltliIKWlJzdeeGfBDgms0aGCfslpYYzuNYuhKVkcPxfj3CSyO99mqjDnTEUxD5rr/pYOHFjXqTi1vkp+H+M2WFpzpNcj3J5zjiiJkKmb4veJu+l8ikNrUHF6jS2nO1U2fMYZ3+ps9K0aGokVbXt0MeHAw6eG0wBOy24cRcEyYwxBlF2SCQNWVUydrqzYH7sRifWKrh8Kl2YAlSzfLvftGETRe6mzWyFmYZAZ/cUWEuCUmeoc6otrm1zHaQlcF6RQdSnTLpkDnk9dHtCcv9zN1EeUnjCMmZagmgV5NBfKK6SOAz2xxWkWzUllMglLFJLlUpOw1KPQY+QjFIOGXSoMzMMzO9qjGzDIkd52r2SxrElwEPgh+m4ssKKZvJN+/vhJ4cskFVDmwpSnujoVPoyaQL245sjDuH+BqrC6xZhHjAUpEf2a6Q0XItyUaQ8N4Ct/y6qSqoM8e5uVmfVQ9CZ8eL6JCuNkNq07WVZw83mU1Bk1Z3O67BuS5+hlY5N/zDMOerxXkfmnkQQV2eDXKVyxsbGazxThw/BkKhKG7eJtdqtYgj25f+6bg0RITXln1rCV6gamhH/ETTortiutEFuhN5o7TDK5zbb/Pcmv/dl9/m9vlYS98K8DdE4PYI2M0qZBE8rKNMceutwnYmcF1rz3dwWtsMCIsAVEgHgbESZhlEn6/eus2wcFHgui1jteVVXx4ol9DR5+84mZSSwnU/WNolHl4VT4cMcyD4bEP32/KAuAxKA4hNbWZJ8NIoHSe5k6TAj67lYbBwylQn2b1F1ehNON8MI8GevyDo4WDwsQEQ6pUQIRrLuU1NgwafwY8iFBKEG+XjIMsCG8PBIhtjDBZGNWhu6bVDdOzmT2J8yLbzO0+DXX1PshUkvLcE+NWHNUxaqjtAAEVpKRDXmtZ8kJDaYJisbdT7ye/9AzgK2Rj6XChuaCw4pe2aDTjPYxJmVLoFPNv92L5c0VhsVoPU6ZQEC0Tra3ULfgyre7fOTJ0gNX974euxc5/+5IlnyyTrnyvoQ/7ITZ3GiHAw4C+0fCbHhiowGyJwJwjYjQoBr1EED0Rr72/Hadv0JMsRcJ8lFLaLM4HoVIOHxdZKZRkfyzJYTrNWTFy3gnx5e03351DupGN0xMAWEDaZTu0W2urUK7UEnw7nab5FCYJPmOOImL8NMDDZCqdMExyBccDDIrT9gvK5GKmnLcTYBbEpwY3rdxdIQL5P4P51XZFulRdLDsROfX+jQK6jZMUFOy6aOcB2ZGPKqKMwZ/psoS8bdhZK1j9YGrw0/uW18YkXMn/uw4bWgoQDSu/lP4Lt3GP9o2BxosMSAhUwsHpR1TS4g4TUHohLnxwGAzH2i7xCOwpr6y691ea1Kyb4iYZLn5r9G54sFq6te09SO3DnS+q1tQhPxBZMDmBmFxdbwpvTdfhLp/5xbNPXLxz7pZD+Xk7fNIYFguNqKCtmc/9y8C+IwB0gYLcNMtWcVYDELwmfLMQwBGW7OYcKaZqlCurEiPfCuVxgfGBuwuQkzvWLskGoEBO6xoroexXRddTJSAR36I1uPTCG8x10FBQ1qTIvG2JnBcVbgg8v9I9S1J3uiTk6QNYg4ZRxQvDwLC4fRTgi0eLwTnE+HeqVw2IgOkMLYEWMmfSgV+9nzl09pnu2pO+4AKJepx3pDhNvO7Ixqb5Ry/CPsXJISurLv5XW4E4CYa+y1oOEa5v1WjePBDqYNMN/VmC8c8+h7RhejP8semjw6EV+YW2NYjpGrM2Q2gNA6ZPhkvjyhrS3Fwb2yTI7CnMVuta26s+b8UXB3iLzRaWBJJkukxwtJRkiDv2ZiK5k0soNxPjAwKCWss/7uvr4Xk5omXQgD4JqeEg40VDa/WmRLqFsvovLKHteqgcD+GMkIGA3qxAx5u4Xc5ZHPr1hzjrWGKqtPSsjpwxsa3SKfR+Vrnx64u4lOK7TFWbl7T416HIuECxZPmGdM9DL2Cpt/PLL6h7etBbD+Q4hlHyfl740OmXjHD5qUlbVpX9WWQw+XmxLiI1wyqA42aK4wQnb/SGPjxiKfi7YA85MQPAuczjivdtDNBqN+EepOLxrN4gjxnaGR+p7c1JBIZNRXnRjyz5pMWU7srHhwk8tjz7uE/nN9SGcnFgPEk4VlH2WE7dqw7wl5m9Mnyngdz+j11lfoA5d/WAyYMPmxv/svQHOTECyHlLbFjBd+UbKaNQb+7hEaEch1fof+uOFxrMV5bMmBT/vrtjYRGqaKz8XjH1+8ownjCbwVWJ5Y+nrN7q/cHhTJ+3AF7FlmwvbzBbkbRMW7jvDt+30zn6ziBG68JVlzOMf/jv3dl9OvK18WOA+RcBmkC4QjqGlefAPT96nkNEP0zxp2vE2fTp8+0Tw16+PJA9foiP+A4OG55GaGoEc+vl98LHmQRJz9nsTZ1dee3ef6pZ1A/d58fhUfPexfx7TD/5Mi1XhaMIrDy2Rnh/aJ5ysSvgVmcDA5zuYlCT9cdTe5OD8pwmRnIpLH7b03WnjzKQPFi9uz3otra5/N3HuY9vGRV6QvPtNP+J0n732ZeGFD77Ms2/A6F/RW1h1tCFgtw3yaOv43dIXfFGX06lU0B85AgnnMvkMg/K2X1TVn/6g4HJ4eMrj3Fv2yWTdsd01rGcX/f2TEfu2iS1kyU5SfgsPjsFnhoRPaiv7pC8PgrdN3vp2URJ+4+t/38qDnPlvREYWFO3oz4Pg8Nlf6FgqvgZ50Bb2MP/2CECr8PYY3VLizqxCBI2cFf3nGXxgEIEzFlKjFv98fU+Otp9ldMcqDLfCPbUK+ynt4Pp6XOh4HG1XVn54XVYxFPt6uJ2G9SACQ0EAUuFQUIJl7I8AB8MxE9kKP21uf2ihxOEgYL9jk+G0DuvcvwhounwG9y8CsOcjCgHoKxxRwwGVgQhABO4NApAK7w3usFWIAERgRCEAqXBEDQdUBiIAEbg3CEAqvDe4w1YhAhCBEYUApMIRNRxQGYgARODeIACp8N7gDluFCEAERhQCkApH1HBAZSACEIF7gwCkwnuDO2wVIgARGFEIQCocUcMBlYEIQATuDQKQCu8N7rBViABEYEQhAKlwRA0HVAYiABG4NwhAKrw3uMNWIQIQgRGFAKTCETUcUBmIAETg3iAAqfDe4A5bhQhABEYUApAKR9RwQGUgAhCBe4MApMJ7gztsFSIAERhRCEAqHFHDAZWBCEAE7g0CkArvDe6wVYgARGBEIQCpcEQNB1QGIgARuDcIQCq8N7jDViECEIERhQCkwhE1HFAZiABE4N4g8LumQo5g4/NhS3g2kOV5fPhiyFymjaswGyIAEbifELDjxz9R9xDhyoku3hjAz1hdWPvZFa3q3kKpazue1VGvvrdKwNYhAhCBUYCA3aiQHeD7xgTTf34ozlWbEIy1cJ7/OqRy45WOe4mBiZSUkjYVMNm8Ai9ABCAC9xsC9qJC1sIpjuLTNZwpobs9GTiDyj6n0E4RRF+tLTSh/mN9V03gBTARrar9VFbN4bpOhOW68VlB2TelGS1mwFH2yuXB7jmFW8s6EYK1cKZokZ8jGzHWV8j+dbalupMuEjsreom6NpvnudAfZyOd4p9K99bQZGYjH5v1UEiyCOc56r/84vrxHsPQwXFukv+SIEfM0CEp1PYOto1G77fZAPsLEbhvEbATFfK4cZ1tnwm817FaNh5QJSwJE1Daqk6evyNS5eH7Zjzj2HfXNrYg7kG+b8z312ZUnFKrzkt9/hDBysjWAegxL3483vZZFeA8h4RZQYuQ+nf/T1mPspYsClmX0PHaOS1Fj8+YgFjPqh8rXztNUQ4ObKTHqLOaT535sfgMS7DxWX7fofWf4P+0oH3nv0slJJ4wJzTBwWC+Okij9+3EgB2HCNxfCNjn2ARzJljqDraAqZK3NyEYmzDpOkwUICsUjY3kkdflx1vAH6amioYzrU6zgnEE6cwqbcMDXaPp9tHocB5S0SIBhMfkzfTvPHNZWQ9YkdKdKta4BPDCenSUKzJqKJoWOzu1ZlOxK9nKv3Uo8bhAx6riJokeSCCzr7Y23TSXGLzRW4XAvyECEIHfIQJ2sgoBW5lutmopHo9gs3B/FlKNE94OZLbewZs5RiczW3V06lTpEZYTOFghqeqWKzP8pvnUF8q4s/xvio+304UcMRcHx0WLx821FEfHIJ1GVndlrZbqs6ftzkUQW/m9JbqkMXg4KNxNoh1GncWyHLTRW4XAvyECEIHfIwL2oUJKQ1EsXJXVkP2Q9+Z5+lNnWmITPLX5VZLOTrb2JotNc58ZPQceG+lixs72szeQdeFOPIIfpVe+Kzdf76BaO3Xi/5ZmtP4GYJuMKhIJYDoA2qal4wyWxd78TRv9DfoBRUIEIAJ2R8A+G2RE2XbdiZeAtX95tPS1/9acqmjc+p/ru4sB/ZkkxSokzHOhABAQeNrGa66zNqu861S3rFSpFbkmh7IVJc3Vlp7pVWersVlTBaGApVCUx2PHutPP5tgpkVcqOwKi3WOBnemAJcS4uI8xC/5tG7WT7lAMRAAi8FsiYB+rEOnUfnepc+PDvrrMhjOKTkA00YGOrTfa68HutaZ25wXfVQui/2g+QT5zqrr3PFfRnK2JTBZpvzzX88hLZ/bpCnai99qnvQEHatV6yeUqSdOdA+DptXkOjzfGwQVzCFgcOfemSfJL6b4apDqv+kue/5pnx7MpUlLQWkhZNt92avTO1YQ1IAIQgRGCwJjw6IlWVXF1c2tpbrZ6yUYm6h7g/vQEvj8w6G4am6RN+84pARXCBBGACEAERj4CdrIK6Y6amqrkO6ssPr+R33GoIUQAIgAR6EXATr5CCClEACIAERjNCEAqHM2jB3WHCEAE7IQApEI7AQnFQAQgAqMZAUiFo3n0oO4QAYiAnRCAVGgnIKEYiABEYDQjAKlwNI8e1B0iABGwEwJ3iwpdRbu3xj/lYUNrgf/eXZOWcWxctVu2p+f/+yFyiucdyov0fum7sLi+EW5w9oP/iPvLd/GbvgsJB6ElrCV0vN+r34VE2rhqrcaQ8lDumjcefH9Kn0egUOay1QmHts7JTI971FZE7rsE75B6AAtBBEYmAvahQs/Z8UdXe/SjMpSbsnF6amh3r1sV3xy5kaX8TUCIT45PDf9NJJuFSpU/f9JQ3ld1Uvvzn6/s3CS/s/jYghmRWz+OfMDD8rafV+D+9LmZH5n/25n01atRy0RDGAuT5vSJ60dLjb29NekP7c1etquivG+onkHB8Az3X/9qwtFdczPT5xzaGLcydAjtWhNoH9h5oh0vi+50dbKmzp3noc7Ph3sH3Xm9/jUYM0NC5/Yuec4PhG3+OHqGr2WUhyYcZ89YO3HnwRlvLLa1mA1NDiz1axCwzyPWSoUGmcj2RJHyniiCDgSfbbhhicwKFDTps3JAbKzfIKHs2CACyf8NJHeJ1OiLT/xq6VhMyLqV2Om/FlxstEQGAxI7lXvWXzqkQXAud/6y8Wue9Jdsq+wF0HqTpvJ8Wbn1S0PK5Y+L2vmcQHa25M39LXIT5hfKRRqGFc7bTrBzQvkh6HBWSNyBgd80avrrbjWTxgVluIwxtvZfLUReQbPG1HxuDTbcAUU6TbYDoPfWwTmiJ1xM/+wdkraL13fg0W+/HaZ6pTTfaiClAQ1iE/yfmNjx+UuXL/4WQUgGNAczrCNgHyokFXo5lyl0QModiEgfVF6lV7KZrog+i7abiEefm7Q8lMnnqPdtEn/VQ44Y+9EnYpaP4+B6jSS3z0dQeIKUZ8LiXVCcy+QTCKlRHth16atGBPcRpiaHxHsRuEEj/rkk/UcVuIEiZ8W8OIUf7EUgz0yPB3cF1bLn/aLMnpBg1rqMejwa9vIsrgvnpiK7+tudzQoSYcwPe/NJ/b5V0np68jMmbp8wsfjqnv0grCtz6vawacEEB2/7Lrn0qsaavL55HKeEN4MSxxOIUlucbeh74zk9utpL9V3O6V4e7FOPVKtPXG5Z+QQNoDQ04qtn0PR3irLoXqBJq2auVOetOARC6iDBs+M2PejC56KSrzPX59yOv6zCi7IfX+CFXLiU9r3K3Bmj8nLX+sQP9U9d4h8lwBC9WvxTSfo5NSiAh0d8tQQ9UcVKDCBwFkpWVW//QlpMDQI7kbggYuU0V08AQV3DgQMlJxQARH5qaqzfxQvrTusB1knPTF3DqVy3p07KAQMdHO/D4RCuu9/zB9rIz+etPXFb9mBM8gl9zlfgy0AAYbU2Fr5UogAM4uLs+3KIaByB4ihSKy/efKMFvPbk4hH9qWfHMaPLPGdHNoZqm0tfL2qUIojIPfQlX9dIjiNiDP/8AQS5qf2+4OpBOoiwWbiPC9+Bwb7Zfqy44FMVMMAdnxg/aaZa8nKlhkTQ8aKYV1zVf79WWUx4vx7iFenEcUGMr08Brh9TcWXe5kYwUG3nyr6f8cAzy2Vv7G0bdC52zwGOA6bRNkAe7HNP3IOf9qFCpEXbgrmK2Ag/POKDZOaJXRf3IQRHrZfRdGA4+u/so1zR7k3Cvv2LfChmjY8ybdNFsZ45/5lJqQ760/RlNGlxVLyiYHW6UuPqs+MN3+J0mgcRgp/yfBj//JWndqpJD5+0P49PUWSnSYzFZwrWZvHXb4ohv/hlR+lQ4MOdAvnXP3v6uobvsmh76NKntHv2D2Ks6i/85eqFYO+X/+E0BNlowAshMziN/06urwcc+k70RLyb4LEY7xn8lq//Z4mZPVAUk5kU60oWlxQNeuOUn77y1Bn2mjemigZKGJBjHV4XQaxALz5o4cE+dXg+61eKNIfFy3L1uJfP+pfiUrXZaZfN23Avz9jLOasPakmCl/LXSSunNKZmGWzBLpoVkxqnSd+ZmdnKiF88af2qwJptlcV6ZfoB6e7VMctLL/3PK3pNkGrPzjopYHK1Iv0jhWh2/N6xsrW7pEN7YZMxLWTCy04tn+RnnQXBJhmOIrQDMAiHG/hhJPdSsXhzmxFn+n44MXRp48WP1WikiwuH045ckzxRZOS4hn8a5THOoVHaiUibyt5oFW6dIiy5cuXz3uGnhT+PSz+8VFzSiU4Kid/o73Hsar0c6ThZ17I0TDRTWir1jHlFoPk4v/IqwMZYv/lqy7MT4iPqL74h7+OyAKCRF/7X9Nhan3H72y4PxbQcMHow4x4gMEw/0a2aUnq5mnB1ZcSGc4qKjbFRTMSFyVFp6BlvPTGnRHHKc6vFwGyk9Jk/N8q7bCjCzxOrqTLfq63q8laWyIPWEA/3ScQaD52lTRWyse5EqUNsnMuwjiRIfeFRpZpETPLWrDN6j8kutj4Nal3tQXJxdnisQ/VJWT3QUaPPPaGirQxLEoRzWbUqOmZZv+TAX/M+cNjNzdw+faVrY/r3iuFsFK1rZB1enI1xgOU8wPzwjBNGKaUHcoHVhmga6g5cNsZPFnSdExla/pelpTU3qIsaTEIBYRt25uyJPOn5ykxg+JuM4iyZ3MPDckZFVt3Yfsb06IpJmxZzxAcLM+/Mx9rbQ7AbfdZd/9+icpoHQTJ2SGnNHJcGe2trSz9to/mI7FBLSdyTQJExrPHOaEl18edqcz69aeiQd09InOsSTKrz+3yFjBbuSV2S6QgWZ7yTEwcEtURRS2dbW6pPGQRPRI9/3QPwYPmlHt7DXCJY7SXmdvsnqkRVzeaG+NzeY4i5OM2Y6EQ16u7x1yFv7cH997edrEKTrqaViHV1ifVVZ32tX7xAEGUgyFbDrTd/D74oxmEi7eouK4jUGLo3n4YbDVRSqCs/R6ER8KO4mhyzJ4vDIzgcj/WbvboEYChexgDT1KZ82wNp1HYTjqaFRDgMNo7csvEd7urAYHFuaugPF9DJpCQ7yC7WGMNyYSAaqpcau7QDvsKNtK8QIYj42THrX41CthaJbWt+B1dswEvqKQ2Cgbsc6X/f8bkEojH02GVKtQEJZ/JRMzAGStP3TgdONFsJJcDmPXJBwtGHukrgJkMR0fW7/Fy1ZFZcfGPJO6U2l0dbgnvyIz0Enm2AlfoXZHpMZrefaepmNQbLA++o0JsQwiUSbzsDHCDmFMRzxtSVJd2O2ki+M6IuK+7x2wJnCxDeiWj9goK7xBvyFa1dmNzsKG4nl3oiB8V9eBCs0M40n/7H2lcdKaOOYrDAclI5WK/8lk/Z/DiHqm34v3dlbYMVhNd+ewTsRIWIUd5CuUYK/VqU+6rUIazgJC9C2URbGdaTidLoEScOCMtKz2ucRXSfPpuyvi9JSh2/d6NGYzAUHS44BHbHwFRRGzSt0rRN1yXDv4+6FEGZYH6aZziHAwjKSFs8tA5juu9xjJ7Aw0nGDs0YrisQY9aRw3Dstp9u6rRGhIOB2Ig2prvBIM5qlM72j/VCaCrsZRuUz0aRYdhQtuBtURWpQ+LHsffVmQ297qRspbkPHOOWm3P4PMCMpPJOoTYZlBqT5NS51KyBVhIjcUlYVEOdxDUwZVrj+vO2PAV9dLLyE/VlOSp1/TQHpXAm28Ook3b7FjwFHpEdis81wFHo4qtrvdrVT3w8z7G2qa171XMcx8XL69v6gIB6AOGNea9XAIfgLQmN8I15nt12SSeY7M76XNq7pEW63MqnPTUxBgszDnBE3Cq55kDOqh+4M9aMe3a1sBiy4a3w3N2/bS/yd6hHjULvGcrXlCmUJrW4ihUfyWhRDDLj9TmlmuAp/olc8L07IjHRwxNEuTYnfrgwqun6m9vEq3dd2WHesoFEFtdlmYQr5/NFBIITDFEA8Hl1lQcfP1HqsZAAYN31JZHuq7f+i7Mjkpzoohz2hESmLLcF2EdGub6N7xwZCZYFlD/fK3YoT7XcKhfoqC2WdAbOE/oCVucwJ853cewpoyht1/nyQmxuLTEi/kGhyKi+0YiQCq2ccE2MpPehnpFBDwcMb4BswGtSHTndwp8du34WP5iDAiSDA7jBTESeXyfh+iyfwqRV9/FZHscQ58hvs1u3Arv+dK4q5MGw+SIGjqIcHjs+nG1ZVTwnRqaM1ez7ouj9gzLhopi+j5fSFqirU5RlJbxdX5WUkc9zj7RMFQdcZAlwTnYoGZxgM9ouTr6v+BFny6UlCHAUOinVqlrLIDi4RLI7iunDJ3NCnYJZxsaOvpRtUhqMfGfXIIsODngEy2IloBE+0a+7az4uKP5bTYuHt2hm90QFJBzExpUdVtd7LILnT7XfqOxjdXY1fes/VKv63OU2zINlN0/NrS3Av4eGgL2sQkSpMOAchqSYpj9JcSs+sCxKLQAAIABJREFUzUVp3iziQSE7n/TgMxh8DBOlJDxs6pQcvrjjGlJ8omAPPyZ105z1er3kfKPEAEjRnAwUEhyxd2eE+bdecqYg7QeVxqBM31OyZlnk7q1sDjj3bGw5kqGQgNNJkEzqI8frYpdOPTqL0rTKdmy9Lh7MnJErr5NeKz9jsjmo9mrVt1+Z2bq44YfvWY+8M2EK3tlyteHSGUOkWTKaEPDSamcMx7g4Ovdf42cixoKdhZlXEdb8oJVPOtH5HGTRZ+Pnkx2XPijNLjdVfXLj3JtByzN8UI2+9GRLPc2t5kRdrr+gjJ09h7j8Q9/VAfgKt85dA66bTEq54uhnhSdoN2Pdvh/4KU9MP/qMSVklPZKjXmyRgQlS/xIWiwGKQfFHEr6aa1JKCtd9r0LGhu1dIsDB5hRDl/814XETlZUh3lNmE15p1tV1VMiaWTG7FwO2NSrl8n3/LCpXyXZ8RqQsiz+UjJFateTMlR2WM5Mu/a39Yw126RlJGiNyzQszUrkoqdGX59/YUqpFXH1Sl/Akhy6cAKuO6kZ6Tnzas4GSXZXgJBokjaTyQGxMyuY5KXpD0alL688NcohlOl9dfn5s6NZp3ppOBL+pPVZ45VMKPGNQd1Du+qeJiY8YTQjVdrJE8jk49h3DAY7Ciop2C/nRnsHO1u977DlT+9U29NnoaeNIIzhWfrWSNg8v1ZSdjQ7/MEFEAuEIeak8f7POFOEd/bqw41OLf7C59mzA+MeE1WfrLFtisqJV5+k34aCANHQ0bC6orejBCZ/6sDv5c37+AAPTGpIwb2QgYMco1nboEB4Qsvc55pF/Fh5tpPmMHxq2czX7yFtXjg5yg9ih2bsgghUT9vY64sRfC86Zd/wwDR8BDobTyyHV77k/3AHnI2T34duQhHNwHOskb3nY0KrwQcThDNCuUQ5YuDc5z4h+e3nnwVdKLt/2ySBzJeyBqN1r0IOvFJ5rvb0VOYgu8NKvQuB2e5JfJfzOK/OYfBMlV1smFsoXMDl6/S0PKty50JFQQ1dQtnNf5/w3I7rfNhkJSo1OHTQUKe/Pg6AfZOed8SCooiFv5UE605rwQXAijeQtPDgxLPXxMSfevT5EHgSyqbyqg5fxR/4+Hb5tMgjSv/mlkWUVIhhz/mPRy6PYeKcJcUA0TS3/O3b9UNVAN/xvjgtsACIAEbivEBhhVHhfYQ87CxGACIwYBEbYBnnE4AIVgQhABO4rBOxGheBjofcVcLCzEAGIwO8JAbtR4e8JFNgXiABE4H5DAFLh/TbisL8QAYiAFQTs9oi1Fdkwqw8CuI9o/TOB8a4YaVAf3SPeJ+26JpocteERTxETIVvq3t9+XWw7OE3sgkmpD3D5XET8WWaa1fiMdLjcSfzvz6b9+vcT4dhBBO4zBEYTFWLCdX/lfLvlRvVdGyPRxLCU+cIoAYFQRqWiJfNQwb6Kwd5lsa0Ymjg/JKqh4Kn3FRoQNKXnnROU9/gjnu2nsh/NMiBMFLHNg0Cy5IdLT53gpb4z4Q4+fODg7/f/3o9BDp79v2PgDQ2YIAIQAVsIjCIqxCLc/Fl381UmgegvTwhkGZdWXNOTLGZIAIc0vwMzrIR5clG5RE2/2GvoI8SBCWJ9l9eYQ/iAYCp2ThzBk+/HOx373y7Ig3ZGFor7/SFw76jQceGGqQG/FDZNiJjlR2CU6vCu3OMyADAWOjdq1Tx3b9YYrUx+eN+1UyDoIcZP/lNEvJ+zu3Pnm7u8QSFVztXXM5SIKOxvG5yOv3z5DG1OjYle/uBrrOLVnzSCv/yTp6cgZYexgOQJHDZiLDp8YWeWgTf3gb9FtJ6iXOO9MIw1pimnaHdGk804cXQYbUp9RKKVA3l6rbilz2tUTO6ypWGLo3meLBA1R5OZIU6/BqJCcZ9aHvFwCIdPoKRKlfl9QboEmH+MpOTYx0OZnnwU93zg0CwT2Ahv+UdlMXgB+UUQrJvwxIioNdOTTIgmv3D1ISXgRKsBpW3PPDT2oZiUWQJPxFBeKOuOEWYuHrBi2jRNwVsHoT1oGz14BSLQhcC9o0KggGP8Iu//fHR+tdSIsDDM/LI8b0rMunmmjG2nz8hQ/4WT3n45sn5DYSGlzPj7+cOJE/fPa/9gw/XqIY3eGPfE0NgDea8d0FIYxu7ee7JjhO4fn38tj0TcRBvTopYUKPb1xLC7RSwpbcxST1j5jD95oi6roe8bL4z5y+OWc+vT0yVZChNfyOEozAadwVCeX/lOhqJcA8L2Tdq5NFCcXyI2GTMzLmUixFPrpk+RXFx7pntvbFLuSb+4BxO+vy1Iuid7T7frEBkkoLS1buPhYalziMx/Zu6rAnH2x38wBZF0FcOFMx9iFu6+0WytGsyDCEAE+iNwb0+Qm/IqjgMeBElHmf1kWHyiQJtVfkYGuMVYfaa2zNl9cvDtQwFbH1VZXUaOlhZLUeZ/6ETJZMcAD4LUrCxrJtzdemMudZXo/YdS7Um/9I2avzJl5qE3xq+ZCILimBPHMyncmHn4RmaDkaRMcqm6vCtahEF8GfAgKGEqvqyQspl8SxSpAYIHyRgsoLS1alFjBfxy6TdVAC9TcVatpDduhb8gwKmlvBB6CK3BBvMgArcicE+tQpO2J4Jcl14Ej+fgPfeBfbMsf4/BkU4xCHk61NSfNLX6AaHrAeeS3aGabgJ6xJDBeVajPnroytFvGZETg158bEoaMxt82QPh4q6oQWwJEdZXM4I9f0HQw8EgciKIBU+IEI3NAIW2+2MroLStQKp8NvhCUHe08E5KqUO6As86OOGOCNkObULbWMMrEIE+CNxTKhw4EsDH1lmdd/71w9bCG3Vbdr3VKGAM9XDZGJYzNvgZ7MD2hpZjMhbnXt/n55EWysOzGkkN2YIQroBy+n8JIHZBbEpw4/rdBbRp5hO4f91wgnHeaUBppZYCvknAubSl64BxugPoI0g72YHgTuAVoIahdRKWggjc1wjc2w3yAOhJENmelxixMIgA9hrmzA6Nce4lFB2pdeaGufWx49p0TRRv8hQW2IiygwIXRdiV2HEfwaNjuSIuimOoZ4DPo5GYvBZ8IIr+VFtWKTF/cWCiwHzJixfpSneEA+Ie6wwtwBmIMZMe9BreZ87vNKB00TWFMlj0eADoORo8xTu+50GbzmpFTbtrcPQgDoAB6MMMiMD9i4BdycMOMKpyrn3Aily1esYf3TBEp6svKE8vaLMc8lIFFRkFcclb5ibryPqsyxsPqxFdw5cZbilLpu9fbmqVNhzPUi5xtoMO3SJYTrMXR60BNhdm0qg0RbkFW05bXHGGo1/lcR4LW/PXoDQmfVh84utLxS0m8U/XxSvC9m4P0Wg04h+l4vBhvZRtK6A0+MpVSkgUiGLtwsCTp3+12CS7KEn9UUuWXt/xU0zKSzOXIZS0SJolde0mQ1L284/61EUhbj+Wwl2yHWcFFPU7RcBuQbpAOIaWZnjPjahpwhE++0ki/9v/pX8Ln6cZUQMDlRmBCIywDfIIRGgUq6SRHVh/uWPpzBUPceA+eRSPI1T9biAw0jbId6PP91EbndWV/3qy8j7qMOwqRGCYCECrcJjAwWoQAYjA7wkBSIW/p9GEfYEIQASGicC9oUIY8nqYwwWrQQQgAr8NAveGCn+bvkCpEAGIAERgmAhAKhwmcLAaRAAi8HtC4H48QXYUhossj2KbjPq2RlljO/zQ8u9pTsO+QASGgcB9SIX8CYuffdCxXgFec8aYAg93pPq7T/ZdGBhdYRho2q6CJq2auT5InvZOUdbAV6ltV+u5wp8x6dCyrkgLpF4vLZXuy6gW938Jeghiuovw2je+UetzLjDlhGNPRO07qA6LQgR+dwiMRipkODoixg7jQFOO4cgA+QPHqF++o1+gQJn32Ucn6+mCjLHPvL4sQsi4oOiux3AE3xnRG62FlB7k0sBG++UwBUkhlNwgSIpEs/Ktib5NffoyWXdj7bbKchPC9/JY+VxM6gLVUxm3RvYZghiwAHT8+S/VsZKQJyAPDgkvWOi+QGBUUaFr7OKl88IEIPgCk+PQeP4/e0+W6RHUb96fH3cqquZEBbs78x3bcg/936HidhCdwHo+QxTsRVWL6XjZdHLichHZtVqaB73jk5dNC+ZjJsSRaZT9/Pm+MzV0NiN82avTGv5XHfjQjFBXJqKVfLnz6zIQlYGY+8qMZKpo7cf11qLo9J88nLHCKIU0/YZwTawrJ19BG3MgaOtWH+Vpg984Np+DkTXV6V9IQdBrPDLqq0eQE3WseBHBYSGy3OL3v1fSnwHok5QNjZmlhiRPJo6oSOuhs0EMXNHuVKf/HSKTFgj9uChSV/nmP6WARkEKmlv7FO72wn+hPdgfVvjX/Y3AqKLC9hrx0b8faQQxEZymvbA+PsL7ZFk54hIcSAfM+mbfrkMdePDCP69KGJ9ZnKW0lS8I8nfsqHeJnTwBRNF2Dw4VNh775pw5rqGyMvuL/EPKDhMifOgvL0QFu5ypoXfNwmBfJ2+X4Gsn/u/dL9sRjjOmsXxfpbNe2lJE6obysRVGYqyr/Nr1rGJ0+UvCeEKRadmUYvxY10trtyqVKHPZy1NTH1GvOEQHnsC9BME/X1x9wIDwPNJSY1Jqfknrb0hyXAVJ4WhRlpKmVOuhs82Tmu21fPL1Lbt+KdYjHA6qsRijDuBFPE3F6cCrMKarGSSYIAIWBEYVFZJKmYLBcXFnOnKdMKS1qRH0wTEwWNCau+90TQf4g2xUtCEigu6UjXx+oD+/g2wMDA0HjkIXV2Z76cnKFgsUekW93tGZL3BkuoCvoTQ3WeK+ugQFOynOf3ks1xK0X9PWvZE2Fh7OKxzSNOIIEoM14iN6UtEo1ogSx6KZl8201KmXXDZbfCb9idzWlXMEwaiqHHTCoMzMM5OlqjGzLCJ1nCueT3My7hOy9+8h5haN0tzid3IshEqHzjZnmkNnz+bRobO7/H968Skp4EGQNF1EiCAsXYSQKSmB7ySbMYMJItCNwOihQrbftIV/iPdCWluVHRRfJFTmVYJtMCMw0Lu97GStxeRheAhdKIUM0IuNfMe4QA9l/qdfWByFiGvSC39elFBQerLeKXT247PH8Y2tynY9IgjhN/xUbeY8ZqC/h+LaFxYeHN604Y8TxjJ5salJjwI6IxhkrIBzudF84GHSdEfUBs5Jkom7OiCAChGqk+w22TR6E87vGqMeXyHO5T76RNzulcjqvTL5YKGzqRb1AJXZRmfEQQ2QgwkiABHog8BooUKnmKWr4rVff7KrFJAII/zJdV76SmAMod6BIkzxc5OlR4zA2DBG+bEKI3AUWs2nHYWGXkchwmJyTOpWDeKS+OyyqOovdn9WC/a77MlPr3OS0TwLWgoO9FZLM29x1t3RDGIkjnORnxG/c85snnn5f/CUMJHZeMLshuR3h1fkcAlcr2qxMCBhDkZNF0f5XIzU33rGS6rVR/P+P3tfAtfUlbd9TW42skCCAUIgxBB2ASMKigsuaLFilU5pvzrVmeJMtZ1qp2P3edvpMtPpZjtjOx113tK+VO1YOmOttCJCFREsKCIgqxBCIGyRBLKQPf3OTQKEEFZtFTz350+Sc8/5n3Oec/Pc/9meo8h4iB1F6ORMVTpbi/YjFgYdQRy+8JTqAiNDBGYtAjNkiTWOH8ZHOhuxM5RQtih1QzTa3gQOBQUDgjxPlMm0OU6e4SBcWZxbC7rKY4Szg7mozJYQQckcUeqWeKSysLKfIgjh6iTVGA+SuQlbUkINrRjPgitAGIi0igfnWEY8Bajo/kV7U5kTneTE8Fsxb6C0rE/aa8D+1XSW6rxXRNveQHhSwgqeELAezeuRZV6Kerl9WoNIYt+7hsHCITQeb0u4pbTSdZoYeIXp8Syko++6aerS2QMedZ26iAg4UjiiMeEXiMAM8QqtMrHEnPqLl/6w3mSWV9R2qTrAd/uAYGdFZfCOvc8jKGqSFmdl2TxEbKDQTTgYKPQhB27945tbQRxzv6zx0tFD5+oBc0qvyyj37HheqDPpW8vFMo3VTpcIkx9E7ywRDw4Pjnhc8D48VpSpk4gox1so6BfrE6W6kTl0vohVVVRrelXEZoEzOi2q0nb6sy+v5VGRrtqG977BKA87paRXfp0W9uHbXizEUHOu6sDgnAk2VrjfNlZoMkub2987LJUiSNdUpbMt5P8Uenyx5saCPF84cwJ//xCBIQRuj4r19CSvyXQ6alJrsPkR+4VGPvRKysAn759sJdMpZrVukLLGCh+v3VEynYzXabRuaW+8hNO8Zz8Bed+FA+0jDGCLabZa33sFHKA8TcMTJwPrCt+4vuRyyK/hepqJwYIx7hYEZkgH2dYcerUzD9oHCpE2MbZUWj/Mg2OHj9umZr365+PBoZLcFvhN5L+/xW9eJNm/3jB8QN644MCbEIFZj8AM6SC7bQdvIY/aWmqf6XWOMFa4WyN3Z2Af/X9eCL87qw5rDRFwi8BM6iC7VgDFFgCq+4f6xYP3xwp3TQ+/QwQgAhABBwIz2Ss065T97hpyrHB3cWEYRAAiABEACNyWwaopIw9Vr6cMGUwAEYAITAWBmUGFU6kRjAsRgAhABKaMAKTCKUMGE0AEIAKzD4GZPFZ4k61BFKZsT1J/+0mx280kzsY5Sdv+X6I/kaCr//LjE/U/18rDm6zerUuOoye+uNDn++KvL/6cVSfOeyB6VaIXFbFqq2qOftbjuv3w1tUPWoIIAARmv1fIXLw1Jdwd4xNQtazascFu6FlAhcnpSWyXR6Oz8PMPPrqgpOh7ZLeKDGjLFhZ8dM+If/uXZvhP85lMeCjhGfdrY9hJkW/9I3Kp7xwnyzhq/MvrHs+Y65yZzwOJTz7u5w4moBqhrf+2oXySrwAcNfGFaOFE2xEnrqc/d+lKfM17Zz/6Q+HnX4zNg4S5Ke8vXx06aI/AWvd20rqYic3fkhiBv0z6/Z9DOSN+QwRfv8f/Eb9jKdg2BK8ZhYD7h39GVWHcwhLDk1axlJnuGExbX3zKNS0zISUOyT/nGgw2xAl5fgrxSTeKLigRRYxuJLVH23AO0RRf2VAGfkOEzY+vvFdauvtboIJoNY63hW9seziqKJiEVI6OQIgJ2ZtByH+u6mL3j053rSbDgFWvmXxmVsXVrskqUniyOD44hzzG6BJNPoRJoeo0nV3YnhvzneoQajUGs8akHbEvyNTd9c+3CC/8ecEDystf1f90W4YmjySMOTkEZi8VokFJWzfFcrlsKqL5zStLgNRL45cfH8d8G3JU+mP3RtDpFOW5Dz7+3vGzZYrStyQK/TksVPcg2NGMWLsvfHaweOjEE56QByRtMIHEoYsuWLEpZYmQTqSQrbLiY5/kizExGYLv7ncW+OQWvXx6UIBrrIYwmsAPxWIE/1ktGuyz4yIGcJ55KCTBn0Q0aErP1e3P6wM0ROQJPnzCt+Jg6YEWK0Ly2rM3Lqrih92ntMI1MY8vYQn9Scj2lQnAhqn3wJs1BXaWo2/e6d93/If8ETyIZWIGVGhwKNCOVTpHOGudKHW1F8MT13747NcXhwqJ81kdlbxuLssDh5gM8iuNOV/0aHGU8EciF4YyfCg4n9eWrwAGWlu+PDiuxjdzbuIvQ6MEFJLF0Hml6cxXXSpQ8nlBWx7iMJhUKg1J+TMLtFfniZLcaexDZM5dsS00nE8h4ayG3r4rhyvKW2yVotDjHo5aOJ9KQgzyqpYzX8gUNqoN3L488Ub9NR9BfASFjJjqv/jh7FVQX3c1HcTMAF4nA8bRRN3WlnXc95VdvJLfS4Y2nw+mgX/vVARmLxWaWwuzPhJvenE7OWdfdrWzW6ivyd7fEJ7+bJpOMuy+KCuyP22Mf/TZRPGBvxWOErDiCPhoe75N0sZ+UQSbdm1hFH/x96OdRlSw+dltyfE/HCrEVAh1LU29fZ3u3NBJPQMk1p7fhrGKr/xyn8roG/DqUwv2yC+8WmE2SsXv5nnvezikYl8z8f6YFaqGvae1QL6h9vuq3UWsl16LMWadf6/eOQdCDDeJ1Xv0u9G/VMTallvdr3FzY3QJFWcqsgqoiX9c4uN8j8FZsZkq+aDwaKsVZVDZTBN2poFVV59VXh8k3P40teRPlU0TOp04atzOaL648uhBhZZEj/vtwl88oPv8i35zS+vXb7UiUZG//aU193/qHUqUo0s2UQgnJTxc13j0mR4tgmMI6IiDlNDw7QtjkIZjL3apcPS4JxZtvl+DZYpZw7NXC1hHrn76mREhoCTE1thuazqYtfZq07etozTUsLsdZ9qvPyRIDm/Nqnf2xycqM7x/GxGY3WOFPgIeQyppcsNLQKafIBO3j0Ae5Qv91U1iu3r1iDt0oH0td7bDSUqNM9WWy1DfoMBALjh1Cvx47ONjJlXOPy5/XjUZnX93zU4MD1hB6M4+qwKsauxuP1WPFy1k2sedmr6vyuzl7Hkybk9UX+bhdidedmcIYYczPNr6at0WRNtyo/Nm1GgNOtUAhZ/EDfTDmVXazla3mbgtlVOgPyfKr6/yO4UWkKZGXVkgRxfyAm9+kHEwB+0NHRrEjV1Mp+KtqqZ+lZ35ab7hEaaG3C7sq05dWdJHjfJlD/0IxNKLV211MZkNdiofv6a9/S1N7uuu7b/eTeaHwxHDiZ6CO+f+7PUKAcZUoYDdLbb1W10uJp9P77giHfkYcwRBiPR457DrN5ho1EAhZ0E004DwVm7iOaLoxDVNbijUNduJv9O8SDSa70tv+DuiEnDERhRT7sK+G06d7XxwD1+Td60AOwRl3GuOBxNFNKaJeunj2hjzpkFx5t3K2HuDVj8nJMk6S75qrGkdjdqYqR03PIkkMGg56JuaFUYDydMD6ENM6E6ONuzueALVmYpjKkH86oXbHzC1XWg8e/IGNqjHIHoQqAufWh1rF2zEYx18MkhuK75Ba3R9a067psZ+DeJBGz5cYXShYcidhcBspkKUzwdeXr4biqIIgn2Al2dT1R+6fAR8hvQH2yl3LpfrQCHKZrPUVQcOfdvqGvOmv2tUBo1S+uprDRWjuYXAyNjC0VzuJC6JTL986cj4w1A/DgC9MRrBA0Hcbk686YIqFZVHFJVfEgPvXZC6M1Q1jZ6sUqcleA1xH8oikgzGIWacbPksJoOeQAVH+tnJjEShkiy9Dv63KkqbckubSAF+q3fFpmiK/lNgRFRGg0ld9t4PZeOj55z99GpK9KQhA1OYmppshWG8nwqB2dxBZnK4qFqhHM0paJCAo5OKR85zor7+3jq10o0LaRsodIi52trBrFHr6Dwhx/4eIbI4vkAg33ERGKm/W7Qtbro9I2Nte5GVk7GBxSNhB6Hw5rFFjqU9uIT7Yzboxe9mVb1bhHtwe4hoqC9pMSt0hJB5VCzP4faU16sHAr1CplAQPB5PwqH2f+N3VJn0eaFgOgLrSPb36MzAtxryyzQGA47KCbKVY/yHq6Oroc0rbtNcKsiL5rlwna/5qqxtqi6hVS1ptPKThfP8UJRCEW4OCtDckGBvKBwrYq4PEyuBoVcLhhtQnK2Imu7KGlLU5kAOuEXAUf08A+eNi9A4NXU0uPs/VM8QX71EPLLbQRMmJi0LZ7pPAUNvMwKz2StUSpuUKzc99ewynbm7MDOrvB8hR6dnJAvJZAaTjpofejFU31N69JNi+7ywuVssRVMeeUXQb9LUHD2U14rghMm/SYvxpFDodLI1be+zycrK44fymkCLib8/Xrk9/bFXkswGAoooanM/yR6aXKbME3p7NQFc3Q8iTdTeBsX+A3W70iM/fAvMoJoV3b1fH5NXyBFWbMSe2IHMfbazjE9XfRme+Mz9vTuP2c7/tKq+zmkX/SLxxBqTRtn53lsNtulW02VZiUKUvI50+dtJTZAgaFTk43+LdJSvrvaf+2UGwtzVL4QGAsrwwuG3JG7fYDWU1xw70Y+QGFEPCTeyUcSKTc7WHGkYprDezpICn+QnQA/UrK2pG3dptK48sxL//8K3vhtLshrk5XUnvlS4ccknAMza8tXVi7+MSH4hiEow97d2n/1Xo70w1AhBckYsmCcGE+byqvqz5+0vOXNT1hXSQ6EpL4d6gilkpbolt7rNPrPsNqNxauo2viOQvS4gpLvzq6oRcyaoIHHTKnJuVfGI6a3xzMB7PyMCM0Oka3qq1xiMKIVGGSnsOi64QCgbMaj1k2MxlEonIz+j8PW4JXd30yMm7JW9pFPPVRWOWAXkLioMu4UIBAa88Gdu677LX1Q5HyGDC0rdu4t94c1PL7pZnXoLc4empofA+H2Y6dm8k1KZdaAzO3lfAwhlT5IHQSXN2tshfD0FdAeqGvdlWja8GDFyt8kULMCoU0UA223yAleeeXUkDwIznnx/tK68AvLgVCH9meLPdq/wZ4IRZgMRgAjMbARmu1c4s1sHlh4iABH4mRCAVPgzAQ2zgQhABO5kBCAV3smtA8sGEYAI/EwIQCr8mYCG2UAEIAJ3MgKQCu/k1oFlgwhABH4mBGbzEmvEO2nbdm75P4661ySYNMKcNU+mUXM/Poktrr6zLn7qExuRk//MGZRvQWlcocCfRUF0Sml9Y7ebnTOO8oPV4zvTYxgEgqrs6MHcaau/TAmNkvN548RPXLl+nLvj3WJwXnoqRORFYXU3PPqORDpe1Ft3j8Lafb//fAbRSyn7w7+7ZSMNz189fze+7cn8/gn2zgQEHkzBHchsdbPJciolJfC4b69heVEJ2qqG3UWYSBC8poHAbKZCsiBcYGzKmdx66bGxYwnCuLorLk/72NF/xjtsYQRTnW+XmEE58WkPpIaSe6QdOtTLx3+lMPvD7Max6m5tyv/nX2vWP5vB7nYjP/GTVYF9xv0uN/k6l4KioqSQX670jWKTiBZzl7T9wCcNRaoxiqXqfPONTtaKhUeWjhHhpwjWKT48oqDODz443431lpr2z4EUhps7UwianxS2rLnh4JB4Eo6689dha2g2C1ZLn1L/PHEJAAAgAElEQVRTeqnt80ZM7dcklf3hs874lOhtUzAPo7oiMIupEBUIuGppLlBjQMmoWT9qnTUmuaobHYzgUDIR0Q/dII8pb4Nh6RJ5JLwgX0Q/UuB6rExd28XxHSVSUDeFRFGi2Wy0SYfVtepBXN+kbRlJ5vOf7CuyfcUK5hAowD67z9SWvGa0ghlKJjtV31EQxx+UTEGMOvPobd0jo93cN5xoy+I3l1hPfX1l/7UBDcVDNA93fSwevLmcfqLU2p6+CzdpGkeO8icgzS5WLGXfVu9rtiIEQuh83gtrg2Tt1ydUCL7Jgtw9yWcvFeK4Ah6ikSx77OmtTE8Wub8s+3+za7Gl/mjgql9tSgii48xkKkXdePLzrBK7WDXKFiVvSo7js1AERa2y/IN/K+xEMBFDXes5TMwV3E9LX0mp/G92cZsOQblxaWnLAlAzwmB7U8z9CmnJ/31e3IMEpu5JNZ+7ylq+JppDRfX12X/PKgM7hcmCpLSNSQIGCnQN5RXZWSeqscC4HXvjJYf+WWArAD3hN89G1rz76UVd6C+eXWWtUPqLBF4UMsUsPf3Jp0U2txT1idn44IZYH9SCqOsrlL4K6Skgce2T9EAK/eqBj4ucZHVsbOU2U+wGuEYpj2HGN6Qlx3ApQHzR2JR/+P+K7Qq0aHj608s6vpMI1ieFelMQbcXn+44Cf3Pyet2OHCf5xzsgYwWp9PCF/RW2t5dGZUcHsHtkUsRT6/x4FETT23vqv9cyxz9uxYu9a2vYhnkUosXQVHH97//ttKvJrnhk5YO9defZgi3hFLDLu+hYyXuVGFiscMEz9/OivAlEq0nRJtt/8Hrp5PZuj6iWn/8b6725dALS0LzTuYNM89yWzI2n44g0ohcBMenU/86+ngNSWvHzE4MzwmlMgrWnpWv/GbnEgvBj+Tvm0+cxCUjK/IUAA6v6kyOtZc7bmU2mxmvKxkQ/H+AkjiXDhvfa+5h/z1e1n9ueLZsDq3ne1pcneLMyVvsngC3kJn3NlbYDV7SwUw0gmr1U6C3keRIQTVnmB0f1RGHqUzuWLyioLQLEYVY25H9R0qo0Iqgwfc/2aAG1RA6eBXbitt8k6c8f/XtWq8aM0rwZZpuWNSeYi0pzOxFW5KatyeymnMxssY1PBRu3J+FyDn1QrcEFpTy9g5n3wRc2qWxmsJDNRsJwOV+8fVSJ0GkkNaA8lJ+akc5vzP7gC5CYnfTY71JXVVbnSFCegKvrKHScGkAEw3zqtm/VCC4I+GscPXru8F+z+9HAjU9nxIQzi2RKhBKZtmMDtTDrrZJOIysh49lU65VSQNbCpCXeTfmfucqLjZEpVinsclUeY8Vt3bXMcPLztyvkZkroL37/8D0LKz/DSBwBMrd0LlNYfep/X/9cDURkCI6zAG5Sr3uwIC5/aSEsoUH+5TVXL54WG/HaPaQvPz6b3Y7wRBF//XWMet+V7KETF1ys4KgZj8UktFTs/Jeii8TIyFj42v26R4/12frhOGGS4PoXVx/NMhgJKM2u7oWjbtkyj/5DSfr3OiOJFBmEdk2DB4Htro6XszpsY4XOBcLFL+fF90te+FqtpXm//DC78avrOUBxEhCZB2P+nOaXM5v7yF67H+Rvi+h745pJUil5uZq+O4NvzL3m1EF2MojD8yOZ8/r6c0bJrY8BqlMwgZ6xietT2bz7qwGjl/feBwS7+mv3NTtvlp7YxqyMMWtnkMl8Ibu/7OSZJqzDaOyW9yMoycH7ms5WNY7O9PXhMCkEbY8cm12gxKxPYV47ml0MeBB8NWt6FbaeJovHo0ulyKpf70gw52d+lmvjQfBr4seEE8TlmGeHEBlMslp+w/7TpQj4vsqKnOPFTUoQYAablEEMn2Ub480lR/PtiXslHVoG3RNFML8V7RRLbBYd3CQGwglMPs+zp/i/OY2Y0qAZ9EbNfQosW05ScoTi3HHAg+CLQq7UmWWYdBgnQkiWVte4vtnHyNSRGeKiPIaGpyRz6nKPAx4EMXRSqQLxZNmlxwC50+XFx0+WtamxKmn6HbMxN6nXPVgQ178sGgnRGXtdf5u4FfF+xgrxiXbgwVmlFU3fyb2TRRTXxEPf/f1X+Cq/PqXowiSyVYfPyokiXsKQ8liLNLPSgKFoAsc02dJYDZ1KxC+WtyGURDMYahu1kz3WaswSON9AA7zwsk6b86XRSQZIAazB351FfbpM3QfqNKCq6P7RB3iM4134+A0Ljj258NiTsX8WIafPdl1zRWm8xPZ7hADvBFxfTuUAKIypr/e0BBcVginMwmu2eoW2gcL63DY7QaG+HKZJ3ok93szYtC2rwulGhbJPh/pHoNKjmDI+OTo2RF110NWxQsBAoS/ivzxdQJXlHq/XDI2RWVWaAUqkKDGGivjHJbGvHT9uP0wZFQq4qsZzIwfg2NFRbFn51cEfF8WXSVVg1Akojy6rlDjcH06I4/gUQOIcebXDIEIXBDpG9NhR0UxpYaVDiZXOZlM6a8DIIMWfzVDLux1DhENP9FiZOiK4DBSiobHhSGPW0DQL249lVpbZRG8xcpdXZ92M/v+UfmYKnQmhoMMCkI7EBBYNp2m18Rd2mYA8GY1JIgLWdGedyCDSTAb7+U3gvlFp1JC8WIMS2RrtkJ2hxOZTmSXGZMGWXy7PsCoLTtUdKHNv2V1uE4aZ229YVgfQqfX9Ri96qIe+onfwSTKZlYPTK0bQBZ7jfEjraLOWslO2sUIcjhvE2bMpjHqi9vOu0dHchjjIl0ojUD28du9gOSKhc5B2PJjMuslJHrdZzqzAWUqFmMNFkJ9ziLOiAlEY2nSy2YxwU7elcsv/993ibkBArKTfRSASGxV5+7BxitpR3Q3bQGH9yQO59PTfr0oR1XxRMSh8DfwmSSCR5eOtlp87mC8eFNoLEAYirblDs372Z8Hbl6lTYH1w20WbL+Ipq/NlYKBQyOltPe5wM7mx4Sx5GeBQ+2xPvqPnRx46dBTl+LOGKc8zOtJfIf0W0CsdzJCAAUXQkA5OHTdTRyFcBwoZ7LmEniuDUl6oMDacIs6vx+jVRu7SglvqJDkK4f6PpqVPSglYEdpQOuLoTFOXxkrzHOI+wIyIpmU0ozlsGvt0GsIw9xGZRODrDTGj+4xNuoJTNYAEeaKw1x5ZkNFx8YBTO6Io8M/dp5tEqLWspG3F/5v3/ja91mS6VthycsLzGMY3arXKWnqvqNgL/YlIl9t3wWD6QWr18nD02LXgtFKN/P0s2bWfdu5r/ArciXdnaQcZGyhEmUwwAQLEkcJTN0Qri3Nr9Qg7TMhU1TUCHsTRBWvSl3MUbfZO6wAY0eOGRjlelWSg7GprLGygUFLdqFaUfluoDEtJFjreHGj4pjShorykrLKmTtytGvqNMPlB9M4msctvpl+lpgC3FDNIDkxKX8WoPAXmYxA6E2RnfxlTAtekJXgrxKAwtl5zW9Pg2h3biB7WawZMZzJRvFhk8AllxaUmC0A45oqqO2QqckTyKnCoG3aBUU5bnDEytcVx6ow7vuuUahPTH5xXhck/R25Oi+rNza+0dYRt5G7LyPW6Sb1uV3ND3zukX1YiawEZxVL9SDgajRIZTGUh1tIfuhCRIJ0HmgDHWyS8168vv2LshZMdnfntzC0b2X6g70fzeiTZz1jZXjGO54OjJMQygHI46CorurW9VjzR6ZfBXPHkH199JVUwZpEnvEHlsUL7ZK//u/H57OZM2wqYiS5LnwEf4EMeo+uK85nHTmBZxI5hGXfGLMYeFXG+kEoF8yQMr/vDPeymTO29pVZW2iK6D/iOx/v4eIYynJKj3JhVa+MCxx55cJfV7AibnV4hmc8n1xQ0Bu8AJxqjqElanJVl8xCVEqBrnfzYs/E6q1pcLpP394jt3peyLP98eHrai3+6V2cmILq644eOAQcQDBSyOq7YervdhadKF2ZsTC79MLfTSgFTxgg9fNP2CDMOSMOa2vIPHjoHyIsiEPjKxbbRSeerszC3Qpi++/XlQDhRL/nhPwcKm7DfsLKhWp6Y8sSL8Wqjuq1Woew32QYKhQK6rFw62GvmDx06am4sLVM+As5oTlFrZLUdCr1toBBcbWeP5rO3rsp4ZZkZmCXorx8/dKRM7z5TSuTmnclCCoXKohHN6XuFOnlJ9meAl3W1Zwpit/9q74sYrStrczMPV9h7xDZyL3Eld3vtpq7XPWr9oAtS9q/mgiOXkI1hD6YvSfdCiQZDV6P4Ty3apuq6vzAiHn8s6RFwsLW899SnVfY5E9HGxc8sIiEkCpHC/OufAsBJ0Jnv1hWYdEc+raA/FHnwrQVEq6HpSu2fvrIpfo95EaKSYl7aTgFdRaNOU3Hm2mHntdpmk9k8YglRaHzIrjACgUQkkGgvbPMGk7yf/7utzEJYsz4kzRchehC9EN77HIupT77vpBw8GQSTxegf+P7jgVj+JuO18pb3y8adt7UOnCzp3ZsU/ulii1ajOPCFrAJLiY/fuOAY+GtFTBpt6YXmw9gTQEzdKLyHBeam8V7WeR/yrSZ51+u5ij5k4L+FPfw1woOiOdo+1enq3p4QW+VN6sxv2rYlBb61mExFLGAU+mRBf+PQWiVf0arkhdL2wnJb3LvqmuV6hWQ6xewi3Qp0ramIvt+dnit2CwWCrG4WGw4/FODU46dTcSczTziGDjnYQuX8t4/Yl36M/fCQ6TRErXGhScCkdBToxU52pZ5NlBuI0brJhkgHt1wL7zZTN4ntQSiZTnCFa8zI8MakEfDxf/9eYs7X0u+x+RGE6s99YzM553+bv5+EczjpPG5NRPLinc+v6vl833Hx3dd9np1e4dBzoR/NGkDXeqwz4Ma5NWQRJ4yLRMXHBqdQPMMTItDG/PFXuNkS67FVNa6XdezCuEa1fcdEud3eAM6M2rHGxfm+20zHMACs67E5YnjdYgQIdKKXxdKDnT0KLpyXF4mqM/ZMffL3FhfLnTkez1dekXMX8iAAY5ZTobvmvrkwq6ym1pz2yIuCXrUZpZNxisbzn+TUuHPTbi4fmHrWIGBq6TjMC9q5LZpo/RHMcWkV6v9+13Fnzlo0/uf1xlmD+xQrMss7yFNEY9LRiVhXGtGN6vBO2gCMCBGACNxRCECvcFrNAYbWx13DMC2jMBFEACJw2xCYGYtpem/cuG0IwYwhAhCBuwCBmUGFd0FDwCpCBCACtxMBSIW3E32YN0QAInCHIACp8A5pCFgMiABE4HYiMHOmTeia556TRlwS7PmGPNbSuqkDSeAvvzdKVfht1chNoXi/hHtFyKW80q6JVn95Rm1MibBWnzpV66oMM6nC2JJ72jeKmk0aZWd9RXmjYqJMJ2UaRoIIQASmgMDM8QrVtHfeCZStaXpv5a1bpM8IDmUrrze5bo4H2jCBhpa67okpiRnEIWq11IBA532cU4AfRLX2XD7+1dF/f3Usp7BG7y1aHM4YX51katZhbIgARGBSCMwcrxBUR01/+zDju52y1HJ+zrScsJGQ4H2F86idFc0uOsBz6MHB3jeaL6ucdYPdgjnHi8cld1+rwYuCAxn1NbaNnMwF61dQZR0oh00lkHH6tsqyy22grNSItcm+iibLXA6DRMYbe2pKy5v7R1CtRd8nae0VLabScIjKQvCPTojlezNIOMSi7W6+WlLVY1+94x+fOl97WUKfH+5HBRJVbZcLStsnpmy3xYeBEAGIwBACM4oKARlW+JzU1v1iaWBO/giZ4Om0KIkbyrOIz7v2gfG+ocGk9lKJq6iCmyyYvABST1V7Oz4gJiKIXlPt6LjTON7avLOXVRaiX1xKYlxo7/lGwLY4gr8PPq8g/4YZz4xZvTYhRH6mfsSJHUR6YKC3sbPqBsZsJtUN6ZXW0m6ViegnWrdiQURbXqVNPhBczNAIxaWL3/6gteAJRATyoJuWgUEQgakiMHM6yPaaWcgVzThh6AAmp3RzF21esG9fc4OrEB+BHxJgkjROonOMMHl+xG5Zh9nU0dZD9ecNdWwtClmLCmMoY7ekzejt72uXR7L0d7TYRJUsSnG7ypPD9bBVAOezaMsDWx96YOv994hosooqmd3703RKAQ/ajMi69UTqoN4cluSGpKpdi2VgMRkhE9pQhBdE4CYRmGFeIaitWouns29aNQDvHS6kdlwd5fuB0cO5vY2XJjExM8ebH8CgUOLT7sdUhYl4+jyvGofjZjI5hjN/1BuNCBHojdquoWDEaLAgBDKgc0BkYKzwm/ON4CQNlOobEb9ibZzldHmHkTA3dP78QG8KHkTBUcn4QVVVzI7RcAsFlm/y+YHJIQKzBIGZR4V0qsU4cLPFJgaEBlpazslcfCrQOZ5HkFWMIkh3jc3iBhK6Lp+u6MBs4AIXrxEEelUqbTMwZHBEJoLp0MyhUkiAuYCfh7EhAZyqidj63RQPIjhtDKM/J8tmbfd1qTI81N8T6SaKVswn1xecrQPjiXN8EjYtvenhAKeM4EeIAERgFAIzrYOM14uCrTUNHiPPI6MExq1NivYZVbuxAqjBQh9Vc7PSZWKExI0IMLU2uI4eurUyN4hLlEslKq1GC/6pm9t6KQE8pm3yF+/FD8cEofHAxQwkyNu67T4i3jMwlE/DI3hyYASP0d8pc5muwZN9Q3lMi/oGGEEkEMERlDrgOyIEZnCw/90oKuwWdRgIEfipELhZ9+qnKtcYdumink1U5tsXRzpJuKC4lBTepfrC6jGSuQR7BwuonVVi14kRRnDwXGXzD2OpGTobmePD5xJvVNvOnrNdRlmnUhTMZ1ZJwGe53CJc/cBSMFPc13ypbHCG2nKjSxu4YkMCjWDsl10uve6YoQZjhWkPLAImfrToVF3XSyokgObb66oC4xalpi0ya5Wt9Y1dXp6DGcG/EAGIwE+BwMwQ6XLUnK7+8xsSdk74zvyRRz54r33iqejGf/wt33lE7adAaxI2wWKa9fT6r4qkI/ve1Ih16wOlp/IaXPl3EiZhFIgAROAnR2DmeIXYbpM2bmHwHhceBENzPD5TWlZ+B/DgT95cMAOIAETgp0Fg5lAh2G3ycqRbEPQVn/zFdgoOvCACEAGIwPQQmDlUOL36/eyplFfzsDPJXC9t3Znjda6B8DtEACJwpyAw02aQ7xTcYDkgAhCBWYUApMJZ1ZywMhABiMD0EIBUOD3cYCqIAERgViEAqXBWNSesDEQAIjA9BGYUFeKCkh//fYpgejVF2Kt27kkLh/NE04QPJoMIzGoEZhQVegtDfdXyaa4fpAuEfH1Pz00LOdgfB1SUFPHey6tO7b+n4IO1R54OWzE97VYv3ntP8vxuxRMWsUGc85ZsndetsAVtQATuPgRmkpMExKXZ8iaxFkGB3IFe50pqKErGIXqjazCCoqjVbEb5An+F9JSrJte0Whwn2rL4zSXWU19f2X9tQEPxEM3DXR8hPThZq7RQVgjuFhRp7lLp/k24v7/EPeMqyD3ZksB4EIG7HIEZRIWoQMDV6xQpv3uR58Wg4buLDx/MFeuw9vMMT07blMCjA3lUc0dhdlauY3sxCP9FWgIHiBnoxNdkHIOkvBOhLd351IKmj/9ZYBdCRYVpT2ym5B84Wqvlpi57Y63qw+eqKyY4McA7IGMFqfTwhf0VNtrVqArkjqeIJwrbc19AFAMx9ilPfV1zoBpsJyal71me0N5iFPpySAQaTlf0ddX+SgPCYO/ZLkwIoNFI3h/+mQ/SdxWX7z6FaXMTAzjPPBSS4E8iGjSl5+r25/XZyXLFIysf7K07zxZsCafQEHPRsZL3Kq1YxmTN77f11x2NzIE86GgH+AciMGUEZg4V4rgCHgVVKs7966+dRkrMwy+mrYw+Jy7TU8O3/CaN/kPWvs9kejQo5Xe7UpZc+fhcD0IMSsnYyqv+ZF9mq54a/fDvt9PbjkqtiF6uMLN82ThECWgEDUreGC3//gPbGU3aTkVjnVY5AQ8iCC2EJTTIv7zm6n4SeSGvbfUq/aTwpXozSxS1b3tM71uXsnuBQg0qiqW8uu9ikQrxW7Hw4P38ouqGCpV8/0dyXnLCwejO3R9Iu4YajsTa89swVvGVX+5TGX0DXn1qwR75hVftnIvghEmC619cfTTLYCSgNMTGgwhCX9SzHvF6phTqeE356YcJIAJDCMycsUJvIY8uu3CiwKYGo5P3qkHPF3wKXJUWJc/NLpZhOgfmVmmXic7Exu2YcSkJ5sLj+a1YuLZbrjF3Nts+y3uUJBabjiHAWZkW25+bW2EXau0rr3vrkFSC3Rj3YtFIiM7YO0o+OiqBw2qSHK43gwJ2VbaVarwSIu1vGmtXRVuprQfd1dynYFB5Y2twE8MDVhC6s8+qgNyhsbv9VD1etJDpkH4F6VukmZWY/CFiMmsGOTsqYoDYQiudkMLHrRS8CRG4yxGYMV6hbaCwutbRFaWw2XS1XKbHBcVGUsR51YN6Lyz2XILyKuhQ0kOj+PLqbEd0IpftqZBKbB1NdXePLpHpDVzCpE2Ldef+t2zwyJDJPgkKnQmhoDYudb5wLC8SLXz+kbfm20OJBGsTBSjoYL6bRmPjL3BZkCFdrxGpB7/QgBGa70tv+DsCCDhiIwqo0J5Kox2045R4rodFrR0p1ePWNAyECEAExkZgplAhNlBo7ip0UBs1PDZY13hYhqALmXR1Z9dgX9U3Pootq6xVILhwDtskv+CYkSCHRQtMkuxOGwzWHnkfQ+DtE7cyCSk5UAo6sFO8NC19UkrAitCG0npHF9VuV6EyaK7VpX8iH0l2mAc4Pv05568BRpTSV19rqHC2PW4Jbwzg6V6jfNRxk8CbEAGIgAsCM6SDbB8oZPoyQfFRVsx9KTxpQbHYjJhVah2dE2Bz0ejClPvjkQsnSzE3z2y2EpjeLFt4eMr6aFTWBAYKbZdCfkPHjE5LohSfLO6xB9n+94qLfOGxIL5TyBgfO6RfViJrH1mQEUv1I+FoNEpkMBXkVHOxXREi3CWi0AgIkUaKjPQSjt0RtpsG7Il406Notm+2pjDWthdZORkbWKATTSShvHlsEXuMYgwGA01v4zxVAhwqnAAneBsiMB4CM8Qr9Bb6myuKe+MfezEJwaG6ptzMf9s6ttb6wrz6Rze99PwaHYJTic//X+bFVsxFtDaVl0hi73n2+USFWl4nVeocA4U2KORdCnY0o/BgYecIz4vKAadq4pkERDLRsJu54MglZGPYg+lL0r1QosHQ1Sj+U4tWIRW/eATZszEh+1ESAgJbZQda+prGAx/RVIgPi2L2vLFuj85Qc/rSS4U6xKDYf6BuV3rkh29RwTSxorv362PyisEZarfG1GXswq2SB5b6n78A6dAtQjAQIjAxAjNKxRp4hGQ6albrXSZvUQqNZNJoXad0ESKdRtCNCqdEPvT7ZM3Rj7+1keasuAKWSz7dCtYV8uB6mlnRnrAStwGBGdJBHkTGrB/Fg+CWeTTf2RIY1aN4EGUnbE3xqT5+evbwIKho+wXes9+Zdz0rWwl3m9yGHxHMcjYgMEM6yLcAanrcw08m8SgEVcXJwzlts8YhdCCDu5ojSM25BTBBExCBuxOBu4cK1eX/+ajBTX/57mx3WGuIAERgBAJ3DxXa+suTX9UCnxOIAETgbkJgZowVes+dezc1CqwrRAAi8HMjMDOo8OdGBeYHEYAI3GUIQCq8yxocVhciABFwh8DdSIXk2K17tidiG1fcXty12x5LFTgDw0na9vSLzz//yp7NY4tg81Of+F1q4N0Ip1sQYSBEYIYhcDdNmziaBuWFhqPK4rFUGFCcTl7T1OG8EaWz8PMPrix77KWoHtlYi3DYwgimOl8+6Y3DtGULTzw8ckudVXXkrYuZHdN5gBIeSlhRWfpe/ei07KTIvQ8iJ16vu9j94+i7MAQiABEY5IW7AQmgeo2adY49Kth2ZqQtVwY28JGJiN515wpibivJbRuFClHI81OIT9rlvJzvoijRbDbSBXyWvM4mAja5S1N8ZUMZ8CEJmx9fea+0dPe3YHLbapxox5972ziqKJiEVI6+SYgJ2ZtByH+uCvLgaHBgCERgBAKz2yukC1ZsSkmMZlMQlIhqKrP+fqxazxQK6Aq5cMeeVF86hY72l2UfyrZJtyKCDU9uifGhU3XlmX/NkYx8UHhCnkFS6nysCuoTs/HBDbE+qAVR11cofR2nBRB8d7+zwCe36OXTAxM8akYT8CEtRvCf1aLBPjsutyrWRJ7gwyd8Kw6WHmixIiSvPXvjoip+AKrXwjUxjy9hCf1JyPaVCcCGqffAmzUFdkqlb97p33f8h3zoD07QEvA2RABs6p29IFAEm3el+9edzHy9Vq5DyCwmQQG8NrKAz0YZyq7sj0/IzPT4bXtTowKza21dS/Gpj96/lvqHR1niUb1UjoCPtucPatuAuJTItB0bqIVZb5V0GlkJGc+mWq+U2kXAdC1NvX2dY3WkJ4R7DBVro1T8bp73vodDKvY1E++PWaFq2HtaC1ZJ1n5ftbuI9dJrMcas8yM7yIQYbhKr9+h34EwBeEEEIAITITB7x/m5SamxqnNHczAeBJdeocR6tyiPH2SuO3m81DbqZwLuk1rZPwwSk8+ndzRJXVdi2/q/kqZhfuMkJUcozh0HPAjSKuRKnXlQBMykyvnH5c+rXC1M1A6D98dRsW76viqzl7Pnybg9UX2Zh9udeNmtcXY4w6Otr3a6BXFrEwZCBGYtArPWKwxcEE2X5Fc60RzWhraBwmHV6wChv05SPNztpQiCuXLJl0BMf8Q1aqCQHRXNlBYOGqez2ZTOmikMFI7zNI2rYm04dbbzwT18Td61gglPdJrjwUQRjWmiXvo4RYG3IAJ3EwKzlQpRHzZLJ8d6xCMubKBQVi5xuHeu3V40SMBRSc8767naUrsOFKIcfxY4j9lh3DM6Ehwr+u0tOMMTZDWeijWBkbGFo7ncSVwSmX750pFRvfgRNf1xAIiW0QgeCOLyNnBBBH6FCEAEMARmbTWwpy8AACAASURBVAdZrTbR+RGB9hOSiHQmFastNlDY2yR2zAPbur1ip26vr5CDk4nbXZ8MG2MOiWBjd80mE8WLRQafUFZcarLAIBHbBwrBlDAj9XeLtsUNn8zkam3872OrWOMS7o/ZoBe/m1X1bhHuwe0hoqHjTCxmhY4QMo+K5TncnvJ69UCgV8h0CzJ+MeFdiMBsQwA/18ffbZ08PDx0A1PoXk0p/pQig+JNNT6YlO3t6fNZsP7elNWJiavXLIswN/4gVqGCZZv5NwoKGm2OEjlq1T2ctu/PijWoYMMT2zavXZUQwiSzQxbGi6JoHRVNqjnC5N/u2LImOT6ERWYJFy1eFEXrKW8G3p9VOUCNWrVhzZJ4UQxHo7D6GSpzrzoOWMF73fOQwK+j/XzzpFbG4MLj54X3t51oGIxt0V2u1wmWhf/uwYiMZN5KPtp7vau6D2HFRr629sfDB+svDiBysQK/aP6vAvrzanTYUOCPhnY1afU9Ubs28LYsIkmLe2XYEkJrh9FrjWChtevCdXjwidtHHAZCBJwQmBkq1kCOoffGjWk0HEqlk5ExhF2nYc45CZDOpiAatW1O5g69PGLCXtlLOvVcVaHzKqA7tLCwWBCB24rArO0g21E1a0cLWd8ivIF09h3Ng6CaA1WN+zItG16MWOo75xbVGpqBCMxSBGbrtMksba6pVutHeWHNC4VTTQXjQwTuPgRmuVd49zUorDFEACIwHQQgFU4HNZgGIgARmGUIzEIqhJLXs+wZhdWBCPwMCMxCKvwZUINZQAQgArMMAUiFs6xBYXUgAhCB6SAAqXA6qME0EAGIwCxDAC6mGWxQHDX+j4lxsop/ZjrWcs/LWL158Uh8lG3/+Z/6tklLVQ8/Kzhq4nOCnn3VTS5bUEZlOsseL1gdiMBMQQBS4WBLWU2GAateM8xVLZ8VfvQ52GU8N/kvEZbPis7WgZhW8zR4EKTzZHF8cKNkHoA910xnynMDywkRmGUIQCocalAzoEKD86HxVjvxYeRnNlnNTg4dY2Houi1cDgOxKPsqj9eUOOQJcT6ro5LXzWV54BCTQX6lMeeLHi2OEv5I5MJQhg8F5/Pa8hXAVmvLlwdlNtlszLBrpkPFgR8gAhCBnxEBSIVDYFvbcqv7NZMQfQ4Spj7iJflX0X/qzNSFkQ/+Olr7l/LKXgRhcFZspko+KDzaakUZVDbThPGdVVefVV4fJNz+NLXkT5WuHWRk0pn+jM8EzAoicBciAKdNhhtd23KjcxJn1nES/DyvS8rqMNFD7dW2Jo2XMMr2RjHoVAMUfhI30A9nVmk7WyclID3JTO/CRxNWGSLwcyIAvcKpoo2jMkmkiKjfvhvlSEmwKjyAdqAZMSjOvFsZe2/Q6ueEJFlnyVeNNa3TG1mcapFgfIgAROBmEYBUOFUErVqVwVBd/69/3XBzlJNSUXlEUfklMfDeBak7Q1XTm26eaolgfIgAROCmEYAd5ClD2Fki6w8VLl1IIREQlEb0ifJkkWxGmPR5oRQSQNRk7u/RmfE4BD9oXGMw4KicIBvak4KcEhi3NinaZ8qFgwkgAhCBaSEAvcKpw9bacuJzZPWm+N/uICIGo0oiOyvux042ITGiHhJuZKOI1Wro7as50tA2NOnc21lS4JP8xOpYi1lbU3f0s54JZmdwQXEpKbxL9YXVUy8eTAERgAhMHQFIhRNhZrqR+wdXxT9tVUtOVYtryi5Zzhsy10DHd3PbifJPT4xxc3Qwk+tPktVWjmVtdAIYAhGACNwUApPqrd1UDjDx1BEg8/hMaVk5lOGfOnQwBURgeghAr3B6uP20qfQVn/yl4qfNAlqHCEAEnBGAXiF8HiACEAGIwOSmMyFOEAGIAERgdiMAvcLZ3b6wdhABiMCkEIBUOCmYYCSIAERgdiMAqXB2ty+sHUQAIjApBOAM8qRgmlIk5uKt21YJKTiTOO9v2RW6KaWd2ZEZnJeeChF5UVjdDY++I5HeisrQhGs33RMvYDMQdfXJQ0er1LfCqN0G2UcQwmd7oOYBRYekqVM9vJGSuXh7ekBF1vFq/a3LDVq6wxGAVDi5BuIkpUdJsvNbJxNbeeno/mrRtueSlV23jAdX/Hrtq4tGNlaf9KVX6kqnIfjgxXvvEeS9j6RdTpXhLQrbs4ETxSaBXYMKeW9BdlVms8M0bVHMX/2bd38zKLE4DgSqzjff6GStWHhk6TiRRt3yXLXoD4/RLrxadKbR4nKTLkp7KF7/zcG361RkKkE/PR5Ehclp3MrsQrmTcaZo67aUIHOnTGmlMH359I4v/3GkQjMYAbUqGmokPz0P4kPn+z8kYoV5zjGqtBeKJZnNjv1JXkH+u5PYYXREK1d8ntd2oW8UaCMC8PMXBmXEMXxQi6y5658FcokdR7x/wCNvLqKfzD/4HydJ4vFN3b13IRW6tj1KpqBmnX6E1gI9Zl0Sua7MNeo43wOE/gZJ8eg10jiUjJr1k5LvGmG9KOvshiNAUpv90usRxqzz79WDu1bjNHgQQWihrBActlFw+GLznn2Y3Xns0qPVOqMHJWQezdg9ZBoXFeJFmwQNjgPGeLcI86Oe2utT9eLp0TyIIOTweEFf2cfVCtAamn6nJkFRMg7RG0cJYgB4iYh+ZOMxE1LikPxzzoXwTNxyr09t5rv5nQ4LKA4oCw1f8vIc1w1G49Rhum2K4EmhbKTsbN37HWZ21LwXkwMb28UXwJZMCmvXelZfYd2jTZawxJA/rPdt+bJ7nI1HhKCA3QvnnPyqKkdDvn9TyJ6lA89f0GKcaulo/7+XiE/tT97W+13muak/dOPUeRbeglQ41KgoJ+HBtJXhdBQBDohZnHsoE/gRlNANW1dFBgV6E/TcZ59fA36RV47+M6eNnfLETm7pO5+U2z0HanT6Eynq7A9yJY4fFEfAR9vzpU5UhbJFyZuSY30pKImiazj+6bEyJXaXm7rsjbWqD5+rrnA59cT1WbPaiQ9LYzRZjU6xeaKwPfcFRDEQY5/y1Nc1B6rBj4m0YUdCBu767n91AtePt2zhvvWGA/tqChD2nu3ChAAajeT94Z/5wFRXcfnuU1oig8Iyqb6u0HYBszptaa+D+Wjhglfv8w/hUGjmxdnxVsRiKvri4v56SsZziaIrJbvz7T4vbu2vV+4yVP3yC8WYPzYK45cPRW2JotEQg7Ra/Pdj7bWDe7Bpa/fEEPK++/raSH8QDUzesSmaxWSyUCs34/lliLnp5IdHa0EGnuHJaZsSeHQERzB3FGZn5YpBEzCTHvtNkPQaITSGS6fQ0f6y7EPZtVqEKUrfkij057BQ3YN7nwfvju4Lnx0sBs5hAN/fKivuHma/wXMauMsyti/nMMhIdfbbR2sH77NX7dyW4AuE2MCFUihI3dG3j1WDmzfbppaBnLMD9obW1itbVvpwaUD1EqHOY87X3Hi+EWvka5d6GjN8ljO7jyntEd38LwphGJvFOdjzNHCyvO+e1aywEu01x7PXIf7si3lvPhlzseRy3Zjt48bo3RcEqXCwzQNT0teg5z56BRuNQllsT52tP6VrPPWJWLr1+RRV1gc5wwc8KbuVOBGbjSBtIA4lNCU1UHz840EeRBC6gM+S1zQN/9S8E7f9Or7zxIG3G9WIZ+KjT6ckCcq+bgJptZ2KxjqtcgIeHPu5JPJCXtvqVfpJ4Uv1ZpYoat/2mN63LmX3Gk4duxa1N+aZFYqXGn2f3ehRlHW1QAWsyPd/JOclJxyM7tz9wXAH2SjtLlLFZWznG0+1F3UMl1pTL36mXrJh59oHOy89OtxB1n1XrNycFBD5/fVa8HujsddGmYs+HpsHEXTDIwu3IA0v/k9nE46RsWvxH7doHj3Wh/0u8fNDVob2nn2137VjbG7LP/jx90GpT++g5L6eXTNYJGr4lt+k0X/I2veZTI8GpfxuV8qSKx+f6yELhBxPrlrxycdvy8z0+G17U6MCs2vrEWVF9qeN8Y8+myg+8LdCIDM+dHXJ5KSU1O3q/DPFVTLnXresOPOvtSue3BMmkQ7DgMjPHXz/HJaYFpW+fQ3hQh7Gg8gtbVMCh8o16L63dYS5XiRE1es4Ccek79GSAlg4xPbmdHcRfFj4vgYHzZn69X0UBpeEXBsam+k/WVvx6xWrVlXU5bnC7M7cXRsGZ5AdTY9SGXSSb1ikkAbeDthw2fAwH0cQhEibOp0fRXOPsp/BnIu9SFBBSoqgNTe3fnhoiSjk+SnE4qHfGCUmJcWnvaxGxwoMDApkEsxWlOB4B/WV1711SCqZ9vMXlcBhNUkO15vBT6Grsq1U45UQaTOtURw4LPPesHDfDgGxuOpA/Vg/JFvOpr4D+y99qWJl7Fmd/cKCXYuowDsZ5+q63FZB49wbij08rFhuVG/Hd+MMotL81oabC053NgFPUKf68qKSFekbZX/uPMLYvh3yhg73eTGFPLpMPPyCQQJXpUXJc7OLZRjU5lZpl4nOZIAW4AmCzHUnj5fKMIYygdeKWtnvMInyhf7qJrGLS9VbmPWv441I9KbHX3r+N6mhdOf8KYJgrlzSNDRuOHSPGbt1+yrkXNbRKszaLW1TCj0jyUv2Q2eZjauIBJzR9KMjX6tVa5lDsHukzsUc/oyn4rGOgiPAaDXicNQR8Y09TRIiP8xzSDLOvZ27PRR6hY4nwFx/POtUavLKHc8nd1flHT1+qWfQLfAR8BnSH1qdvASsq9XRi4R6s0B/adWmcHneR6A7NnzxhDyDpHRooJAcHRuCmOQLN2xY6IjTUX2LRGdwLC8SLXz+kbfm2y0TCdYmCvgdYIXVNEu/7uDvCZK/V6iauGukUZ3IvnLiP2jkouDHH1jyKuXCM0VjC4kZ5Ccuh726jH2gvm9tHFN6uaZpHKZlEL0J1Kjdazc4xvKxM7Bo4GcJknh4kxCNbjTr2CoDfD22vEk8BCwuKDaSIs4bmtVlsecSlFcVCI4r4CHD4WCUVjc8Smt7jR0f8RqzGdfLynI+K8v1jU/fnp62pv7tE012ABE0SMBRSc+7nk7IjNu+LV6Rm5UD3Hpb4W5dmxI8HtrID5NIXr7maCWNyUqkzXGUB/Aa/kfTeO6cBYwLAvYEQ4NYEiKOCNhzZC/DolZbPGh2UU2HWfhnFAKQCocg0bWVZn9amhO4avv2jZtiKz8ptz+ZVKHAu1ssdpkLNsvlCjrTl7M8KUZZcKhyxNSm60Chtw8T11r4r0GDo9rgJgKsCpVBc60u/RP5aLLziw97hC0vaPV65H52aZZ85ETJGHlazbVlDZlBvq+GehGLukfbHEpWUdze9TR37TzKSn9l/mdjkyZIoDL2mlRFH1zMHO38DagNCI0CXFA3hUMFAq5amjvsz6G+TLq6s2vwleQbH8WWVdYqwIggcB4r3Y/SunuNOVXd3H2lpiOVbXRqXI6Qg5Pltzvjg7ITfvVwrCznU9u4pP26VW2K97h/Y3CCQvp6kXqI8+UKvTGIDGR7sakSAtmHamhROL9qcAScdcgLBG6wrM/ixSKCD1h0T7KXQS8b2SB4Oh0/0DtuIznX9y79DDvIWMOjTC6bbH8CdBqt2ayUDY+Y+fr6WBXKUcs45D0K1CcxZbGu+GTZSLfGNlAocRoo1Kj1CFcAVkbYLjKbywTPrePyiot84bEg/tD3qX6oudiuCBHuElFoBIRII0VGegntb392wDNbvEqPXXszq+56aNQz8cM+AWBPxJseZe8D29qfGMDeHM3gMXDAufCbF7A5ktDVNuRIWjVaEyuA6efypHS3fydl3Hs/x++6zDYKOfal6SqoJW3YxBN52ez7eq2YN1iYgWp5tz87zN9NYpuv1yZ2mjg1q9Q6OifABiNdmHJ/PHLhZKkSIfP5nN6mwdEIG/jiQfBRX39vnVrp/BqjcITCQfxRdnTaKp6stGw4Fyafz+xukg6/BFDOsl89HC05/pkTD4IC3JI2xZNTU4NXGzr2X9SYSHgq+Gfrw2pbFTXUufeHALTw8xf7hPb1lQ4PdOLXbIo+vIO/3MnHu1bfhwT73cPEIQSPTXFexmZFwwgnnegj5FvaqkcOyEKZdNeHDnqFGCLsuPTHVvnq+1UmHAFR1eX/O3+4SyWXiA0Ppu19cZXRLM394OvBIXxzT7eas4xw6l3wa3RcnKRtDyayyRQ6mIRmP/2HJarG3IM5NTqkv/jUGWH6L176030mMwExd5dk/0s2mIjKYYZG4JkERDK9mROjVPziEWTPxoTsR0mIwdDVKjvQ0tdEoGZsD/OuKH8VmwTt3n+M9eEvY9JbL2Xb+uyaCvFhUcyeN9bt0RlqTl96qVCHeNCTt0TtYpFA/1rTp6kpq/qLY3YYi196pqH00bBP3w0z6lQnDl3KlNqray4olmfsYJfmyYfeBKKNi59ZREJIFCKF+dc/BSCm3sx36wpM5lOHrxDTw575Y5gf6A8rVaV5VUV23VvLtesXGsNXpnp+f8h15sRbyKO2ljoNFCLW+sK8+kc3vfT8Gh2CU4nP/1/mRTBqAZzHILUk37FmkCwUgFHak4MvLnO3WIqmPPKKoN+kqTl6KK8VwfnEbtqxjA0WNOnMYAFNd/25w1kY0eC4Sb/eGudNsTWez++eTVLXHz90st7M3/TwhnC6jrv16WW2aqvKj/0tX4Lcmjbl+m4KInghQW+HBNkx7alo2F2kRXR9n+R57F4V8en6OVq58nBuD8hw6ALDgibLj87rqEztsg/L+bseiNmGWnokHR+WjOwfe26KFBnE/zw3opMNZdKdILV/nBM+f9GoQCzAe+7c3hs33N5yGzil+FOKPNXCTNW4ozpECo1KQXQKjZuVtSjNk2JWq/VOL1tmwo7HFkoyDxZM4rhQWw44Co2OmrXqkYve3GI5MwJpophP7zO8+UZDxTgDhRNWhTA/5n/+GnDlxdMnXNbTjJESpdBIJuC5j3HbTTCZTkcMaue1nCgIAk0NGnQKZtxYnglt6i948qDI9OHJg3kjhju81z7xVHTjP/6WP3rpq7uK3g1hsIM82MpGnUbplgdBBLOmfwQPoty16SspF/47aR4ENqw6zMhN/vbunEeS4vXIOnZXsfSmeBBUx3St6v19vQtfWrE2dFIznGZsBGNKMOgB5Y0c9TTr1UrlrWiLO71N/QN+9WYM/rP8zJE8CEZpoEz6qGcIeoWjIBk3AFttu9iXgnSXHs/Kb7pl++rGzfMOu4lj7Hpm8WZfsHan9k+HO52Xkd9hBYXFgQhMAQE4VjgFsEBU+YWsQ+WIXq2bmmcytUzu7NhW1YF3Cg7c2WWEpYMITBUBSIVTRAx00EbNJk/RBIwOEYAI3HEIzMKxwinN9txxDQILBBGACNwOBGYhFd4OGGGeEAGIwMxGAFLhzG4/WHqIAETgliAAqfCWwAiNQAQgAjMbgVk7bUKkbXhh/uL2+vcy+xyScLegoVhRG1cyak5dlLjs5xwrfChLWviGjfOZg1vs7cHdV3IKGt2s556wnPigpWs96/KqJpA2ntAOjAARgAgMITBrqdCoOfVWLfWd2D1byt/6+taQId4/dB5eWtbmuq99rHCnx0xTf+qr62AJMSNy9Xof6bfnmsGKRItlPL2RsZ9RvK+PF8G1DGNHh3cgAhCBSSAwa6kQ1N2oOnGg840/hSUXVuSPrQE8CZDsUTz4ERxt85keVwIbK9zFsI35LLY9amZnFiR6R8SJwjl0ImJSddT9cLlZaUbwrKj1SZyu82crei0I6iNat5QtLSyo6UP8olbEcJmeVIpleRofQX7USy7lVzifUTLp2sCIEAGIgDMCs3us0FTfVtjmlbTO4xY0OlMYzJA3Xx8lrjdW+OSyJPPjl4bjmwu+OX4s54KUOn/FAh/gPFoUNcW1xuD4GF+U4C+K4+uuldT2YUzaVXMur6Cqy9LfdOH4NznHT0IenBzMMBZEYCIEZjcVAs/wer3eP5wxngrwRBDZ7qN+oXx8W6PMVcJvrPBJGQVnkHCD/Yzi2hYV2Lxi7Lsu7qVwuHNtQ4qqhvIKDTdhdVICp6+irFkzqGo8ScMwGkQAIjAlBGZzBxkD4scBjRmhEYBbOCjxPiV4BiOT+cJAXUveqM7xWOGTzYRMJuMZ4as2h9iZbg4OHGNHBK8nrBOulTTIotYEG2svS27NWOdkCwXjQQTuQgRmOxXO8QCaphrTzXHJHHpYsFd3Q6mrROlY4ZN/jvR6vaWvvSC/cjRR473nL+CZWmU4gSiq9WyNUwTXwcrJZwdjQgQgAmMgMNs7yMSQcFJHvWqkLqp3+LJViYIRh/uMAY8tGO8XGkSUNba5iquOFT6eLZd7BllzJ1kQEzrXA4/g8WSGt7+3XU2b4CuKCzHXFf9QVnIdH7Ekaq6TgpXRYKIwvYdOv5hCdjAqRAAiMAYCs5sKCeGBSYH9hYUjnUJmeHLKKiHNldnGQAgoxocGmJqbul2dsbHCx7LjNlwvKb1QY+Ampty39YH7UpNEfC9sWJMYIEoIGKgqbVT9aFHWltaYhYkiv8FTACwd9TUd5IiNv9icdt/qWJZbszAQIgARmBoCs1CvcAgAIuOBd2IjSype/3LEtC8a+dArabjsfV8MnZ02NchgbIgARGD2ITBrvUJst0lkZFXNeyN5EAjr+/L8dZWlddPZ5zH72h/WCCIAEbAhMJu9QtjEEAGIAERgkgjMWq9wkvWH0SACEAGIAEAAUiF8DCACEAGIwAyhQihMDR9ViABE4CdFAHqFPym80DhEACIwMxCAVDgz2gmWEiIAEfhJEYBU+JPCC41DBCACMwOBmbMHma557jlpxCXBnm/It+70TQJ/+b1RqsJvXRSh8X4J94qQS3mlXa5bTEa2KmFuaEyskDOXTsZbTRpFS0VxVds01it6hK6NR4rPTUvSemY8ZrCUEIE7HYGZQ4Vq2jvvBP75jab3+sJ2nr9p0S17uzCCQ9nK61dclfExvRlDS96orXYjGxM/d0HS2nmW5qsXSztUZgKDPRevnAYPgm12Pt5MXO+d/qTA8kEEZjUCM4cKQTOo6W8fZny3U5Zazs/R3nyz4H2F86idFc0usjVz6MHB3jeaL6vGlwikBi8UkttKT1+2yzQYetsGt/fRAkUJsby5ZJxlQH698nKlDBAkOWLNPb7KJguby0DxRJxWcrWsol2PkLmLlkT4M+lE1GfDfaFAnEvVfBFTqwYaEMx5ixaFB3qSEbO2u/FqaW2PXSrRPz51vvayhD4/3I9KRHRtlwtK28d3XW8eKGgBIjD7EZhRVAjIsMLnpLbuF0sDc/KdpFqm10wkbijPIj7v2gfG+4YGk9pLJRM4eEQfH6a551rHKFEHVlTSYu+OktMFXSZyYNz6hHjd6fONgLjnEPwDqEVn8kAPmiZcmSKK6JBVdOtll8/JaOGrN3Jlp5zPfEL9Fi2PoTUXfnOmz8IIXrEmPkF9umhQGocZGqG4dPHbH7QWPIFokzaEF0QAInCTCMy0aRMLuaIZJwwdIN1kvRGENi/Yt6+5QeFiiMAPCTBJGifoHINeLYmAGLU621klztdcPo8ib6zqAkxq0bc3txm9Azn27rylv63RPpKokfdqyVQgpDjWhffjBeLb6xr6gCdoUUkau/C+PEzo33HdkFS1azEKtJiMkAnHAhGGQwSmgsAM8wpB1dRaPJ0N9O9v7sJ7hwupHVdH+X5g9HBub+OliSdmjCYTQiRTEGTkAVJ4mgeZ6CdKSxM5yodHVEQgr4Uxlkk/6EL+CL6O9xIiACMk78T7AgaN4JBuInbmie270aBzPVfg5sCAqSECEIGZR4V0qsU4cLPFJgaEBlpazslcfCrQOZ5HkFWMIkg3z4nxxg0VYZ6/L75jRA/botPrjR1Vx4tdTNsFWd3YcRtk0pmMA5KinIru8ccr3SaGgRABiMDUERjPN5m6tZ8+BV4vCrbWNHiMPAeYEhi3NinaZ9LZU4OFPqrmZqUL0ZC4EQGm1gbX0UP3Zvsl19rxwfFLowK8yCgeT6Iy2eAAT6RbLNX6RIgC6cCLwwI5PoyJeNsIvEWqF9ve57ed8WTpbG77kTt/vh8NpEUJNG+/uTT3pYChEAGIwC1BYKKf6S3J5NYZoYt6NlGZb18cOWeCC4pLSeFdqi+snlxO3sECameV2HVihBEcPFfZ/MPoY0bcW9W3lZ0tiRbNX5g034OAN5v6u+uKbqiNipqzZciS+UlpiWTQJcYWG/b2uB6KMtKgse1aVWB8wn1pCSb9jdrz58Aki7nn8vkq0cKYlLTl4Hxknaq3/nLXjVHnjrovFwyFCEAEpo7AzNArdNSLrv7zGxJ2TvjO/JEzDt5rn3gquvEff8vvnjoAMAVEACIAEQC9rxkDArbbpI1bGLzHhQfBmj0enyktK4c8OGPaEhYUInDHITCjvMI7Dj1YIIgARGCWIDDTpk1mCeywGhABiMCdhQCkwjurPWBpIAIQgduCwO2hQqhKfVsaG2YKEYAIjIXA7aHCsUoDwyECEAGIwG1BAFLhbYEdZgoRgAjcWQjMnMU0dxZuE5WG6BO1NC6CjUm6dl87i62atl14ZnAiUOWiEizmvuvnz1a6ikEMm50bvTpxHoNCQdqKc0rcy3DhA5emikwXv7ncM1Fp4H2IAERgAgRuIxUSaStfXb1OXfHBX9vHZoQJij/6Nitq40pGzamLkpFb82hhq1O4stzvG8fZsoFnBS8ShQaygA6gSacDKoGXSxpdVV1HZ+g2hMwPn0/tOvc12EQMdLSGhLzwgVHz5/ZdPn5KZkTBBhW3SR2BN6rPfnPNZ1HqUrCZD14QAYjAT43AbaRCo+b8q2c99t379O781z9UjNL9m1bN8f6h8/DSsraRPIjM8Q4JpnZUt4zDg8gcr5glMayusrziHj1CpDK9aYaJ9WnGKiTFg4yoJTcwsjM5qciQKRScVtqLhZhNUF5rLPRgOETg50fgNlIhqKxRk7uvJv7QsntPnzzR6FR5VsJvfr9Knb3vWPW4cIXuMwAACCdJREFUntMouDz4ERxt85keF5YhBgTzEWlR+7h0i6NSSHp5u0yFbU02GTu1w+pbRK/QBaJwrheNiBh1akn52cuY7gzBPzohlu/NIOEQi7a7+WpJFSY0zRDGLwn2olIZeLzovvtikB/7as5eaNSQ+YuWRviQqVQ8np6cFgZStJR8X3MD6EF4cEWLo/jeVOKP+httNZcqpKpxOZLMiVoWJ5xLRnSKljZAp+PWaRRAMAAiABFwj8DtpUJQJsn1c9Uxmzaxc/bJhylAp5Q2ibWKqfEggjCFwQx5fZGr70cNDgEEmY/xzjiXpadNhiSI4rSV9Y1dNmFUx0Xmxy+PoUhLv7/QoUEIngyixn7TpLohvdJa2q0yAYHCdSsWRLTlVSoRVVNZXhPCXLB+Pb3+myLpoB295PJZCUKNWLc+UJqf1zCoBDGHHrV8kf+N0lMXuvSod9Sy5atE+m8vu1L5cFlIvMVL5llqvv+qUY1nR61NIiOScaoEb0EEIAKTReD2zyAbG6r7WWE+TOcS6xrzsrKLZZOthD0e6hfKx7c1ylxlTYEODaOnrmXCw1BMbZfOFkkQ/0XJafetTozi0uzyNyRusJ+l+UpVW7/JYjHpFb2qwQw0nVLAgyBzY7esW0+kekz9jAEvHp+hvF7TpQeUaeitb+jEB/L9xzaDZ/v5/tjZ2KwG0Y3yxuYb4zqQU4MPxoYI3NUI3HavEMhSqw0IjUhHkBs31RLYMXW6ljxXj4oQGPr/27u/mLaqOIDjhUtvbyldqe0qG39jsw429r8qbtnUZRBjjFFD4osJ7sXgiw/6bow++LDMxGgWkz2gL3tUX5Ylm44ZnTjYH7ZENphF2GAM2AJ1tLSFi56hmK1r7y14LffClzfuuT3n/D4HfjnnXjinyjbYcTM9QWZq68/EaO+F0d5uJVCzbUe4cY3teMdwSlGUglgsfaYpPi5O/qyvr/Q5JbG5dKFLkZayHYSiyGpiamH2q8ZjqSKfU4xJlhQnORQpeXfhFIG56eQj5wlkCotrCCCgK7D8s0Kb2+2wpVJLf0UxH2OBe2OwdPR6JH1nwOKqUFms//qijtZUE2OR87+OSP6AV2ykmkyIg+lcrnRJqXzH3nr36Pn2Eye/O3mq+1bai5r027N8H0+kJOX+/qzzX1KxS55NTGd/LqAmE6pDcf4zaIWybILhyxIZlxGwlsDy/y7JG7d4or1jDx8Ronge87oWMWOVykLV8nDfwplw/46BNxRcM9YXyTCne2SYHL6amjKvmN1JklwSCAUDtsnJqHi8mBgeuO0Mbt+8XhzLJEmKJ+D/Oy3aZXluZjop5m92bzC4XpxysoSv6I3+Ce+GLfOLcYevtnadOjRwK8uUUFSvjt8eLVgXCrrF7bIvGFybfS29hM7wEQRWscAi0s3/o1Sz4bktU2fffeCdiTgBqfrAW61VXYeOnMnxDw6VmlDFTOR0+jF1ReV1VdKAWOTm0vUCxb9hazjskotsaio2MfLbjxd/n3+7kYh0/iTv3BpuCpXIUio+GelqvxNT1aGrVyp3hV96NTwbmxgUb1pKPbm0kn7Pvasd5+RdYrfqp6S5xMTNK2cuzq/wHVW792/2i6Qs9scON728XY31d37fM2lL3ujqLN2zc3/zNvEGeWhw6I/q9Ar5HgEEliKwPPsVLvRULnnh8Iv7Bto/PDz+4O767t0H39vZ99nnZxe1rl1K+HwGAQQQuC+wjAtkuWTPB8/vuXvuk4fzoNhZu7zG2995mTzIjygCCORLYHlnhfmKknYQQAABTYFlnBVq9otCBBBAII8CpMI8YtMUAgiYVcCwVMjG1GYdYvqFAAL6AoalQv2muAMBBBAwqwCp0KwjQ78QQCCPAqTCPGLTFAIImFXAuFRof/b9fV8cffLtV9x2swZLvxBAAIHMAmLPgfUZS4qLi6fj8YxFmS/ODf4wePpOaXOrP358dJAdRTMrcRUBBEwpYNys8H548f5Y3FZUzHEcphxrOoUAAlkFjE2FWZuhAAEEEDCzgMGpcGp6fMa1rdHjYWJo5lGnbwggkCZg3LPC+YpnYtduORvfrHv9jTL3paHL/21fagYLAQQQyJOAwfsVugIt7wQmv+n6+NtoNKddAvMUJs0ggAACWgIGL5BLnGvtscunyINa5pQhgIDpBAxOhaaLjw4hgAACOQgYmgoLPE+4Sm2zcZbGOchzCwIImEjAuGeF4r9NGpofj3e39f6se+SwiQDoCgIIICAOzaytD2d08Pn97LuVUYaLCCCw8gQMXSCvPB4iQgCB1SFAKlwd40yUCCCgKZA1FbI61nSjEAEEVpRA1lS4oqIkGAQQQEBTgFSoyUMhAgisDgFS4eoYZ6JEAAFNAa1U2NDS03m0p60lWqFZBYUIIICA1QW0UuEvX23a+5FfOTB8MGT1MOk/AgggoCWglQrF55IjzqEZ1aFoVUEZAgggYHUBnVRo9fDoPwIIIJCLgF4qnLOPT8xufyZa58qlNu5BAAEELCmglwpV5dMj5eM7Il9/ebGtSbVkiHQaAQQQ0BPQ25lGSrS2Dq+9FHztmOfqPb3KKEcAAQSsKaA3KyycqfAVdXeQB605vPQaAQRyE9BLhbnVwl0IIICApQV0UqFj3XSFXUomLB0jnUcAAQR0BLSeFTa0XDv0tK3nRGVbn04tFCOAAAKWFsi6i7Wlo6LzCCCAwKIEdBbIi6qLmxFAAAGLCpAKLTpwdBsBBIwUyPqscFNLl2in79heI1ujLgQQQMCUAswKTTksdAoBBPIrQCrMrzetIYCAKQX+AhOcCfCUft8BAAAAAElFTkSuQmCC;" vertex="1" parent="1">
          <mxGeometry x="810" y="190" width="317.43" height="282" as="geometry" />
        </mxCell>
        <mxCell id="hXhVtGYEjcbIQ-P3suZ7-5" value="" style="shape=flexArrow;endArrow=classic;html=1;rounded=0;fillColor=#E6E6E6;" edge="1" parent="1">
          <mxGeometry width="50" height="50" relative="1" as="geometry">
            <mxPoint x="610" y="339.5" as="sourcePoint" />
            <mxPoint x="730" y="340" as="targetPoint" />
          </mxGeometry>
        </mxCell>
        <mxCell id="hXhVtGYEjcbIQ-P3suZ7-6" value="&lt;b&gt;homepage.dart&lt;/b&gt;" style="text;html=1;align=center;verticalAlign=middle;whiteSpace=wrap;rounded=0;" vertex="1" parent="1">
          <mxGeometry x="815" y="160" width="105" height="30" as="geometry" />
        </mxCell>
        <mxCell id="hXhVtGYEjcbIQ-P3suZ7-7" value="&lt;b&gt;File Structure&lt;/b&gt;" style="text;html=1;align=center;verticalAlign=middle;whiteSpace=wrap;rounded=0;" vertex="1" parent="1">
          <mxGeometry x="1290" y="150" width="140" height="30" as="geometry" />
        </mxCell>
        <mxCell id="hXhVtGYEjcbIQ-P3suZ7-10" value="" style="shape=image;verticalLabelPosition=bottom;labelBackgroundColor=default;verticalAlign=top;aspect=fixed;imageAspect=0;image=data:image/png,iVBORw0KGgoAAAANSUhEUgAAAOgAAABaCAIAAAA9yY1RAAAAA3NCSVQICAjb4U/gAAAU1UlEQVR4Xu1de1xTR74/JDmBJIYEEgIhPEUQ5CEouNRXaa1iFbqoRb0VlNoP9d3aemm1tXftbW2t1KpdtbZ2kfqspVV2aS2upUWs4CWyQARBjEKAAAaMhJiEcEK4c0JASMJTwkNm/EOYM/N7fOeb3/llOL8zFu6evghsEIGxhgBhrBkM7YUI4AhA4kIejEkEIHHH5LJBoyFxIQfGJAKQuGNy2aDRJHNAEODCsrCw6JT8SI3drZOZQxGUOW4RINqwOEPrfKinw2cxMx1taFNdWYFu7DBfHuDxpcIqE1oIvi9/sJpbnFOuRFwjdr7xHFKUJ1I5L/nvDT7inFJZm4kZsAsi0I7Ak0Zcb0cbS5TYFc3XnvepbJAnZ5a2d05zt/N3se0TbklheoaouqnPcXAARECHwGPiUhnWmKwJM4ELymAgMpmpKwiyY8l0ni3NeNK+1bM6OwWiBuMBBj2qqhvZpoJynxPhgPGJQCdxuWHrtwQKjib+WtmdoVTPpW9sdPlz14E/DbJUJ9YEABmJSDjwS2GBjpoodyJWe4/IYNOZ6kaR3JJOYGEsIk0VPc2bYTFB1vaoF4ht527b5JT+0ZlifAzDN2JzIIdD1chuZ184nSFU9TIRXhqfCHQSt/bikRPMt9cnIF25i+Ks9RYcMWItACtimtvLoR7gh62Lp7Zjd87ur7Vk+4ckxouP3m0kP2wmYsHn5koKaORLVFvCHVlrb8Tthj5RI/rnvsMiDW/mmrWr4+T7vsqFX+3GJz179rrLdpi89MwXJypmrE940QXFJ6CeL23Z6Ck48sXFO0oTAvh37xv0WmpbAhS3JjZXEtosXJQMTjMekuX2Yq3DAxPze+mS3r5ZBaIsJs6+cKXBy8+H0stYeGl8ItD9yxngbuKJ6G3rE4gnUpFFcT6lRw5evNNsGpm8e/VKtYZq+ViCmmD5Ox2Pvl4abYl1PfjBBUHsxZPBDxbg32DaA0mDKohGRRCYLQwGvqd4jtEfIJSlKfu+vRO0fpNvb6xtRyTXKOgONVIUazoqbzQV8IdaE5Q3thAwIi4wX3kv5aOtmz67WNFDrO30kC+UPJm3GNJKIVkaybD1DZqIpwd0/6Vz7W/nl8JwawTRuO94on3cXGG3NDdYnv+ISHVokXgorDGigo5ZMj3lbfcnaCxVdfmm0lxtVUGRJnbdTnrKZ793XQmFhrfkgw/piEpalnX8dL5i3K8SBMAIAYsnfJA8cro7StKHbbWjbwt3skWLykaaQea0IBiCFtgyG7ktrViy6MqjNnjHN4IfdgwWgSeKuEBpWl55p2qPV1dO4E6xZDuqrqU6OxGpDKL0PM0Fc7K2oDEIeY9aIXEHu0pwnhECTxpxuwokoGS7mYvkQkFzXfnkZ+gNleoHlS0hqJ9EKy1vFRuphh0QgcEjMJTEHbwVcCZEYIAImNpVGKAIOBwiMPwIQOIOP+ZQ4xAgYEhcGs3Eo15DoAeKgAgMKQKGxB1S4VAYRMBcCEDimgtZKNesCEDimhVeKNxcCEDimgtZKNesCDzpX84GZJy/B4vQtfpXhd0Vw0fEBwQhHKxHYPiIG+rr8NHrf7l590FbG16/y6RbNsrV2/5+DS4FRGAQCJiLuN6uhtW/ayN8Ku/Lv7uor/4N8rLz9+i7+ncQLsEp4wGBvok7uOrf7bHTeXYmtoQ/39Kl+lfYd/XveFgD6OMgEOiTuAOv/uV0VP+eKyzsmZpOnAnRz+G1lqYaZdL8uMUznK0pKElekHLodBF4JJfuNW/Z0pCJLFRRV/Lv5B8LHV7eMbf5usoj1Ne26tyeEzdUtoER0RF+XCradO/KT6ezRPjj53TvyOjIYB4NVYlzUr9PE8oRBLxwZCWrop49yY1Fweryf05OLQTPCpvSaMoy2DdKEOiTuAOv/p3ltixMV/27Ql/9a9LV3d/dMNmPd06KfDm4KfXAe6UKhGJrjeAPkjvMezXOo/jYwRPlGN3BVguo5oCgvn7cH85+dU7cpNIQnCJeW0L/7cs9+Q/oU+M2vRIpSvxBxJy3eplT/j8+TqojTVqy7b/+WvX5qQKczmx284Ujnyc3UcDIZZHexcmlbsYae7QOXhgNCPRjO2yg1b+3DKt/Tfrp6cw02Y93YhhCcXB1cwDlOyppE04152eCaAWX/ihXaRGNrE4CAido2mp+epZIqtJoEMR1ph+hIAuPnYj85pUi7URvNsIJCrEVZmXXgRdFqIRX+VJXX167u6CK+F4TmCS/yRdpHXgg0zbW2KNx8MKoQKDPiKuzckDVv7frlc0aqlUfkr16Ia4o/exvKyKitj27QibM+zk1raDJlkVXlMu1BpA9fnUJydramjM5dutkfXmauo6vQUAf3X/5m7yOkjVJvlHxGgYYixdwGGmUGuoaFasFjehEoA96PUZKV/0bve2NTS3/TjzYRx0lv+T+s0G83lH2dGbcre5pE1clyko+nIVQeM9Exa2Jqr2dBJIBOotOQHrik0bR1CQvTv0yuRQE0o7GaWpSia58cyzHiK/GphlpzO3HJGMxsGe4EOhHqtBpSr+rf3NL+q7+pVmhNIruxSPGjebgiqcJiKq2TCzTkEgoIioWoiHhsx3wzxmFZUs3mlPBL1L5hkf6AnLjQ+j4dElhvsR1YVQQS/fpROm0HtSBi8YajTTAjlGFQL8j7kCs5vcvzaVTyaalsn3nLZvLs0YRLdYkPH82twnRFKR+x4pesmFHGIq0NpVcPPJjYfepmvL04+cilizZtHM5KNJUVaWfPJUjlVw6cZYcHf7GjkiQxGKS68lJf1T3V6PpcbB3tCBgWLoDnsdVKIagHjxytjtK7COcq1o0v+aIRgsS0I4xhYBZIi5AIO3Px9W/YwoQaOzYQKCPoDg2nIBWjj8EIHHH35o/FR5D4j4Vyzj+nIDEHX9r/lR4TLJh2Xd1hEqlkq1MvCvJnmN3X4K/8hY2iMBoQABG3NGwCtCGASMAiTtgyOCE0YAAJO5oWAVow4ARGEniElBL3sI4/+3HqbyenigfsD9wwjhBYMSIaxv4rP/2JO68lZYs7uQNn09w8x0niEM3hwSBESAuieXisnq340tbLKz0T3kRLSnOL73etz/o9E0HdkV12wXpe9LoHYGGbj36/iJYMDqoFTLXswq9GNM2eeHDxuabJ8+BMeCQdRKZTLKyRC3JmOsLhPuFpGa46WYKPGLAqh1zJEcPX4YFpjp4hjviqunu6lYSNzDIeeoUoB68YwFTq1WypiZwoBnBRsENa6FPNLVu476PgDLt7Wjdjvse15gMa8RtI5BUNv5WajWA3CFgKoFIFP3npgH8KvZ0xIJAbhKaXhYidcrShBBPV46lsjzz1JEUQSMYh7rMfCU2KphrgyjLc88f+/56PSjqcV+xN557p57pO5FNw0SZKZfEXuGLglxtUFlxWtLh9Lt43Y+VS1hMbJQfG9XKCv6VlJxZiaHT4z+JJN9WOE5x5aCyssxzx34CKlA3UKu5wIdnQ0UeVeb+lHTsWi1unpXH/DWxiwO4NG1DWQ3qVn9u07d54CRiz0UxcS9MYqKYGBhz5np9azdXmEEr4qNDvdioorIBQbEy/CJ3ZmxM1HRXDhVR1Jak/uOby+BAZWD/Kmp2nWNYMFeS+g3f79UQBjXkw/1hoozEvT+Lu8s0jdVT3TusEVfF9GsjkDU64oLG8fVzneZvDG+zjYnOjmEM2sOfE9/dvPHjDCwsJsoLFDVQA2M3L6dnHXx788YPz9f7vJqwrGOPwt5OmX4oYctb7/2Chb0e4ys8t2vb5jf3C+yiVs7HE2VqYMzmRVj6rm1vbU3MYUatjXLClZCtXFyVl3AVn2Ugc16Pn8UAtZSNVYLUo7s3vr454XSN5ytLZ4KzLhFqyJrNi9GsxG3rNv7tXA2N3W4hc+6rm4Ibkne+tSnh6zvuK+LD9P16+7kRW9f61JzZFb/hncQ/ajqcktUUXT326TtxG94/UmK3fNXz+jpSjwDPmvTEhHcSMwSXDx7nyypT//bW1k8ha3HYhpO4FmpdGoCpHh/8B7jrFhLYsX6d/+PvaDLdWmv5f5Q0YghWe5VfznB0piJowKwgZWbKVTHobLh+Ok1gExTs1n5LbSjJLWsA3fXX8srUsrKiSmUrohRm8e+z3R1R3URZ5i95ja1A2u+Zt9mefjqStVZmZwhwFdW/n7na4BXsAz4cjWXXC8pxUY0FebfUjjwwEEwPkGWm/C5uRjCpIDO/UmcwIyR0kjgzDT/9uPnuL1k17n749M7GmxFsV5T2Q5EMaVWKcwUV+nJPZUX+9Tv3lUirrPhPgcTOkddu/0PBxUt5YrkSVHTCZoDAcKYKbbQGvsJuBvhK1ophRFS/oHbePuDXqoLiAa4N1gJul+BzR2Uw0MZ8qX62UtwgsWQwDT6PQAFgmj5BxFowVD+R6rL47V2z9AW9DRUFhgSR1DUiXgzcUO6c5cvnejKQFi3V3QbNJKJAL5XYKOnQq1dPZDCZVK+o93cv0IsSF8m6CEWZLKpCCj4UBg21C4pcvtDHDlhI57qhArTdfgxrMRwJf9cjMJzERciKKos27SO7UJAtdBIXGOLgH4BotVWCksEsi1qpROx44NavKydDWQzmo4b6/hSXK2VKtSw7afdpYVdqIQiwrOOUViab2SIFgZa7OH6pY9buXZkNCNEn7pMYXFN3vXrLW2WNckySc+j9NF0SbNgwhRyzsbdDEV2G3dnoc+LW+hR/tvdwNYbYL939P9yeqzoNJY7b34czVcBBRpViRvXFlgeG6+owNdDJ33swy9AsyC1hhK0Md7MC4conarFP/f/d6Nd3F0xwLR8NWxnpqdtNRhlsPHHFG3fWglBALpQ9Z/lsakFOCX53IKM4oUF8dw/wZOt41akXTKN6zAwAJ8WDJuPnCDkLVsx30QlDGUzd/3Yz8C9kIHOtuCF46Be5ajqeajD9fEDCgjcCChoZXwoqb4YPT2sqNdAqFRiD59hho27eeG7DGnHbgSa0qh7xU+muCQa4gz2yNq229tZtQgu+VdDvBqLmYeaaFQn7IhG17M614wfS2tPNPgUo+ScPMWNXxn+0n6YFsbAk5YvjfPyJTpnCduGuAzGIuuHWL18nC0BX5eUL17fGvn8kSvlQJKy/3x4ucb2ctTEJX0SS5bVlSvCOCLy/MfObA4yYV7bsjiKCymIZ/+T+00UYZ/L0GX5o5vnrjeXnD56kxq/adSwee1hS0tj+YgnZ1X9eDoh/d/9iTFZeUgOSZhOtVXj5X8I31+4+LBck/+9xvskxJqY9tV0W00Kf7+oceB5XCe69Rm3In8e1nbWUPU93z+3S2jSYcG9sm2bkUjvwx7nESPGnu1L79R6pTtNR3zW71yi/fiflrhFysMMsCAx3qtDphPTa+YaMUwY+qe9XjCRrB4owlcuzxW/2qP2c+VMx/o1+RvqBqoHjTSAwAqlCV+4C+powaqx02QdErZrrCXJjZQ3/+0Op5Ua7BWPFkTFo54ilCmMQK2jyKEJgxFKFUYQBNGUMIgCJOwYXDZqMIKSHD7p9f25pNv3uMINhEDqIwMgiACPuyOIPtQ8SAUjcQQIHp40sApC4I4s/1D5IBIaDuESy1aSlm2fvSaO7DOpphEG6Bqc9zQgQbVicrv6RyWT8QI+haw5/CQ/a+nd2wGyUZu0Q+mJj2X+apXVDJx5KGqcImDHiWtlP8tty1POVnUQqKCLAG8mK5rVym9mQdpi7+ZM3F+rKGAbQKDPX7V8dBB8kHABko2GoGf/kSwleLpNjt4yqecn+0S0V2YhcPNT+Pyi9mi6X4kedma2hftHbvEv3/XhzKG9KZrP2aRZsNuKyp2jaLB2DplkQCNWCkvZqXrygF4BpaU+YvKRN9Edb/UCrHnpfCUxSmNX3cT+9y+jrKpVpb42f6APbCCNgHuKCyhanme1FkdypgaCatzK/yMBRC9fnEAtim0RgAgCC78s7IqlCJWeSM91SJrpyIUsdEj7Li0NHpLfSzn6fI9EinNBV0c/6chgURFGdfzE5NR8EWjRo7d6goneScpGgtR/ObC7GeL48BioXpqeczRDpCzT12khs/OBffx6DJK+TWiIPdd2mZcbt9JfcIHk/40op+JXv/KIXSnH/5IP5ty99+W1u+wGXJhyAXWZHwDzEdQxFiJad1bz2fnjVrgnu8kJNExeMRu3p0n2HP63GuOHrNm2Iyv826UCylOQVtTk+IqggKU+lqi3IOJUmFDdRfFetW7HE79a3Rd2oSaETbicdOi3ROoWvezNqdvHBjC7fCAnuC19bzsk58vlX1YjzvNh1+rTYtEyCtbcXJeWnPWfrVCo1onXd61f4XlIuTBXMTs3eFZjjy5kFYucHtHat5gXcdQ3u7UxqQyu11aX51fjJveKcmzUqSVmxFPBSUZZfqrTlssBguai4VKw7j7ckW6hi82wMBUjKCiUgL1FX82/W2XIdul12DfFD+Jf+rAbXVVXZRVX6iz3JFGZfyBc1qdSQrIYgj+Dv5oi4bUjFb4jbfPB+pa7VvByfKa1YS3XhQCsiMQ1G6qyi14CtOl15MIkTuHDRXNcJKNZKAadI83veFcA39wgI8LPzsFRw8C+lqcz4dNX+yxzBBYOq2xEwB3ERRHoH0bYiE8MNqnm5AYGItq36ZukTo896duVy2+t7DoNDJwnuEQmrBiQQHPyrsnWwJyDdT7V+IpkDMgAOfnIEzJEq6KxqvIfcPNFcX21gIqiIdPLz6ujs+cUffXiGggN+8TN+wbG9PD+Pfr7wkPNMVPS8SWBPoKJAiISEL3CngEjMDpzEbVfWL5lKlcaW42Sej3sfPsPLXREw5xJgCknmKYb7x4bcDZquBdW8JXfalIN+82Bd9qXs1VHbP1yglIrL5A2dWUBvi0uyn+w/lSW9kiGUlKUmp0VHx22fTVVJikVSlS7R6I9MrPRK+oyY+B1Tm/LP7PkZHp7ZG97mvWbh7tntjcpDdZZvp9WOL8Q6R643cEKrwfK2h2ux7ntU5vUUSn+qEDBbqtCBUs1vJ6vSjhpgphTfgax9qng07M6YPeIOu0dQ4bhAwOwRd1ygCJ0cdgQgcYcdcqhwKBCAxB0KFKGMYUeARJugf1i2U7Vxz7BbBRVCBPpA4P8Bl3EC+Qo/X0oAAAAASUVORK5CYII=;" vertex="1" parent="1">
          <mxGeometry x="1280" y="190" width="206.22" height="80" as="geometry" />
        </mxCell>
      </root>
    </mxGraphModel>
  </diagram>
</mxfile>
